<?xml version="1.0" encoding="UTF-8"?>
<svg width="1280px" height="1024px" viewBox="0 0 1280 1024" version="1.1" xmlns="http://www.w3.org/2000/svg" xmlns:xlink="http://www.w3.org/1999/xlink">
    <!-- Generator: Sketch 55.1 (78136) - https://sketchapp.com -->
    <title>sprite_icons_cso_32x32</title>
    <desc>Created with Sketch.</desc>
    <defs>
        <path d="M18.6622846,30.9719975 L18.121407,31.3786248 C17.9285724,31.5224984 17.7181235,31.6460822 17.4976225,31.742459 C16.516204,32.1714052 15.3579974,32.0585198 14.4770079,31.4487171 L13.5168925,30.7841318 C12.8546718,30.3036176 11.8213327,29.6462512 10.4168754,28.8120325 L6.19406466,28.2804545 C5.07274655,27.9538799 4.21545787,27.0227595 4.00187347,25.8485296 L3.22776834,21.5872888 L0.625653725,18.1246388 C-0.182019929,17.0506592 -0.210055188,15.5861921 0.555196695,14.480671 L3.02073165,10.9192462 L3.62828521,6.63079854 C3.77943583,5.56991523 4.48262281,4.64340616 5.46487128,4.21501331 C5.68574116,4.11789863 5.91804647,4.04743746 6.15533173,4.0039987 L10.4168754,3.22938695 L13.8791376,0.627672762 C14.0724333,0.482231314 14.2821444,0.359938757 14.5023687,0.263838573 C15.4990037,-0.172485773 16.6281606,-0.0627360432 17.5228911,0.556750458 L21.083,3.02178473 L25.3713801,3.63038848 C26.702686,3.81908424 27.757697,4.83496094 27.9983945,6.1574913 L28.7725918,10.4189165 L31.3747064,13.880921 C32.1821034,14.955085 32.2096776,16.4196444 31.4453479,17.5255343 L28.9797207,21.0867747 L28.3721672,25.3748535 C28.2211088,26.4364746 27.5182907,27.3620614 26.5356733,27.7914687 C26.3152645,27.888399 26.0824059,27.9585835 25.8458584,28.00193 L25.6611393,28.0352238 L21.7316334,28.8120325 C20.3719978,29.6796017 19.3488816,30.39959 18.6622846,30.9719975 Z M22.1104339,14.7908856 C21.902966,14.5787463 21.6512103,14.4727562 21.3547776,14.4727562 L20.9994243,14.4727562 L20.9994243,12.2908259 C20.9994243,10.8969154 20.5106625,9.7000597 19.5328277,8.7000597 C18.5550708,7.7000199 17.3849069,7.2 16.0217525,7.2 C14.6586369,7.2 13.4882396,7.7000199 12.5105605,8.7000199 C11.5327257,9.7000597 11.043964,10.8968756 11.043964,12.2908259 L11.043964,14.4727562 L10.6884549,14.4727562 C10.3922557,14.4727562 10.1403444,14.5787463 9.93291543,14.7908856 C9.7254865,15.0028657 9.62181095,15.2604975 9.62181095,15.5637015 L9.62181095,22.1090547 C9.62181095,22.4119801 9.72552541,22.6696915 9.93291543,22.8818706 C10.1403444,23.0938109 10.3922557,23.1999204 10.6884549,23.1999204 L21.3550501,23.1999204 C21.6514828,23.1999204 21.9031995,23.0939303 22.1107063,22.8818706 C22.3179406,22.6696915 22.4218109,22.4119801 22.4218109,22.1090547 L22.4218109,15.5635821 C22.4219664,15.2606169 22.3179406,15.0030249 22.1104339,14.7908856 Z M18.8661753,14.4727562 L13.1773297,14.4727562 L13.1773297,12.2908259 C13.1773297,11.4878408 13.4551599,10.8021891 14.0107037,10.2341095 C14.5663252,9.66595025 15.2366359,9.38193035 16.0218692,9.38193035 C16.8071804,9.38193035 17.4773354,9.66591045 18.0329959,10.2341095 C18.5883839,10.8021493 18.8661753,11.4878408 18.8661753,12.2908259 L18.8661753,14.4727562 Z M28.047308,15.9994246 C28.047308,9.34575729 22.6529263,3.95137767 15.9998627,3.95137767 C9.34626741,3.95137767 3.9522048,9.34565094 3.9522048,15.9994246 C3.9522048,22.6534109 9.34626741,28.0480033 15.9998627,28.0480033 C22.6529263,28.0480033 28.047308,22.6535173 28.047308,15.9994246 Z M26.88,16.0807994 C26.88,22.0461472 22.0445034,26.881928 16.0801646,26.881928 C10.1157161,26.881928 5.28,22.0461472 5.28,16.0807994 C5.28,10.1157808 10.1151673,5.28 16.0797256,5.28 C22.0441742,5.28 26.88,10.1157808 26.88,16.0807994 Z" id="path-1"></path>
        <linearGradient x1="0%" y1="0%" x2="101.477557%" y2="100.48268%" id="linearGradient-3">
            <stop stop-color="#00AAA8" offset="0%"></stop>
            <stop stop-color="#7BD500" offset="100%"></stop>
        </linearGradient>
        <path d="M18.6622846,30.9719975 L18.121407,31.3786248 C17.9285724,31.5224984 17.7181235,31.6460822 17.4976225,31.742459 C16.516204,32.1714052 15.3579974,32.0585198 14.4770079,31.4487171 L13.5168925,30.7841318 C12.8546718,30.3036176 11.8213327,29.6462512 10.4168754,28.8120325 L6.19406466,28.2804545 C5.07274655,27.9538799 4.21545787,27.0227595 4.00187347,25.8485296 L3.22776834,21.5872888 L0.625653725,18.1246388 C-0.182019929,17.0506592 -0.210055188,15.5861921 0.555196695,14.480671 L3.02073165,10.9192462 L3.62828521,6.63079854 C3.77943583,5.56991523 4.48262281,4.64340616 5.46487128,4.21501331 C5.68574116,4.11789863 5.91804647,4.04743746 6.15533173,4.0039987 L10.4168754,3.22938695 L13.8791376,0.627672762 C14.0724333,0.482231314 14.2821444,0.359938757 14.5023687,0.263838573 C15.4990037,-0.172485773 16.6281606,-0.0627360432 17.5228911,0.556750458 L21.083,3.02178473 L25.3713801,3.63038848 C26.702686,3.81908424 27.757697,4.83496094 27.9983945,6.1574913 L28.7725918,10.4189165 L31.3747064,13.880921 C32.1821034,14.955085 32.2096776,16.4196444 31.4453479,17.5255343 L28.9797207,21.0867747 L28.3721672,25.3748535 C28.2211088,26.4364746 27.5182907,27.3620614 26.5356733,27.7914687 C26.3152645,27.888399 26.0824059,27.9585835 25.8458584,28.00193 L25.6611393,28.0352238 L21.7316334,28.8120325 C20.3719978,29.6796017 19.3488816,30.39959 18.6622846,30.9719975 Z M13.0429688,9 C10.8136597,9 9,10.8136597 9,13.0429688 C9,15.0732651 10.5044403,16.7586365 12.4570312,17.0433655 L12.4570312,23.4140625 C12.4570312,23.7377014 12.7193298,24 13.0429688,24 C13.3666077,24 13.6289062,23.7377014 13.6289062,23.4140625 L13.6289062,17.0433655 C15.5814972,16.7586365 17.0859375,15.0732651 17.0859375,13.0429688 C17.0859375,10.8136597 15.2722778,9 13.0429688,9 Z M13.0429688,15.9140625 C11.4599075,15.9140625 10.171875,14.6261444 10.171875,13.0429688 C10.171875,11.4597931 11.4599075,10.171875 13.0429688,10.171875 C14.62603,10.171875 15.9140625,11.4597931 15.9140625,13.0429688 C15.9140625,14.6261444 14.62603,15.9140625 13.0429688,15.9140625 Z M17.9210526,18.6968386 L17.9210526,19.1189509 C17.9210526,19.4995031 18.2330379,19.8157895 18.6178912,19.8157895 L19.0400035,19.8157895 C19.4205557,19.8157895 19.7368421,19.5038042 19.7368421,19.1189509 L19.7368421,18.6968386 C19.7368421,18.3162864 19.4248568,18 19.0400035,18 L18.6178912,18 C18.237339,18 17.9210526,18.3119853 17.9210526,18.6968386 Z M17.9210526,20.7494702 L17.9210526,21.1715825 C17.9210526,21.5521347 18.2330379,21.8684211 18.6178912,21.8684211 L19.0400035,21.8684211 C19.4205557,21.8684211 19.7368421,21.5564358 19.7368421,21.1715825 L19.7368421,20.7494702 C19.7368421,20.368918 19.4248568,20.0526316 19.0400035,20.0526316 L18.6178912,20.0526316 C18.237339,20.0526316 17.9210526,20.3646168 17.9210526,20.7494702 Z M20.25,18.6968386 L20.25,19.1189509 C20.25,19.4995031 20.5619853,19.8157895 20.9468386,19.8157895 L21.3689509,19.8157895 C21.7495031,19.8157895 22.0657895,19.5038042 22.0657895,19.1189509 L22.0657895,18.6968386 C22.0657895,18.3162864 21.7538042,18 21.3689509,18 L20.9468386,18 C20.5662864,18 20.25,18.3119853 20.25,18.6968386 Z M20.25,20.7494702 L20.25,21.1715825 C20.25,21.5521347 20.5619853,21.8684211 20.9468386,21.8684211 L21.3689509,21.8684211 C21.7495031,21.8684211 22.0657895,21.5564358 22.0657895,21.1715825 L22.0657895,20.7494702 C22.0657895,20.368918 21.7538042,20.0526316 21.3689509,20.0526316 L20.9468386,20.0526316 C20.5662864,20.0526316 20.25,20.3646168 20.25,20.7494702 Z M20.5429688,15.9566345 L20.5429688,9.61523438 C20.5429688,9.29159546 20.2806702,9.02929688 19.9570312,9.02929688 C19.6333923,9.02929688 19.3710938,9.29159546 19.3710938,9.61523438 L19.3710938,15.9566345 C17.4185028,16.2413635 15.9140625,17.9267349 15.9140625,19.9570313 C15.9140625,22.1863403 17.7277222,24 19.9570312,24 C22.1863403,24 24,22.1863403 24,19.9570313 C24,17.9267349 22.4955597,16.2413635 20.5429688,15.9566345 Z M19.9570312,22.828125 C18.37397,22.828125 17.0859375,21.5402069 17.0859375,19.9570313 C17.0859375,18.3738556 18.37397,17.0859375 19.9570312,17.0859375 C21.5400925,17.0859375 22.828125,18.3738556 22.828125,19.9570313 C22.828125,21.5402069 21.5400925,22.828125 19.9570312,22.828125 Z M11.0526316,12.0487193 L11.0526316,14.0039123 C11.0526316,14.5471867 11.4985952,15 12.0487193,15 L14.0039123,15 C14.5471867,15 15,14.5540363 15,14.0039123 L15,12.0487193 C15,11.5054449 14.5540363,11.0526316 14.0039123,11.0526316 L12.0487193,11.0526316 C11.5054449,11.0526316 11.0526316,11.4985952 11.0526316,12.0487193 Z M28.047308,15.9994246 C28.047308,9.34575729 22.6529263,3.95137767 15.9998627,3.95137767 C9.34626741,3.95137767 3.9522048,9.34565094 3.9522048,15.9994246 C3.9522048,22.6534109 9.34626741,28.0480033 15.9998627,28.0480033 C22.6529263,28.0480033 28.047308,22.6535173 28.047308,15.9994246 Z M26.88,16.0807994 C26.88,22.0461472 22.0445034,26.881928 16.0801646,26.881928 C10.1157161,26.881928 5.28,22.0461472 5.28,16.0807994 C5.28,10.1157808 10.1151673,5.28 16.0797256,5.28 C22.0441742,5.28 26.88,10.1157808 26.88,16.0807994 Z" id="path-4"></path>
        <linearGradient x1="0%" y1="0%" x2="101.999998%" y2="100.999999%" id="linearGradient-6">
            <stop stop-color="#3023AE" offset="0%"></stop>
            <stop stop-color="#C86DD7" offset="100%"></stop>
        </linearGradient>
        <rect id="path-7" x="0" y="0" width="32" height="32" rx="2"></rect>
        <rect id="path-8" x="0" y="0" width="32" height="32" rx="2"></rect>
        <linearGradient x1="0%" y1="0%" x2="101.477557%" y2="100.48268%" id="linearGradient-9">
            <stop stop-color="#006BD0" offset="0%"></stop>
            <stop stop-color="#00B6D5" offset="100%"></stop>
        </linearGradient>
    </defs>
    <g id="sprite_icons_cso_32x32" stroke="none" stroke-width="1" fill="none" fill-rule="evenodd">
        <g id="0:-icon32/event/sealed_event" transform="translate(40.000000, 0.000000)">
            <g id="Icon-Color">
                <mask id="mask-2" fill="white">
                    <use xlink:href="#path-1"></use>
                </mask>
                <g id="Mask" fill-rule="nonzero"></g>
                <g id="2-Neutral/01-Black" mask="url(#mask-2)" fill="#000000">
                    <rect id="2-Neutral/1-Black" x="0" y="0" width="32" height="32"></rect>
                </g>
            </g>
        </g>
        <g id="0:icon32/project/project-predefined-sealed" transform="translate(0.000000, 240.000000)">
            <g id="0:icon/project/project-predefined-sealed">
                <rect id="Rectangle-50-Copy" fill="url(#linearGradient-3)" x="0" y="0" width="32" height="32" rx="2"></rect>
                <path d="M23.75,8.53434589 C23.75,8.23948874 23.5111429,8.0006316 23.2162857,8.0006316 L22.2837143,8.0006316 C21.9888571,8.0006316 21.75,8.23948874 21.75,8.53434589 C21.75,8.62490767 21.75,8.692829 21.75,8.73810989 C21.75,8.9810457 22.7370946,10.0006316 22.9637848,10.0006316 C23.0198961,10.0006316 23.1040631,10.0006316 23.2162857,10.0006316 C23.5111429,10.0006316 23.75,9.76177446 23.75,9.46691732 L23.75,8.53434589 Z M8.25,8.53434589 C8.25,8.23948874 8.48885714,8.0006316 8.78371429,8.0006316 L9.71628571,8.0006316 C10.0111429,8.0006316 10.25,8.23948874 10.25,8.53434589 C10.25,8.62490767 10.25,8.692829 10.25,8.73810989 C10.25,8.9810457 9.26290538,10.0006316 9.03621521,10.0006316 C8.9801039,10.0006316 8.89593692,10.0006316 8.78371429,10.0006316 C8.48885714,10.0006316 8.25,9.76177446 8.25,9.46691732 L8.25,8.53434589 Z M23.75,22.9669173 C23.75,23.2617745 23.5111429,23.5006316 23.2162857,23.5006316 L22.2837143,23.5006316 C21.9888571,23.5006316 21.75,23.2617745 21.75,22.9669173 C21.75,22.8763555 21.75,22.8084342 21.75,22.7631533 C21.75,22.5202175 22.7370946,21.5006316 22.9637848,21.5006316 C23.1149116,21.5006316 23.1990785,21.5006316 23.2162857,21.5006316 C23.5111429,21.5006316 23.75,21.7394887 23.75,22.0343459 L23.75,22.9669173 Z M8.25,22.9669173 C8.25,23.2617745 8.48885714,23.5006316 8.78371429,23.5006316 L9.71628571,23.5006316 C10.0111429,23.5006316 10.25,23.2617745 10.25,22.9669173 C10.25,22.8763555 10.25,22.8084342 10.25,22.7631533 C10.25,22.5202175 9.26290538,21.5006316 9.03621521,21.5006316 C8.88508844,21.5006316 8.80092146,21.5006316 8.78371429,21.5006316 C8.48885714,21.5006316 8.25,21.7394887 8.25,22.0343459 L8.25,22.9669173 Z M22.8964466,10.8435248 C22.8059369,10.9340345 22.7500755,11.0591924 22.7493684,11.1970782 L22.7493684,11.904185 C22.7500755,12.0420708 22.8059369,12.1672287 22.8964466,12.2577384 C23.0916081,12.4528999 23.4083919,12.4528999 23.6035534,12.2577384 C23.6940631,12.1672287 23.7499245,12.0420708 23.7499245,11.9034779 L23.7499245,11.1963711 C23.7499245,11.0591924 23.6940631,10.9340345 23.6035534,10.8435248 C23.4076848,10.6476562 23.0916081,10.6483633 22.8964466,10.8435248 Z M23.6035534,13.6435248 C23.4083919,13.4483633 23.0916081,13.4483633 22.8964466,13.6435248 C22.8059369,13.7340345 22.7500755,13.8591924 22.7500755,13.9977853 L22.7500755,14.7048921 C22.7500755,14.8420708 22.8059369,14.9672287 22.8964466,15.0577384 C23.0916081,15.2528999 23.4083919,15.2528999 23.6035534,15.0577384 C23.6940631,14.9672287 23.7499245,14.8420708 23.7506316,14.704185 L23.7506316,13.9970782 C23.7499245,13.8591924 23.6940631,13.7340345 23.6035534,13.6435248 M23.6035534,16.4435248 C23.4083919,16.2483633 23.0916081,16.2483633 22.8964466,16.4435248 C22.8059369,16.5340345 22.7500755,16.6591924 22.7493684,16.7970782 L22.7493684,17.504185 C22.7500755,17.6420708 22.8059369,17.7672287 22.8964466,17.8577384 C23.0916081,18.0528999 23.4083919,18.0528999 23.6035534,17.8577384 C23.6940631,17.7672287 23.7499245,17.6420708 23.7499245,17.5034779 L23.7499245,16.7963711 C23.7499245,16.6591924 23.6940631,16.5340345 23.6035534,16.4435248 M22.8964466,19.2435248 C22.8059369,19.3340345 22.7500755,19.4591924 22.7500755,19.5977853 L22.7500755,20.3048921 C22.7500755,20.4420708 22.8059369,20.5672287 22.8964466,20.6577384 C23.0923152,20.853607 23.4083919,20.8528999 23.6035534,20.6577384 C23.6940631,20.5672287 23.7499245,20.4420708 23.7506316,20.304185 L23.7506316,19.5970782 C23.7499245,19.4591924 23.6940631,19.3340345 23.6035534,19.2435248 C23.4083919,19.0483633 23.0916081,19.0483633 22.8964466,19.2435248 M9.10355339,12.2577384 C9.19406306,12.1672287 9.24992449,12.0420708 9.24992449,11.9034779 L9.24992449,11.1963711 C9.24992449,11.0591924 9.19406306,10.9340345 9.10355339,10.8435248 C8.90768481,10.6476562 8.59160808,10.6483633 8.39644661,10.8435248 C8.30593694,10.9340345 8.25007551,11.0591924 8.2493684,11.1970782 L8.2493684,11.904185 C8.25007551,12.0420708 8.30593694,12.1672287 8.39644661,12.2577384 C8.59160808,12.4528999 8.90839192,12.4528999 9.10355339,12.2577384 M8.39644661,15.0577384 C8.59160808,15.2528999 8.90839192,15.2528999 9.10355339,15.0577384 C9.19406306,14.9672287 9.24992449,14.8420708 9.2506316,14.704185 L9.2506316,13.9970782 C9.24992449,13.8591924 9.19406306,13.7340345 9.10355339,13.6435248 C8.90839192,13.4483633 8.59160808,13.4483633 8.39644661,13.6435248 C8.30593694,13.7340345 8.25007551,13.8591924 8.25007551,13.9977853 L8.25007551,14.7048921 C8.25007551,14.8420708 8.30593694,14.9672287 8.39644661,15.0577384 M8.39644661,20.6577384 C8.59231519,20.853607 8.90839192,20.8528999 9.10355339,20.6577384 C9.19406306,20.5672287 9.24992449,20.4420708 9.2506316,20.304185 L9.2506316,19.5970782 C9.24992449,19.4591924 9.19406306,19.3340345 9.10355339,19.2435248 C8.90839192,19.0483633 8.59160808,19.0483633 8.39644661,19.2435248 C8.30593694,19.3340345 8.25007551,19.4591924 8.25007551,19.5977853 L8.25007551,20.3048921 C8.25007551,20.4420708 8.30593694,20.5672287 8.39644661,20.6577384 M8.39644661,17.8577384 C8.59160808,18.0528999 8.90839192,18.0528999 9.10355339,17.8577384 C9.19406306,17.7672287 9.24992449,17.6420708 9.24992449,17.5034779 L9.24992449,16.7963711 C9.24992449,16.6591924 9.19406306,16.5340345 9.10355339,16.4435248 C8.90839192,16.2483633 8.59160808,16.2483633 8.39644661,16.4435248 C8.30593694,16.5340345 8.25007551,16.6591924 8.2493684,16.7970782 L8.2493684,17.504185 C8.25007551,17.6420708 8.30593694,17.7672287 8.39644661,17.8577384 M12.5071068,8.14707821 C12.4165971,8.05656854 12.2914392,8.00070711 12.1535534,8 L11.4464466,8 C11.3085608,8.00070711 11.1834029,8.05656854 11.0928932,8.14707821 C10.8977317,8.34223968 10.8970246,8.65831641 11.0928932,8.85418499 C11.1834029,8.94469466 11.3085608,9.0005561 11.4457395,9.0005561 L12.1528463,9.0005561 C12.2914392,9.0005561 12.4165971,8.94469466 12.5071068,8.85418499 C12.7022683,8.65902352 12.7022683,8.34223968 12.5071068,8.14707821 M15.3071068,8.14707821 C15.2165971,8.05656854 15.0914392,8.00070711 14.9535534,8 L14.2464466,8 C14.1078537,8 13.9834029,8.05656854 13.8928932,8.14707821 C13.6977317,8.34223968 13.6970246,8.65831641 13.8928932,8.85418499 C13.9834029,8.94469466 14.1078537,8.99984899 14.2457395,9.0005561 L14.9528463,9.0005561 C15.0914392,9.0005561 15.2165971,8.94469466 15.3071068,8.85418499 C15.5022683,8.65902352 15.5022683,8.34223968 15.3071068,8.14707821 M18.1071068,8.14707821 C18.0165971,8.05656854 17.8921463,8.00141421 17.7542605,8.00070711 L17.0471537,8.00070711 C16.9085608,8.00070711 16.7834029,8.05656854 16.6928932,8.14707821 C16.4977317,8.34223968 16.4977317,8.65902352 16.6928932,8.85418499 C16.7834029,8.94469466 16.9085608,9.0005561 17.0464466,9.0012632 L17.7535534,9.0012632 C17.8921463,9.0012632 18.0165971,8.94469466 18.1071068,8.85418499 C18.3022683,8.65902352 18.3029754,8.34294679 18.1071068,8.14707821 M20.9071068,8.14707821 C20.8165971,8.05656854 20.6914392,8.00070711 20.5542605,8.00070711 L19.8471537,8.00070711 C19.7085608,8.00070711 19.5834029,8.05656854 19.4928932,8.14707821 C19.2977317,8.34223968 19.2977317,8.65902352 19.4928932,8.85418499 C19.5834029,8.94469466 19.7085608,9.0005561 19.8464466,9.0012632 L20.5535534,9.0012632 C20.6914392,9.0005561 20.8165971,8.94469466 20.9071068,8.85418499 C21.1022683,8.65902352 21.1029754,8.34294679 20.9071068,8.14707821 M12.5071068,22.6470782 C12.4165971,22.5565685 12.2914392,22.5007071 12.1535534,22.5 L11.4464466,22.5 C11.3085608,22.5007071 11.1834029,22.5565685 11.0928932,22.6470782 C10.8977317,22.8422397 10.8970246,23.1583164 11.0928932,23.354185 C11.1834029,23.4446947 11.3085608,23.5005561 11.4457395,23.5005561 L12.1528463,23.5005561 C12.2914392,23.5005561 12.4165971,23.4446947 12.5071068,23.354185 C12.7022683,23.1590235 12.7022683,22.8422397 12.5071068,22.6470782 M15.3071068,22.6470782 C15.2165971,22.5565685 15.0914392,22.5007071 14.9535534,22.5 L14.2464466,22.5 C14.1078537,22.5 13.9834029,22.5565685 13.8928932,22.6470782 C13.6977317,22.8422397 13.6970246,23.1583164 13.8928932,23.354185 C13.9834029,23.4446947 14.1078537,23.499849 14.2457395,23.5005561 L14.9528463,23.5005561 C15.0914392,23.5005561 15.2165971,23.4446947 15.3071068,23.354185 C15.5022683,23.1590235 15.5022683,22.8422397 15.3071068,22.6470782 M18.1071068,22.6470782 C18.0165971,22.5565685 17.8921463,22.5014142 17.7542605,22.5007071 L17.0471537,22.5007071 C16.9085608,22.5007071 16.7834029,22.5565685 16.6928932,22.6470782 C16.4977317,22.8422397 16.4977317,23.1590235 16.6928932,23.354185 C16.7834029,23.4446947 16.9085608,23.5005561 17.0464466,23.5012632 L17.7535534,23.5012632 C17.8921463,23.5012632 18.0165971,23.4446947 18.1071068,23.354185 C18.1976164,23.2636753 18.254185,23.1392245 18.254185,23.0006316 C18.2534779,22.8627458 18.1976164,22.7375879 18.1071068,22.6470782 M20.9071068,22.6470782 C21.1029754,22.8429468 21.1022683,23.1590235 20.9071068,23.354185 C20.8165971,23.4446947 20.6914392,23.5005561 20.5535534,23.5012632 L19.8464466,23.5012632 C19.7085608,23.5005561 19.5834029,23.4446947 19.4928932,23.354185 C19.2977317,23.1590235 19.2977317,22.8422397 19.4928932,22.6470782 C19.5834029,22.5565685 19.7085608,22.5007071 19.8471537,22.5007071 L20.5542605,22.5007071 C20.6914392,22.5007071 20.8165971,22.5565685 20.9071068,22.6470782" id="Fill-107" fill="#FFFFFF"></path>
                <path d="M19.8053579,15.7442844 C19.675691,15.6116979 19.5183444,15.5454543 19.3330747,15.5454543 L19.1109797,15.5454543 L19.1109797,14.1817534 C19.1109797,13.3105628 18.8055048,12.562531 18.1943606,11.9375335 C17.5832649,11.3125112 16.8519155,11 15.9999474,11 C15.1480036,11 14.4165082,11.3125112 13.8054612,11.9375087 C13.1943169,12.562531 12.8888421,13.310538 12.8888421,14.1817534 L12.8888421,15.5454543 L12.6666498,15.5454543 C12.481526,15.5454543 12.3240821,15.6116979 12.1944395,15.7442844 C12.064797,15.8767714 12,16.0377907 12,16.2272924 L12,20.3181217 C12,20.5074493 12.0648213,20.6685183 12.1944395,20.8011297 C12.3240821,20.9335919 12.481526,20.99991 12.6666498,20.99991 L19.3332449,20.99991 C19.5185146,20.99991 19.675837,20.9336665 19.8055282,20.8011297 C19.9350491,20.6685183 19.9999678,20.5074493 19.9999678,20.3181217 L19.9999678,16.2272178 C20.000065,16.0378653 19.9350491,15.8768709 19.8053579,15.7442844 Z M17.7777044,15.5454543 L14.2221903,15.5454543 L14.2221903,14.1817534 C14.2221903,13.6798897 14.3958335,13.2513591 14.7430469,12.8963108 C15.090309,12.5412127 15.5092515,12.363701 16.0000203,12.363701 C16.4908378,12.363701 16.909683,12.5411878 17.2569694,12.8963108 C17.6040856,13.2513342 17.7777044,13.6798897 17.7777044,14.1817534 L17.7777044,15.5454543 Z" id="Shape" fill="#FFFFFF"></path>
            </g>
        </g>
        <g id="0:-icon32/event/test_event" transform="translate(40.000000, 40.000000)">
            <g id="Icon-Color" transform="translate(0.000000, -0.000000)">
                <mask id="mask-5" fill="white">
                    <use xlink:href="#path-4"></use>
                </mask>
                <g id="Mask" fill-rule="nonzero"></g>
                <g id="2-Neutral/01-Black" mask="url(#mask-5)" fill="#000000">
                    <g transform="translate(0.000000, 0.000000)" id="2-Neutral/1-Black">
                        <rect x="0" y="0" width="32" height="32"></rect>
                    </g>
                </g>
            </g>
        </g>
        <g id="0:icon32/project/project-predefined" transform="translate(0.000000, 200.000000)">
            <g id="0:icon/project/project-predefined">
                <rect id="Rectangle-50-Copy" fill="url(#linearGradient-3)" x="0" y="0" width="32" height="32" rx="2"></rect>
                <path d="M23.75,8.53434589 C23.75,8.23948874 23.5111429,8.0006316 23.2162857,8.0006316 L22.2837143,8.0006316 C21.9888571,8.0006316 21.75,8.23948874 21.75,8.53434589 C21.75,8.62490767 21.75,8.692829 21.75,8.73810989 C21.75,8.9810457 22.7370946,10.0006316 22.9637848,10.0006316 C23.0198961,10.0006316 23.1040631,10.0006316 23.2162857,10.0006316 C23.5111429,10.0006316 23.75,9.76177446 23.75,9.46691732 L23.75,8.53434589 Z M8.25,8.53434589 C8.25,8.23948874 8.48885714,8.0006316 8.78371429,8.0006316 L9.71628571,8.0006316 C10.0111429,8.0006316 10.25,8.23948874 10.25,8.53434589 C10.25,8.62490767 10.25,8.692829 10.25,8.73810989 C10.25,8.9810457 9.26290538,10.0006316 9.03621521,10.0006316 C8.9801039,10.0006316 8.89593692,10.0006316 8.78371429,10.0006316 C8.48885714,10.0006316 8.25,9.76177446 8.25,9.46691732 L8.25,8.53434589 Z M23.75,22.9669173 C23.75,23.2617745 23.5111429,23.5006316 23.2162857,23.5006316 L22.2837143,23.5006316 C21.9888571,23.5006316 21.75,23.2617745 21.75,22.9669173 C21.75,22.8763555 21.75,22.8084342 21.75,22.7631533 C21.75,22.5202175 22.7370946,21.5006316 22.9637848,21.5006316 C23.1149116,21.5006316 23.1990785,21.5006316 23.2162857,21.5006316 C23.5111429,21.5006316 23.75,21.7394887 23.75,22.0343459 L23.75,22.9669173 Z M8.25,22.9669173 C8.25,23.2617745 8.48885714,23.5006316 8.78371429,23.5006316 L9.71628571,23.5006316 C10.0111429,23.5006316 10.25,23.2617745 10.25,22.9669173 C10.25,22.8763555 10.25,22.8084342 10.25,22.7631533 C10.25,22.5202175 9.26290538,21.5006316 9.03621521,21.5006316 C8.88508844,21.5006316 8.80092146,21.5006316 8.78371429,21.5006316 C8.48885714,21.5006316 8.25,21.7394887 8.25,22.0343459 L8.25,22.9669173 Z M22.8964466,10.8435248 C22.8059369,10.9340345 22.7500755,11.0591924 22.7493684,11.1970782 L22.7493684,11.904185 C22.7500755,12.0420708 22.8059369,12.1672287 22.8964466,12.2577384 C23.0916081,12.4528999 23.4083919,12.4528999 23.6035534,12.2577384 C23.6940631,12.1672287 23.7499245,12.0420708 23.7499245,11.9034779 L23.7499245,11.1963711 C23.7499245,11.0591924 23.6940631,10.9340345 23.6035534,10.8435248 C23.4076848,10.6476562 23.0916081,10.6483633 22.8964466,10.8435248 Z M23.6035534,13.6435248 C23.4083919,13.4483633 23.0916081,13.4483633 22.8964466,13.6435248 C22.8059369,13.7340345 22.7500755,13.8591924 22.7500755,13.9977853 L22.7500755,14.7048921 C22.7500755,14.8420708 22.8059369,14.9672287 22.8964466,15.0577384 C23.0916081,15.2528999 23.4083919,15.2528999 23.6035534,15.0577384 C23.6940631,14.9672287 23.7499245,14.8420708 23.7506316,14.704185 L23.7506316,13.9970782 C23.7499245,13.8591924 23.6940631,13.7340345 23.6035534,13.6435248 M23.6035534,16.4435248 C23.4083919,16.2483633 23.0916081,16.2483633 22.8964466,16.4435248 C22.8059369,16.5340345 22.7500755,16.6591924 22.7493684,16.7970782 L22.7493684,17.504185 C22.7500755,17.6420708 22.8059369,17.7672287 22.8964466,17.8577384 C23.0916081,18.0528999 23.4083919,18.0528999 23.6035534,17.8577384 C23.6940631,17.7672287 23.7499245,17.6420708 23.7499245,17.5034779 L23.7499245,16.7963711 C23.7499245,16.6591924 23.6940631,16.5340345 23.6035534,16.4435248 M22.8964466,19.2435248 C22.8059369,19.3340345 22.7500755,19.4591924 22.7500755,19.5977853 L22.7500755,20.3048921 C22.7500755,20.4420708 22.8059369,20.5672287 22.8964466,20.6577384 C23.0923152,20.853607 23.4083919,20.8528999 23.6035534,20.6577384 C23.6940631,20.5672287 23.7499245,20.4420708 23.7506316,20.304185 L23.7506316,19.5970782 C23.7499245,19.4591924 23.6940631,19.3340345 23.6035534,19.2435248 C23.4083919,19.0483633 23.0916081,19.0483633 22.8964466,19.2435248 M9.10355339,12.2577384 C9.19406306,12.1672287 9.24992449,12.0420708 9.24992449,11.9034779 L9.24992449,11.1963711 C9.24992449,11.0591924 9.19406306,10.9340345 9.10355339,10.8435248 C8.90768481,10.6476562 8.59160808,10.6483633 8.39644661,10.8435248 C8.30593694,10.9340345 8.25007551,11.0591924 8.2493684,11.1970782 L8.2493684,11.904185 C8.25007551,12.0420708 8.30593694,12.1672287 8.39644661,12.2577384 C8.59160808,12.4528999 8.90839192,12.4528999 9.10355339,12.2577384 M8.39644661,15.0577384 C8.59160808,15.2528999 8.90839192,15.2528999 9.10355339,15.0577384 C9.19406306,14.9672287 9.24992449,14.8420708 9.2506316,14.704185 L9.2506316,13.9970782 C9.24992449,13.8591924 9.19406306,13.7340345 9.10355339,13.6435248 C8.90839192,13.4483633 8.59160808,13.4483633 8.39644661,13.6435248 C8.30593694,13.7340345 8.25007551,13.8591924 8.25007551,13.9977853 L8.25007551,14.7048921 C8.25007551,14.8420708 8.30593694,14.9672287 8.39644661,15.0577384 M8.39644661,20.6577384 C8.59231519,20.853607 8.90839192,20.8528999 9.10355339,20.6577384 C9.19406306,20.5672287 9.24992449,20.4420708 9.2506316,20.304185 L9.2506316,19.5970782 C9.24992449,19.4591924 9.19406306,19.3340345 9.10355339,19.2435248 C8.90839192,19.0483633 8.59160808,19.0483633 8.39644661,19.2435248 C8.30593694,19.3340345 8.25007551,19.4591924 8.25007551,19.5977853 L8.25007551,20.3048921 C8.25007551,20.4420708 8.30593694,20.5672287 8.39644661,20.6577384 M8.39644661,17.8577384 C8.59160808,18.0528999 8.90839192,18.0528999 9.10355339,17.8577384 C9.19406306,17.7672287 9.24992449,17.6420708 9.24992449,17.5034779 L9.24992449,16.7963711 C9.24992449,16.6591924 9.19406306,16.5340345 9.10355339,16.4435248 C8.90839192,16.2483633 8.59160808,16.2483633 8.39644661,16.4435248 C8.30593694,16.5340345 8.25007551,16.6591924 8.2493684,16.7970782 L8.2493684,17.504185 C8.25007551,17.6420708 8.30593694,17.7672287 8.39644661,17.8577384 M12.5071068,8.14707821 C12.4165971,8.05656854 12.2914392,8.00070711 12.1535534,8 L11.4464466,8 C11.3085608,8.00070711 11.1834029,8.05656854 11.0928932,8.14707821 C10.8977317,8.34223968 10.8970246,8.65831641 11.0928932,8.85418499 C11.1834029,8.94469466 11.3085608,9.0005561 11.4457395,9.0005561 L12.1528463,9.0005561 C12.2914392,9.0005561 12.4165971,8.94469466 12.5071068,8.85418499 C12.7022683,8.65902352 12.7022683,8.34223968 12.5071068,8.14707821 M15.3071068,8.14707821 C15.2165971,8.05656854 15.0914392,8.00070711 14.9535534,8 L14.2464466,8 C14.1078537,8 13.9834029,8.05656854 13.8928932,8.14707821 C13.6977317,8.34223968 13.6970246,8.65831641 13.8928932,8.85418499 C13.9834029,8.94469466 14.1078537,8.99984899 14.2457395,9.0005561 L14.9528463,9.0005561 C15.0914392,9.0005561 15.2165971,8.94469466 15.3071068,8.85418499 C15.5022683,8.65902352 15.5022683,8.34223968 15.3071068,8.14707821 M18.1071068,8.14707821 C18.0165971,8.05656854 17.8921463,8.00141421 17.7542605,8.00070711 L17.0471537,8.00070711 C16.9085608,8.00070711 16.7834029,8.05656854 16.6928932,8.14707821 C16.4977317,8.34223968 16.4977317,8.65902352 16.6928932,8.85418499 C16.7834029,8.94469466 16.9085608,9.0005561 17.0464466,9.0012632 L17.7535534,9.0012632 C17.8921463,9.0012632 18.0165971,8.94469466 18.1071068,8.85418499 C18.3022683,8.65902352 18.3029754,8.34294679 18.1071068,8.14707821 M20.9071068,8.14707821 C20.8165971,8.05656854 20.6914392,8.00070711 20.5542605,8.00070711 L19.8471537,8.00070711 C19.7085608,8.00070711 19.5834029,8.05656854 19.4928932,8.14707821 C19.2977317,8.34223968 19.2977317,8.65902352 19.4928932,8.85418499 C19.5834029,8.94469466 19.7085608,9.0005561 19.8464466,9.0012632 L20.5535534,9.0012632 C20.6914392,9.0005561 20.8165971,8.94469466 20.9071068,8.85418499 C21.1022683,8.65902352 21.1029754,8.34294679 20.9071068,8.14707821 M12.5071068,22.6470782 C12.4165971,22.5565685 12.2914392,22.5007071 12.1535534,22.5 L11.4464466,22.5 C11.3085608,22.5007071 11.1834029,22.5565685 11.0928932,22.6470782 C10.8977317,22.8422397 10.8970246,23.1583164 11.0928932,23.354185 C11.1834029,23.4446947 11.3085608,23.5005561 11.4457395,23.5005561 L12.1528463,23.5005561 C12.2914392,23.5005561 12.4165971,23.4446947 12.5071068,23.354185 C12.7022683,23.1590235 12.7022683,22.8422397 12.5071068,22.6470782 M15.3071068,22.6470782 C15.2165971,22.5565685 15.0914392,22.5007071 14.9535534,22.5 L14.2464466,22.5 C14.1078537,22.5 13.9834029,22.5565685 13.8928932,22.6470782 C13.6977317,22.8422397 13.6970246,23.1583164 13.8928932,23.354185 C13.9834029,23.4446947 14.1078537,23.499849 14.2457395,23.5005561 L14.9528463,23.5005561 C15.0914392,23.5005561 15.2165971,23.4446947 15.3071068,23.354185 C15.5022683,23.1590235 15.5022683,22.8422397 15.3071068,22.6470782 M18.1071068,22.6470782 C18.0165971,22.5565685 17.8921463,22.5014142 17.7542605,22.5007071 L17.0471537,22.5007071 C16.9085608,22.5007071 16.7834029,22.5565685 16.6928932,22.6470782 C16.4977317,22.8422397 16.4977317,23.1590235 16.6928932,23.354185 C16.7834029,23.4446947 16.9085608,23.5005561 17.0464466,23.5012632 L17.7535534,23.5012632 C17.8921463,23.5012632 18.0165971,23.4446947 18.1071068,23.354185 C18.1976164,23.2636753 18.254185,23.1392245 18.254185,23.0006316 C18.2534779,22.8627458 18.1976164,22.7375879 18.1071068,22.6470782 M20.9071068,22.6470782 C21.1029754,22.8429468 21.1022683,23.1590235 20.9071068,23.354185 C20.8165971,23.4446947 20.6914392,23.5005561 20.5535534,23.5012632 L19.8464466,23.5012632 C19.7085608,23.5005561 19.5834029,23.4446947 19.4928932,23.354185 C19.2977317,23.1590235 19.2977317,22.8422397 19.4928932,22.6470782 C19.5834029,22.5565685 19.7085608,22.5007071 19.8471537,22.5007071 L20.5542605,22.5007071 C20.6914392,22.5007071 20.8165971,22.5565685 20.9071068,22.6470782" id="Fill-107" fill="#FFFFFF"></path>
                <path d="M11,11.9712 C11,11.4352 11.435,11.0002 11.972,11.0002 L14.278,11.0002 C14.815,11.0002 15.25,11.4352 15.25,11.9712 L15.25,14.2792 C15.25,14.8152 14.815,15.2502 14.278,15.2502 L11.972,15.2502 C11.435,15.2502 11,14.8152 11,14.2792 L11,11.9712 Z M11,17.7212 C11,17.1852 11.435,16.7502 11.972,16.7502 L14.028,16.7502 C14.565,16.7502 15,17.1852 15,17.7212 L15,20.0292 C15,20.5652 14.565,21.0002 14.028,21.0002 L11.972,21.0002 C11.435,21.0002 11,20.5652 11,20.0292 L11,17.7212 Z M16.75,11.9712 C16.75,11.4352 17.185,11.0002 17.722,11.0002 L20.028,11.0002 C20.565,11.0002 21,11.4352 21,11.9712 L21,14.0002 C21,14.5362 20.565,14.9712 20.028,14.9712 L17.722,14.9712 C17.185,14.9712 16.75,14.5362 16.75,14.0002 L16.75,11.9712 Z M16.25,16.7172 C16.25,16.4592 16.459,16.2502 16.717,16.2502 L17.533,16.2502 C17.791,16.2502 18,16.4592 18,16.7172 L18,17.5332 C18,17.7912 17.791,18.0002 17.533,18.0002 L16.717,18.0002 C16.459,18.0002 16.25,17.7912 16.25,17.5332 L16.25,16.7172 Z M16.25,19.7172 C16.25,19.4592 16.459,19.2502 16.717,19.2502 L17.533,19.2502 C17.791,19.2502 18,19.4592 18,19.7172 L18,20.5332 C18,20.7912 17.791,21.0002 17.533,21.0002 L16.717,21.0002 C16.459,21.0002 16.25,20.7912 16.25,20.5332 L16.25,19.7172 Z M19.25,16.7172 C19.25,16.4592 19.459,16.2502 19.717,16.2502 L20.533,16.2502 C20.791,16.2502 21,16.4592 21,16.7172 L21,17.5332 C21,17.7912 20.791,18.0002 20.533,18.0002 L19.717,18.0002 C19.459,18.0002 19.25,17.7912 19.25,17.5332 L19.25,16.7172 Z M19.25,19.7172 C19.25,19.4592 19.459,19.2502 19.717,19.2502 L20.533,19.2502 C20.791,19.2502 21,19.4592 21,19.7172 L21,20.5332 C21,20.7912 20.791,21.0002 20.533,21.0002 L19.717,21.0002 C19.459,21.0002 19.25,20.7912 19.25,20.5332 L19.25,19.7172 Z" id="Fill-292" fill="#FFFFFF"></path>
            </g>
        </g>
        <g id="0:icon32/project/project-template-sealed" transform="translate(0.000000, 160.000000)">
            <g id="0:icon/project/project-template-sealed">
                <g id="Rectangle-50-Copy">
                    <use fill="#AE835D" xlink:href="#path-7"></use>
                    <use fill="url(#linearGradient-6)" xlink:href="#path-7"></use>
                </g>
                <path d="M23.75,8.53434589 C23.75,8.23948874 23.5111429,8.0006316 23.2162857,8.0006316 L22.2837143,8.0006316 C21.9888571,8.0006316 21.75,8.23948874 21.75,8.53434589 C21.75,8.62490767 21.75,8.692829 21.75,8.73810989 C21.75,8.9810457 22.7370946,10.0006316 22.9637848,10.0006316 C23.0198961,10.0006316 23.1040631,10.0006316 23.2162857,10.0006316 C23.5111429,10.0006316 23.75,9.76177446 23.75,9.46691732 L23.75,8.53434589 Z M8.25,8.53434589 C8.25,8.23948874 8.48885714,8.0006316 8.78371429,8.0006316 L9.71628571,8.0006316 C10.0111429,8.0006316 10.25,8.23948874 10.25,8.53434589 C10.25,8.62490767 10.25,8.692829 10.25,8.73810989 C10.25,8.9810457 9.26290538,10.0006316 9.03621521,10.0006316 C8.9801039,10.0006316 8.89593692,10.0006316 8.78371429,10.0006316 C8.48885714,10.0006316 8.25,9.76177446 8.25,9.46691732 L8.25,8.53434589 Z M23.75,22.9669173 C23.75,23.2617745 23.5111429,23.5006316 23.2162857,23.5006316 L22.2837143,23.5006316 C21.9888571,23.5006316 21.75,23.2617745 21.75,22.9669173 C21.75,22.8763555 21.75,22.8084342 21.75,22.7631533 C21.75,22.5202175 22.7370946,21.5006316 22.9637848,21.5006316 C23.1149116,21.5006316 23.1990785,21.5006316 23.2162857,21.5006316 C23.5111429,21.5006316 23.75,21.7394887 23.75,22.0343459 L23.75,22.9669173 Z M8.25,22.9669173 C8.25,23.2617745 8.48885714,23.5006316 8.78371429,23.5006316 L9.71628571,23.5006316 C10.0111429,23.5006316 10.25,23.2617745 10.25,22.9669173 C10.25,22.8763555 10.25,22.8084342 10.25,22.7631533 C10.25,22.5202175 9.26290538,21.5006316 9.03621521,21.5006316 C8.88508844,21.5006316 8.80092146,21.5006316 8.78371429,21.5006316 C8.48885714,21.5006316 8.25,21.7394887 8.25,22.0343459 L8.25,22.9669173 Z M22.8964466,10.8435248 C22.8059369,10.9340345 22.7500755,11.0591924 22.7493684,11.1970782 L22.7493684,11.904185 C22.7500755,12.0420708 22.8059369,12.1672287 22.8964466,12.2577384 C23.0916081,12.4528999 23.4083919,12.4528999 23.6035534,12.2577384 C23.6940631,12.1672287 23.7499245,12.0420708 23.7499245,11.9034779 L23.7499245,11.1963711 C23.7499245,11.0591924 23.6940631,10.9340345 23.6035534,10.8435248 C23.4076848,10.6476562 23.0916081,10.6483633 22.8964466,10.8435248 Z M23.6035534,13.6435248 C23.4083919,13.4483633 23.0916081,13.4483633 22.8964466,13.6435248 C22.8059369,13.7340345 22.7500755,13.8591924 22.7500755,13.9977853 L22.7500755,14.7048921 C22.7500755,14.8420708 22.8059369,14.9672287 22.8964466,15.0577384 C23.0916081,15.2528999 23.4083919,15.2528999 23.6035534,15.0577384 C23.6940631,14.9672287 23.7499245,14.8420708 23.7506316,14.704185 L23.7506316,13.9970782 C23.7499245,13.8591924 23.6940631,13.7340345 23.6035534,13.6435248 M23.6035534,16.4435248 C23.4083919,16.2483633 23.0916081,16.2483633 22.8964466,16.4435248 C22.8059369,16.5340345 22.7500755,16.6591924 22.7493684,16.7970782 L22.7493684,17.504185 C22.7500755,17.6420708 22.8059369,17.7672287 22.8964466,17.8577384 C23.0916081,18.0528999 23.4083919,18.0528999 23.6035534,17.8577384 C23.6940631,17.7672287 23.7499245,17.6420708 23.7499245,17.5034779 L23.7499245,16.7963711 C23.7499245,16.6591924 23.6940631,16.5340345 23.6035534,16.4435248 M22.8964466,19.2435248 C22.8059369,19.3340345 22.7500755,19.4591924 22.7500755,19.5977853 L22.7500755,20.3048921 C22.7500755,20.4420708 22.8059369,20.5672287 22.8964466,20.6577384 C23.0923152,20.853607 23.4083919,20.8528999 23.6035534,20.6577384 C23.6940631,20.5672287 23.7499245,20.4420708 23.7506316,20.304185 L23.7506316,19.5970782 C23.7499245,19.4591924 23.6940631,19.3340345 23.6035534,19.2435248 C23.4083919,19.0483633 23.0916081,19.0483633 22.8964466,19.2435248 M9.10355339,12.2577384 C9.19406306,12.1672287 9.24992449,12.0420708 9.24992449,11.9034779 L9.24992449,11.1963711 C9.24992449,11.0591924 9.19406306,10.9340345 9.10355339,10.8435248 C8.90768481,10.6476562 8.59160808,10.6483633 8.39644661,10.8435248 C8.30593694,10.9340345 8.25007551,11.0591924 8.2493684,11.1970782 L8.2493684,11.904185 C8.25007551,12.0420708 8.30593694,12.1672287 8.39644661,12.2577384 C8.59160808,12.4528999 8.90839192,12.4528999 9.10355339,12.2577384 M8.39644661,15.0577384 C8.59160808,15.2528999 8.90839192,15.2528999 9.10355339,15.0577384 C9.19406306,14.9672287 9.24992449,14.8420708 9.2506316,14.704185 L9.2506316,13.9970782 C9.24992449,13.8591924 9.19406306,13.7340345 9.10355339,13.6435248 C8.90839192,13.4483633 8.59160808,13.4483633 8.39644661,13.6435248 C8.30593694,13.7340345 8.25007551,13.8591924 8.25007551,13.9977853 L8.25007551,14.7048921 C8.25007551,14.8420708 8.30593694,14.9672287 8.39644661,15.0577384 M8.39644661,20.6577384 C8.59231519,20.853607 8.90839192,20.8528999 9.10355339,20.6577384 C9.19406306,20.5672287 9.24992449,20.4420708 9.2506316,20.304185 L9.2506316,19.5970782 C9.24992449,19.4591924 9.19406306,19.3340345 9.10355339,19.2435248 C8.90839192,19.0483633 8.59160808,19.0483633 8.39644661,19.2435248 C8.30593694,19.3340345 8.25007551,19.4591924 8.25007551,19.5977853 L8.25007551,20.3048921 C8.25007551,20.4420708 8.30593694,20.5672287 8.39644661,20.6577384 M8.39644661,17.8577384 C8.59160808,18.0528999 8.90839192,18.0528999 9.10355339,17.8577384 C9.19406306,17.7672287 9.24992449,17.6420708 9.24992449,17.5034779 L9.24992449,16.7963711 C9.24992449,16.6591924 9.19406306,16.5340345 9.10355339,16.4435248 C8.90839192,16.2483633 8.59160808,16.2483633 8.39644661,16.4435248 C8.30593694,16.5340345 8.25007551,16.6591924 8.2493684,16.7970782 L8.2493684,17.504185 C8.25007551,17.6420708 8.30593694,17.7672287 8.39644661,17.8577384 M12.5071068,8.14707821 C12.4165971,8.05656854 12.2914392,8.00070711 12.1535534,8 L11.4464466,8 C11.3085608,8.00070711 11.1834029,8.05656854 11.0928932,8.14707821 C10.8977317,8.34223968 10.8970246,8.65831641 11.0928932,8.85418499 C11.1834029,8.94469466 11.3085608,9.0005561 11.4457395,9.0005561 L12.1528463,9.0005561 C12.2914392,9.0005561 12.4165971,8.94469466 12.5071068,8.85418499 C12.7022683,8.65902352 12.7022683,8.34223968 12.5071068,8.14707821 M15.3071068,8.14707821 C15.2165971,8.05656854 15.0914392,8.00070711 14.9535534,8 L14.2464466,8 C14.1078537,8 13.9834029,8.05656854 13.8928932,8.14707821 C13.6977317,8.34223968 13.6970246,8.65831641 13.8928932,8.85418499 C13.9834029,8.94469466 14.1078537,8.99984899 14.2457395,9.0005561 L14.9528463,9.0005561 C15.0914392,9.0005561 15.2165971,8.94469466 15.3071068,8.85418499 C15.5022683,8.65902352 15.5022683,8.34223968 15.3071068,8.14707821 M18.1071068,8.14707821 C18.0165971,8.05656854 17.8921463,8.00141421 17.7542605,8.00070711 L17.0471537,8.00070711 C16.9085608,8.00070711 16.7834029,8.05656854 16.6928932,8.14707821 C16.4977317,8.34223968 16.4977317,8.65902352 16.6928932,8.85418499 C16.7834029,8.94469466 16.9085608,9.0005561 17.0464466,9.0012632 L17.7535534,9.0012632 C17.8921463,9.0012632 18.0165971,8.94469466 18.1071068,8.85418499 C18.3022683,8.65902352 18.3029754,8.34294679 18.1071068,8.14707821 M20.9071068,8.14707821 C20.8165971,8.05656854 20.6914392,8.00070711 20.5542605,8.00070711 L19.8471537,8.00070711 C19.7085608,8.00070711 19.5834029,8.05656854 19.4928932,8.14707821 C19.2977317,8.34223968 19.2977317,8.65902352 19.4928932,8.85418499 C19.5834029,8.94469466 19.7085608,9.0005561 19.8464466,9.0012632 L20.5535534,9.0012632 C20.6914392,9.0005561 20.8165971,8.94469466 20.9071068,8.85418499 C21.1022683,8.65902352 21.1029754,8.34294679 20.9071068,8.14707821 M12.5071068,22.6470782 C12.4165971,22.5565685 12.2914392,22.5007071 12.1535534,22.5 L11.4464466,22.5 C11.3085608,22.5007071 11.1834029,22.5565685 11.0928932,22.6470782 C10.8977317,22.8422397 10.8970246,23.1583164 11.0928932,23.354185 C11.1834029,23.4446947 11.3085608,23.5005561 11.4457395,23.5005561 L12.1528463,23.5005561 C12.2914392,23.5005561 12.4165971,23.4446947 12.5071068,23.354185 C12.7022683,23.1590235 12.7022683,22.8422397 12.5071068,22.6470782 M15.3071068,22.6470782 C15.2165971,22.5565685 15.0914392,22.5007071 14.9535534,22.5 L14.2464466,22.5 C14.1078537,22.5 13.9834029,22.5565685 13.8928932,22.6470782 C13.6977317,22.8422397 13.6970246,23.1583164 13.8928932,23.354185 C13.9834029,23.4446947 14.1078537,23.499849 14.2457395,23.5005561 L14.9528463,23.5005561 C15.0914392,23.5005561 15.2165971,23.4446947 15.3071068,23.354185 C15.5022683,23.1590235 15.5022683,22.8422397 15.3071068,22.6470782 M18.1071068,22.6470782 C18.0165971,22.5565685 17.8921463,22.5014142 17.7542605,22.5007071 L17.0471537,22.5007071 C16.9085608,22.5007071 16.7834029,22.5565685 16.6928932,22.6470782 C16.4977317,22.8422397 16.4977317,23.1590235 16.6928932,23.354185 C16.7834029,23.4446947 16.9085608,23.5005561 17.0464466,23.5012632 L17.7535534,23.5012632 C17.8921463,23.5012632 18.0165971,23.4446947 18.1071068,23.354185 C18.1976164,23.2636753 18.254185,23.1392245 18.254185,23.0006316 C18.2534779,22.8627458 18.1976164,22.7375879 18.1071068,22.6470782 M20.9071068,22.6470782 C21.1029754,22.8429468 21.1022683,23.1590235 20.9071068,23.354185 C20.8165971,23.4446947 20.6914392,23.5005561 20.5535534,23.5012632 L19.8464466,23.5012632 C19.7085608,23.5005561 19.5834029,23.4446947 19.4928932,23.354185 C19.2977317,23.1590235 19.2977317,22.8422397 19.4928932,22.6470782 C19.5834029,22.5565685 19.7085608,22.5007071 19.8471537,22.5007071 L20.5542605,22.5007071 C20.6914392,22.5007071 20.8165971,22.5565685 20.9071068,22.6470782" id="Fill-107" fill="#FFFFFF"></path>
                <path d="M19.8053579,15.7442844 C19.675691,15.6116979 19.5183444,15.5454543 19.3330747,15.5454543 L19.1109797,15.5454543 L19.1109797,14.1817534 C19.1109797,13.3105628 18.8055048,12.562531 18.1943606,11.9375335 C17.5832649,11.3125112 16.8519155,11 15.9999474,11 C15.1480036,11 14.4165082,11.3125112 13.8054612,11.9375087 C13.1943169,12.562531 12.8888421,13.310538 12.8888421,14.1817534 L12.8888421,15.5454543 L12.6666498,15.5454543 C12.481526,15.5454543 12.3240821,15.6116979 12.1944395,15.7442844 C12.064797,15.8767714 12,16.0377907 12,16.2272924 L12,20.3181217 C12,20.5074493 12.0648213,20.6685183 12.1944395,20.8011297 C12.3240821,20.9335919 12.481526,20.99991 12.6666498,20.99991 L19.3332449,20.99991 C19.5185146,20.99991 19.675837,20.9336665 19.8055282,20.8011297 C19.9350491,20.6685183 19.9999678,20.5074493 19.9999678,20.3181217 L19.9999678,16.2272178 C20.000065,16.0378653 19.9350491,15.8768709 19.8053579,15.7442844 Z M17.7777044,15.5454543 L14.2221903,15.5454543 L14.2221903,14.1817534 C14.2221903,13.6798897 14.3958335,13.2513591 14.7430469,12.8963108 C15.090309,12.5412127 15.5092515,12.363701 16.0000203,12.363701 C16.4908378,12.363701 16.909683,12.5411878 17.2569694,12.8963108 C17.6040856,13.2513342 17.7777044,13.6798897 17.7777044,14.1817534 L17.7777044,15.5454543 Z" id="Shape" fill="#FFFFFF"></path>
            </g>
        </g>
        <g id="0:icon32/project/project-template" transform="translate(0.000000, 120.000000)">
            <g id="0:icon/project/project-template">
                <g id="Rectangle-50-Copy">
                    <use fill="#AE835D" xlink:href="#path-8"></use>
                    <use fill="url(#linearGradient-6)" xlink:href="#path-8"></use>
                </g>
                <path d="M23.75,8.78371429 C23.75,8.48885714 23.5111429,8.25 23.2162857,8.25 L22.2837143,8.25 C21.9888571,8.25 21.75,8.48885714 21.75,8.78371429 C21.75,8.87427606 21.75,8.9421974 21.75,8.98747829 C21.75,9.2304141 22.7370946,10.25 22.9637848,10.25 C23.0198961,10.25 23.1040631,10.25 23.2162857,10.25 C23.5111429,10.25 23.75,10.0111429 23.75,9.71628571 L23.75,8.78371429 Z M8.25,8.78371429 C8.25,8.48885714 8.48885714,8.25 8.78371429,8.25 L9.71628571,8.25 C10.0111429,8.25 10.25,8.48885714 10.25,8.78371429 C10.25,8.87427606 10.25,8.9421974 10.25,8.98747829 C10.25,9.2304141 9.26290538,10.25 9.03621521,10.25 C8.9801039,10.25 8.89593692,10.25 8.78371429,10.25 C8.48885714,10.25 8.25,10.0111429 8.25,9.71628571 L8.25,8.78371429 Z M23.75,23.2162857 C23.75,23.5111429 23.5111429,23.75 23.2162857,23.75 L22.2837143,23.75 C21.9888571,23.75 21.75,23.5111429 21.75,23.2162857 C21.75,23.1257239 21.75,23.0578026 21.75,23.0125217 C21.75,22.7695859 22.7370946,21.75 22.9637848,21.75 C23.1149116,21.75 23.1990785,21.75 23.2162857,21.75 C23.5111429,21.75 23.75,21.9888571 23.75,22.2837143 L23.75,23.2162857 Z M8.25,23.2162857 C8.25,23.5111429 8.48885714,23.75 8.78371429,23.75 L9.71628571,23.75 C10.0111429,23.75 10.25,23.5111429 10.25,23.2162857 C10.25,23.1257239 10.25,23.0578026 10.25,23.0125217 C10.25,22.7695859 9.26290538,21.75 9.03621521,21.75 C8.88508844,21.75 8.80092146,21.75 8.78371429,21.75 C8.48885714,21.75 8.25,21.9888571 8.25,22.2837143 L8.25,23.2162857 Z M22.8964466,11.0928932 C22.8059369,11.1834029 22.7500755,11.3085608 22.7493684,11.4464466 L22.7493684,12.1535534 C22.7500755,12.2914392 22.8059369,12.4165971 22.8964466,12.5071068 C23.0916081,12.7022683 23.4083919,12.7022683 23.6035534,12.5071068 C23.6940631,12.4165971 23.7499245,12.2914392 23.7499245,12.1528463 L23.7499245,11.4457395 C23.7499245,11.3085608 23.6940631,11.1834029 23.6035534,11.0928932 C23.4076848,10.8970246 23.0916081,10.8977317 22.8964466,11.0928932 Z M23.6035534,13.8928932 C23.4083919,13.6977317 23.0916081,13.6977317 22.8964466,13.8928932 C22.8059369,13.9834029 22.7500755,14.1085608 22.7500755,14.2471537 L22.7500755,14.9542605 C22.7500755,15.0914392 22.8059369,15.2165971 22.8964466,15.3071068 C23.0916081,15.5022683 23.4083919,15.5022683 23.6035534,15.3071068 C23.6940631,15.2165971 23.7499245,15.0914392 23.7506316,14.9535534 L23.7506316,14.2464466 C23.7499245,14.1085608 23.6940631,13.9834029 23.6035534,13.8928932 M23.6035534,16.6928932 C23.4083919,16.4977317 23.0916081,16.4977317 22.8964466,16.6928932 C22.8059369,16.7834029 22.7500755,16.9085608 22.7493684,17.0464466 L22.7493684,17.7535534 C22.7500755,17.8914392 22.8059369,18.0165971 22.8964466,18.1071068 C23.0916081,18.3022683 23.4083919,18.3022683 23.6035534,18.1071068 C23.6940631,18.0165971 23.7499245,17.8914392 23.7499245,17.7528463 L23.7499245,17.0457395 C23.7499245,16.9085608 23.6940631,16.7834029 23.6035534,16.6928932 M22.8964466,19.4928932 C22.8059369,19.5834029 22.7500755,19.7085608 22.7500755,19.8471537 L22.7500755,20.5542605 C22.7500755,20.6914392 22.8059369,20.8165971 22.8964466,20.9071068 C23.0923152,21.1029754 23.4083919,21.1022683 23.6035534,20.9071068 C23.6940631,20.8165971 23.7499245,20.6914392 23.7506316,20.5535534 L23.7506316,19.8464466 C23.7499245,19.7085608 23.6940631,19.5834029 23.6035534,19.4928932 C23.4083919,19.2977317 23.0916081,19.2977317 22.8964466,19.4928932 M9.10355339,12.5071068 C9.19406306,12.4165971 9.24992449,12.2914392 9.24992449,12.1528463 L9.24992449,11.4457395 C9.24992449,11.3085608 9.19406306,11.1834029 9.10355339,11.0928932 C8.90768481,10.8970246 8.59160808,10.8977317 8.39644661,11.0928932 C8.30593694,11.1834029 8.25007551,11.3085608 8.2493684,11.4464466 L8.2493684,12.1535534 C8.25007551,12.2914392 8.30593694,12.4165971 8.39644661,12.5071068 C8.59160808,12.7022683 8.90839192,12.7022683 9.10355339,12.5071068 M8.39644661,15.3071068 C8.59160808,15.5022683 8.90839192,15.5022683 9.10355339,15.3071068 C9.19406306,15.2165971 9.24992449,15.0914392 9.2506316,14.9535534 L9.2506316,14.2464466 C9.24992449,14.1085608 9.19406306,13.9834029 9.10355339,13.8928932 C8.90839192,13.6977317 8.59160808,13.6977317 8.39644661,13.8928932 C8.30593694,13.9834029 8.25007551,14.1085608 8.25007551,14.2471537 L8.25007551,14.9542605 C8.25007551,15.0914392 8.30593694,15.2165971 8.39644661,15.3071068 M8.39644661,20.9071068 C8.59231519,21.1029754 8.90839192,21.1022683 9.10355339,20.9071068 C9.19406306,20.8165971 9.24992449,20.6914392 9.2506316,20.5535534 L9.2506316,19.8464466 C9.24992449,19.7085608 9.19406306,19.5834029 9.10355339,19.4928932 C8.90839192,19.2977317 8.59160808,19.2977317 8.39644661,19.4928932 C8.30593694,19.5834029 8.25007551,19.7085608 8.25007551,19.8471537 L8.25007551,20.5542605 C8.25007551,20.6914392 8.30593694,20.8165971 8.39644661,20.9071068 M8.39644661,18.1071068 C8.59160808,18.3022683 8.90839192,18.3022683 9.10355339,18.1071068 C9.19406306,18.0165971 9.24992449,17.8914392 9.24992449,17.7528463 L9.24992449,17.0457395 C9.24992449,16.9085608 9.19406306,16.7834029 9.10355339,16.6928932 C8.90839192,16.4977317 8.59160808,16.4977317 8.39644661,16.6928932 C8.30593694,16.7834029 8.25007551,16.9085608 8.2493684,17.0464466 L8.2493684,17.7535534 C8.25007551,17.8914392 8.30593694,18.0165971 8.39644661,18.1071068 M12.5071068,8.39644661 C12.4165971,8.30593694 12.2914392,8.25007551 12.1535534,8.2493684 L11.4464466,8.2493684 C11.3085608,8.25007551 11.1834029,8.30593694 11.0928932,8.39644661 C10.8977317,8.59160808 10.8970246,8.90768481 11.0928932,9.10355339 C11.1834029,9.19406306 11.3085608,9.24992449 11.4457395,9.24992449 L12.1528463,9.24992449 C12.2914392,9.24992449 12.4165971,9.19406306 12.5071068,9.10355339 C12.7022683,8.90839192 12.7022683,8.59160808 12.5071068,8.39644661 M15.3071068,8.39644661 C15.2165971,8.30593694 15.0914392,8.25007551 14.9535534,8.2493684 L14.2464466,8.2493684 C14.1078537,8.2493684 13.9834029,8.30593694 13.8928932,8.39644661 C13.6977317,8.59160808 13.6970246,8.90768481 13.8928932,9.10355339 C13.9834029,9.19406306 14.1078537,9.24921739 14.2457395,9.24992449 L14.9528463,9.24992449 C15.0914392,9.24992449 15.2165971,9.19406306 15.3071068,9.10355339 C15.5022683,8.90839192 15.5022683,8.59160808 15.3071068,8.39644661 M18.1071068,8.39644661 C18.0165971,8.30593694 17.8921463,8.25078261 17.7542605,8.25007551 L17.0471537,8.25007551 C16.9085608,8.25007551 16.7834029,8.30593694 16.6928932,8.39644661 C16.4977317,8.59160808 16.4977317,8.90839192 16.6928932,9.10355339 C16.7834029,9.19406306 16.9085608,9.24992449 17.0464466,9.2506316 L17.7535534,9.2506316 C17.8921463,9.2506316 18.0165971,9.19406306 18.1071068,9.10355339 C18.3022683,8.90839192 18.3029754,8.59231519 18.1071068,8.39644661 M20.9071068,8.39644661 C20.8165971,8.30593694 20.6914392,8.25007551 20.5542605,8.25007551 L19.8471537,8.25007551 C19.7085608,8.25007551 19.5834029,8.30593694 19.4928932,8.39644661 C19.2977317,8.59160808 19.2977317,8.90839192 19.4928932,9.10355339 C19.5834029,9.19406306 19.7085608,9.24992449 19.8464466,9.2506316 L20.5535534,9.2506316 C20.6914392,9.24992449 20.8165971,9.19406306 20.9071068,9.10355339 C21.1022683,8.90839192 21.1029754,8.59231519 20.9071068,8.39644661 M12.5071068,22.8964466 C12.4165971,22.8059369 12.2914392,22.7500755 12.1535534,22.7493684 L11.4464466,22.7493684 C11.3085608,22.7500755 11.1834029,22.8059369 11.0928932,22.8964466 C10.8977317,23.0916081 10.8970246,23.4076848 11.0928932,23.6035534 C11.1834029,23.6940631 11.3085608,23.7499245 11.4457395,23.7499245 L12.1528463,23.7499245 C12.2914392,23.7499245 12.4165971,23.6940631 12.5071068,23.6035534 C12.7022683,23.4083919 12.7022683,23.0916081 12.5071068,22.8964466 M15.3071068,22.8964466 C15.2165971,22.8059369 15.0914392,22.7500755 14.9535534,22.7493684 L14.2464466,22.7493684 C14.1078537,22.7493684 13.9834029,22.8059369 13.8928932,22.8964466 C13.6977317,23.0916081 13.6970246,23.4076848 13.8928932,23.6035534 C13.9834029,23.6940631 14.1078537,23.7492174 14.2457395,23.7499245 L14.9528463,23.7499245 C15.0914392,23.7499245 15.2165971,23.6940631 15.3071068,23.6035534 C15.5022683,23.4083919 15.5022683,23.0916081 15.3071068,22.8964466 M18.1071068,22.8964466 C18.0165971,22.8059369 17.8921463,22.7507826 17.7542605,22.7500755 L17.0471537,22.7500755 C16.9085608,22.7500755 16.7834029,22.8059369 16.6928932,22.8964466 C16.4977317,23.0916081 16.4977317,23.4083919 16.6928932,23.6035534 C16.7834029,23.6940631 16.9085608,23.7499245 17.0464466,23.7506316 L17.7535534,23.7506316 C17.8921463,23.7506316 18.0165971,23.6940631 18.1071068,23.6035534 C18.1976164,23.5130437 18.254185,23.3885929 18.254185,23.25 C18.2534779,23.1121142 18.1976164,22.9869563 18.1071068,22.8964466 M20.9071068,22.8964466 C21.1029754,23.0923152 21.1022683,23.4083919 20.9071068,23.6035534 C20.8165971,23.6940631 20.6914392,23.7499245 20.5535534,23.7506316 L19.8464466,23.7506316 C19.7085608,23.7499245 19.5834029,23.6940631 19.4928932,23.6035534 C19.2977317,23.4083919 19.2977317,23.0916081 19.4928932,22.8964466 C19.5834029,22.8059369 19.7085608,22.7500755 19.8471537,22.7500755 L20.5542605,22.7500755 C20.6914392,22.7500755 20.8165971,22.8059369 20.9071068,22.8964466" id="Fill-107" fill="#FFFFFF"></path>
                <path d="M11,11.9712 C11,11.4352 11.435,11.0002 11.972,11.0002 L14.278,11.0002 C14.815,11.0002 15.25,11.4352 15.25,11.9712 L15.25,14.2792 C15.25,14.8152 14.815,15.2502 14.278,15.2502 L11.972,15.2502 C11.435,15.2502 11,14.8152 11,14.2792 L11,11.9712 Z M11,17.7212 C11,17.1852 11.435,16.7502 11.972,16.7502 L14.028,16.7502 C14.565,16.7502 15,17.1852 15,17.7212 L15,20.0292 C15,20.5652 14.565,21.0002 14.028,21.0002 L11.972,21.0002 C11.435,21.0002 11,20.5652 11,20.0292 L11,17.7212 Z M16.75,11.9712 C16.75,11.4352 17.185,11.0002 17.722,11.0002 L20.028,11.0002 C20.565,11.0002 21,11.4352 21,11.9712 L21,14.0002 C21,14.5362 20.565,14.9712 20.028,14.9712 L17.722,14.9712 C17.185,14.9712 16.75,14.5362 16.75,14.0002 L16.75,11.9712 Z M16.25,16.7172 C16.25,16.4592 16.459,16.2502 16.717,16.2502 L17.533,16.2502 C17.791,16.2502 18,16.4592 18,16.7172 L18,17.5332 C18,17.7912 17.791,18.0002 17.533,18.0002 L16.717,18.0002 C16.459,18.0002 16.25,17.7912 16.25,17.5332 L16.25,16.7172 Z M16.25,19.7172 C16.25,19.4592 16.459,19.2502 16.717,19.2502 L17.533,19.2502 C17.791,19.2502 18,19.4592 18,19.7172 L18,20.5332 C18,20.7912 17.791,21.0002 17.533,21.0002 L16.717,21.0002 C16.459,21.0002 16.25,20.7912 16.25,20.5332 L16.25,19.7172 Z M19.25,16.7172 C19.25,16.4592 19.459,16.2502 19.717,16.2502 L20.533,16.2502 C20.791,16.2502 21,16.4592 21,16.7172 L21,17.5332 C21,17.7912 20.791,18.0002 20.533,18.0002 L19.717,18.0002 C19.459,18.0002 19.25,17.7912 19.25,17.5332 L19.25,16.7172 Z M19.25,19.7172 C19.25,19.4592 19.459,19.2502 19.717,19.2502 L20.533,19.2502 C20.791,19.2502 21,19.4592 21,19.7172 L21,20.5332 C21,20.7912 20.791,21.0002 20.533,21.0002 L19.717,21.0002 C19.459,21.0002 19.25,20.7912 19.25,20.5332 L19.25,19.7172 Z" id="Fill-292" fill="#FFFFFF"></path>
            </g>
        </g>
        <g id="0:icon32/project/project-sealed" transform="translate(0.000000, 40.000000)">
            <g id="ikon-project-copy">
                <rect id="Rectangle-50-Copy" fill="url(#linearGradient-9)" x="0" y="0" width="32" height="32" rx="2"></rect>
                <path d="M23.0497008,15.5397463 C22.8162995,15.3010896 22.5330743,15.1818507 22.1995875,15.1818507 L21.799815,15.1818507 L21.799815,12.7271791 C21.799815,11.1590299 21.249958,9.81256716 20.1498939,8.68756716 C19.0499173,7.56252239 17.733483,7 16.1999342,7 C14.6664292,7 13.3497322,7.56252239 12.2498432,8.68752239 C11.1497791,9.81256716 10.5999221,11.1589851 10.5999221,12.7271791 L10.5999221,15.1818507 L10.1999744,15.1818507 C9.86675037,15.1818507 9.5833501,15.3010896 9.34999255,15.5397463 C9.11663499,15.7782239 9,16.0680597 9,16.4091642 L9,23.7726866 C9,24.1134776 9.11667878,24.403403 9.34999255,24.6421045 C9.5833501,24.8805373 9.86675037,24.9999104 10.1999744,24.9999104 L22.199894,24.9999104 C22.5333808,24.9999104 22.8165621,24.8806716 23.0500073,24.6421045 C23.2831459,24.403403 23.4,24.1134776 23.4,23.7726866 L23.4,16.4090299 C23.4001749,16.068194 23.2831459,15.778403 23.0497008,15.5397463 Z M19.3999099,15.1818507 L12.9999586,15.1818507 L12.9999586,12.7271791 C12.9999586,11.8238209 13.3125176,11.0524627 13.9375043,10.4133731 C14.5625786,9.77419403 15.3166781,9.45467164 16.2000656,9.45467164 C17.0835406,9.45467164 17.837465,9.77414925 18.4625831,10.4133731 C19.0873946,11.0524179 19.3999099,11.8238209 19.3999099,12.7271791 L19.3999099,15.1818507 Z" id="Shape" fill="#FFFFFF"></path>
            </g>
        </g>
        <g id="0:icon32/project/project-test" transform="translate(0.000000, 80.000000)">
            <g id="ikon-project-copy">
                <rect id="Rectangle-50-Copy" fill="url(#linearGradient-9)" x="0" y="0" width="32" height="32" rx="2"></rect>
                <path d="M12.1210938,7 C9.29730225,7 7,9.29730225 7,12.1210938 C7,14.6928024 8.90562437,16.8276062 11.3789062,17.1882629 L11.3789062,25.2578125 C11.3789062,25.6677551 11.7111511,26 12.1210938,26 C12.5310364,26 12.8632812,25.6677551 12.8632812,25.2578125 L12.8632812,17.1882629 C15.3365631,16.8276062 17.2421875,14.6928024 17.2421875,12.1210938 C17.2421875,9.29730225 14.9448853,7 12.1210938,7 Z M12.1210938,15.7578125 C10.1158829,15.7578125 8.484375,14.1264496 8.484375,12.1210938 C8.484375,10.1157379 10.1158829,8.484375 12.1210938,8.484375 C14.1263046,8.484375 15.7578125,10.1157379 15.7578125,12.1210938 C15.7578125,14.1264496 14.1263046,15.7578125 12.1210938,15.7578125 Z M18.3,19.1025733 C18.3,18.7145528 18.6198051,18.4 19.0025733,18.4 L19.8974267,18.4 C20.2854472,18.4 20.6,18.7198051 20.6,19.1025733 L20.6,19.9974267 C20.6,20.3854472 20.2801949,20.7 19.8974267,20.7 L19.0025733,20.7 C18.6145528,20.7 18.3,20.3801949 18.3,19.9974267 L18.3,19.1025733 Z M18.3,21.7025733 C18.3,21.3145528 18.6198051,21 19.0025733,21 L19.8974267,21 C20.2854472,21 20.6,21.3198051 20.6,21.7025733 L20.6,22.5974267 C20.6,22.9854472 20.2801949,23.3 19.8974267,23.3 L19.0025733,23.3 C18.6145528,23.3 18.3,22.9801949 18.3,22.5974267 L18.3,21.7025733 Z M21.25,19.1025733 C21.25,18.7145528 21.5698051,18.4 21.9525733,18.4 L22.8474267,18.4 C23.2354472,18.4 23.55,18.7198051 23.55,19.1025733 L23.55,19.9974267 C23.55,20.3854472 23.2301949,20.7 22.8474267,20.7 L21.9525733,20.7 C21.5645528,20.7 21.25,20.3801949 21.25,19.9974267 L21.25,19.1025733 Z M21.25,21.7025733 C21.25,21.3145528 21.5698051,21 21.9525733,21 L22.8474267,21 C23.2354472,21 23.55,21.3198051 23.55,21.7025733 L23.55,22.5974267 C23.55,22.9854472 23.2301949,23.3 22.8474267,23.3 L21.9525733,23.3 C21.5645528,23.3 21.25,22.9801949 21.25,22.5974267 L21.25,21.7025733 Z M21.6210938,15.8117371 L21.6210938,7.77929688 C21.6210938,7.36935425 21.2888489,7.03710938 20.8789062,7.03710938 C20.4689636,7.03710938 20.1367188,7.36935425 20.1367188,7.77929688 L20.1367188,15.8117371 C17.6634369,16.1723938 15.7578125,18.3071976 15.7578125,20.8789062 C15.7578125,23.7026978 18.0551147,26 20.8789062,26 C23.7026978,26 26,23.7026978 26,20.8789062 C26,18.3071976 24.0943756,16.1723938 21.6210938,15.8117371 Z M20.8789062,24.515625 C18.8736954,24.515625 17.2421875,22.8842621 17.2421875,20.8789062 C17.2421875,18.8735504 18.8736954,17.2421875 20.8789062,17.2421875 C22.8841171,17.2421875 24.515625,18.8735504 24.515625,20.8789062 C24.515625,22.8842621 22.8841171,24.515625 20.8789062,24.515625 Z M9.6,10.5998075 C9.6,10.0476291 10.0437166,9.6 10.5998075,9.6 L13.6001925,9.6 C14.1523709,9.6 14.6,10.0437166 14.6,10.5998075 L14.6,13.6001925 C14.6,14.1523709 14.1562834,14.6 13.6001925,14.6 L10.5998075,14.6 C10.0476291,14.6 9.6,14.1562834 9.6,13.6001925 L9.6,10.5998075 Z" id="Shape" fill="#FFFFFF" fill-rule="nonzero"></path>
            </g>
        </g>
        <g id="0:icon32/project/project">
            <g id="0:icon/events/project">
                <rect id="Rectangle-50-Copy" fill="url(#linearGradient-9)" x="0" y="0" width="32" height="32" rx="2"></rect>
                <path d="M8,10.0059191 C8,8.89808055 8.88655484,8 10.0059191,8 L12.9940809,8 C14.1019194,8 15,8.88655484 15,10.0059191 L15,12.9940809 C15,14.1019194 14.1134452,15 12.9940809,15 L10.0059191,15 C8.89808055,15 8,14.1134452 8,12.9940809 L8,10.0059191 Z M8,19.0059191 C8,17.8980806 8.88655484,17 10.0059191,17 L12.9940809,17 C14.1019194,17 15,17.8865548 15,19.0059191 L15,21.9940809 C15,23.1019194 14.1134452,24 12.9940809,24 L10.0059191,24 C8.89808055,24 8,23.1134452 8,21.9940809 L8,19.0059191 Z M17,10.0059191 C17,8.89808055 17.8865548,8 19.0059191,8 L21.9940809,8 C23.1019194,8 24,8.88655484 24,10.0059191 L24,12.9940809 C24,14.1019194 23.1134452,15 21.9940809,15 L19.0059191,15 C17.8980806,15 17,14.1134452 17,12.9940809 L17,10.0059191 Z M17,17.9989566 C17,17.4472481 17.4426603,17 17.9989566,17 L19.0010434,17 C19.5527519,17 20,17.4426603 20,17.9989566 L20,19.0010434 C20,19.5527519 19.5573397,20 19.0010434,20 L17.9989566,20 C17.4472481,20 17,19.5573397 17,19.0010434 L17,17.9989566 Z M17,21.9989566 C17,21.4472481 17.4426603,21 17.9989566,21 L19.0010434,21 C19.5527519,21 20,21.4426603 20,21.9989566 L20,23.0010434 C20,23.5527519 19.5573397,24 19.0010434,24 L17.9989566,24 C17.4472481,24 17,23.5573397 17,23.0010434 L17,21.9989566 Z M21,17.9989566 C21,17.4472481 21.4426603,17 21.9989566,17 L23.0010434,17 C23.5527519,17 24,17.4426603 24,17.9989566 L24,19.0010434 C24,19.5527519 23.5573397,20 23.0010434,20 L21.9989566,20 C21.4472481,20 21,19.5573397 21,19.0010434 L21,17.9989566 Z M21,21.9989566 C21,21.4472481 21.4426603,21 21.9989566,21 L23.0010434,21 C23.5527519,21 24,21.4426603 24,21.9989566 L24,23.0010434 C24,23.5527519 23.5573397,24 23.0010434,24 L21.9989566,24 C21.4472481,24 21,23.5573397 21,23.0010434 L21,21.9989566 Z" id="Combined-Shape-Copy-11" fill="#FFFFFF"></path>
            </g>
        </g>
    </g>
</svg>