<?xml version="1.0" encoding="UTF-8"?>
<svg width="1280px" height="1024px" viewBox="0 0 1280 1024" version="1.1" xmlns="http://www.w3.org/2000/svg" xmlns:xlink="http://www.w3.org/1999/xlink">
    <!-- Generator: Sketch 55.2 (78181) - https://sketchapp.com -->
    <title>sprite_icons_cso_32x32</title>
    <desc>Created with Sketch.</desc>
    <defs>
        <path d="M18.6622846,30.9719975 L18.121407,31.3786248 C17.9285724,31.5224984 17.7181235,31.6460822 17.4976225,31.742459 C16.516204,32.1714052 15.3579974,32.0585198 14.4770079,31.4487171 L13.5168925,30.7841318 C12.8546718,30.3036176 11.8213327,29.6462512 10.4168754,28.8120325 L6.19406466,28.2804545 C5.07274655,27.9538799 4.21545787,27.0227595 4.00187347,25.8485296 L3.22776834,21.5872888 L0.625653725,18.1246388 C-0.182019929,17.0506592 -0.210055188,15.5861921 0.555196695,14.480671 L3.02073165,10.9192462 L3.62828521,6.63079854 C3.77943583,5.56991523 4.48262281,4.64340616 5.46487128,4.21501331 C5.68574116,4.11789863 5.91804647,4.04743746 6.15533173,4.0039987 L10.4168754,3.22938695 L13.8791376,0.627672762 C14.0724333,0.482231314 14.2821444,0.359938757 14.5023687,0.263838573 C15.4990037,-0.172485773 16.6281606,-0.0627360432 17.5228911,0.556750458 L21.083,3.02178473 L25.3713801,3.63038848 C26.702686,3.81908424 27.757697,4.83496094 27.9983945,6.1574913 L28.7725918,10.4189165 L31.3747064,13.880921 C32.1821034,14.955085 32.2096776,16.4196444 31.4453479,17.5255343 L28.9797207,21.0867747 L28.3721672,25.3748535 C28.2211088,26.4364746 27.5182907,27.3620614 26.5356733,27.7914687 C26.3152645,27.888399 26.0824059,27.9585835 25.8458584,28.00193 L25.6611393,28.0352238 L21.7316334,28.8120325 C20.3719978,29.6796017 19.3488816,30.39959 18.6622846,30.9719975 Z M17.6953125,11 C16.2091064,11 15,12.2091064 15,13.6953125 C15,15.0488434 16.0029602,16.1724243 17.3046875,16.3622437 L17.3046875,20.609375 C17.3046875,20.8251343 17.4795532,21 17.6953125,21 C17.9110718,21 18.0859375,20.8251343 18.0859375,20.609375 L18.0859375,16.3622437 C19.3876648,16.1724243 20.390625,15.0488434 20.390625,13.6953125 C20.390625,12.2091064 19.1815186,11 17.6953125,11 Z M17.6953125,15.609375 C16.6399384,15.609375 15.78125,14.7507629 15.78125,13.6953125 C15.78125,12.6398621 16.6399384,11.78125 17.6953125,11.78125 C18.7506866,11.78125 19.609375,12.6398621 19.609375,13.6953125 C19.609375,14.7507629 18.7506866,15.609375 17.6953125,15.609375 Z M20.9473684,17.6052632 C20.9473684,17.9297646 21.218354,18.2105263 21.5526316,18.2105263 C21.877133,18.2105263 22.1578947,17.9395408 22.1578947,17.6052632 C22.1578947,17.2807617 21.8869092,17 21.5526316,17 C21.2281301,17 20.9473684,17.2709855 20.9473684,17.6052632 Z M20.9473684,18.9736842 C20.9473684,19.2981856 21.218354,19.5789474 21.5526316,19.5789474 C21.877133,19.5789474 22.1578947,19.3079618 22.1578947,18.9736842 C22.1578947,18.6491828 21.8869092,18.3684211 21.5526316,18.3684211 C21.2281301,18.3684211 20.9473684,18.6394066 20.9473684,18.9736842 Z M22.5,17.6052632 C22.5,17.9297646 22.7709855,18.2105263 23.1052632,18.2105263 C23.4297646,18.2105263 23.7105263,17.9395408 23.7105263,17.6052632 C23.7105263,17.2807617 23.4395408,17 23.1052632,17 C22.7807617,17 22.5,17.2709855 22.5,17.6052632 Z M22.5,18.9736842 C22.5,19.2981856 22.7709855,19.5789474 23.1052632,19.5789474 C23.4297646,19.5789474 23.7105263,19.3079618 23.7105263,18.9736842 C23.7105263,18.6491828 23.4395408,18.3684211 23.1052632,18.3684211 C22.7807617,18.3684211 22.5,18.6394066 22.5,18.9736842 Z M22.6953125,15.6377563 L22.6953125,11.4101563 C22.6953125,11.194397 22.5204468,11.0195313 22.3046875,11.0195313 C22.0889282,11.0195313 21.9140625,11.194397 21.9140625,11.4101563 L21.9140625,15.6377563 C20.6123352,15.8275757 19.609375,16.9511566 19.609375,18.3046875 C19.609375,19.7908936 20.8184814,21 22.3046875,21 C23.7908936,21 25,19.7908936 25,18.3046875 C25,16.9511566 23.9970398,15.8275757 22.6953125,15.6377563 Z M22.3046875,20.21875 C21.2493134,20.21875 20.390625,19.3601379 20.390625,18.3046875 C20.390625,17.2492371 21.2493134,16.390625 22.3046875,16.390625 C23.3600616,16.390625 24.21875,17.2492371 24.21875,18.3046875 C24.21875,19.3601379 23.3600616,20.21875 22.3046875,20.21875 Z M16.3684211,13.378332 L16.3684211,13.990089 C16.3684211,14.5535885 16.8205736,15 17.378332,15 L17.990089,15 C18.5535885,15 19,14.5478475 19,13.990089 L19,13.378332 C19,12.8148325 18.5478475,12.3684211 17.990089,12.3684211 L17.378332,12.3684211 C16.8148325,12.3684211 16.3684211,12.8205736 16.3684211,13.378332 Z M14.8053657,15.7442891 C14.6756987,15.6117025 14.5183519,15.5454589 14.333082,15.5454589 L14.1109868,15.5454589 L14.1109868,14.1817565 C14.1109868,13.3105652 13.8055117,12.5625326 13.1943668,11.9375345 C12.5832705,11.3125115 11.8519203,11 10.9999514,11 C10.1480067,11 9.4165106,11.3125115 8.805463,11.9375096 C8.1943181,12.5625326 7.88884295,13.3105403 7.88884295,14.1817565 L7.88884295,15.5454589 L7.66665045,15.5454589 C7.48152653,15.5454589 7.32408241,15.6117025 7.19443972,15.7442891 C7.06479702,15.8767763 7,16.0377957 7,16.2272976 L7,20.318131 C7,20.5074588 7.06482135,20.668528 7.19443972,20.8011395 C7.32408241,20.9336018 7.48152653,20.99992 7.66665045,20.99992 L14.3332523,20.99992 C14.5185221,20.99992 14.6758446,20.9336764 14.805536,20.8011395 C14.9350571,20.668528 14.9999758,20.5074588 14.9999758,20.318131 L14.9999758,16.227223 C15.000073,16.0378703 14.9350571,15.8768758 14.8053657,15.7442891 Z M12.7777102,15.5454589 L9.2221925,15.5454589 L9.2221925,14.1817565 C9.2221925,13.6798924 9.39583587,13.2513613 9.74304965,12.8963127 C10.0903121,12.5412142 10.509255,12.3637023 11.0000243,12.3637023 C11.4908423,12.3637023 11.9096879,12.5411894 12.2569747,12.8963127 C12.6040912,13.2513365 12.7777102,13.6798924 12.7777102,14.1817565 L12.7777102,15.5454589 Z M28.047308,15.9994246 C28.047308,9.34575729 22.6529263,3.95137767 15.9998627,3.95137767 C9.34626741,3.95137767 3.9522048,9.34565094 3.9522048,15.9994246 C3.9522048,22.6534109 9.34626741,28.0480033 15.9998627,28.0480033 C22.6529263,28.0480033 28.047308,22.6535173 28.047308,15.9994246 Z M26.88,16.0807994 C26.88,22.0461472 22.0445034,26.881928 16.0801646,26.881928 C10.1157161,26.881928 5.28,22.0461472 5.28,16.0807994 C5.28,10.1157808 10.1151673,5.28 16.0797256,5.28 C22.0441742,5.28 26.88,10.1157808 26.88,16.0807994 Z" id="path-1"></path>
        <path d="M18.6622846,30.9719975 L18.121407,31.3786248 C17.9285724,31.5224984 17.7181235,31.6460822 17.4976225,31.742459 C16.516204,32.1714052 15.3579974,32.0585198 14.4770079,31.4487171 L13.5168925,30.7841318 C12.8546718,30.3036176 11.8213327,29.6462512 10.4168754,28.8120325 L6.19406466,28.2804545 C5.07274655,27.9538799 4.21545787,27.0227595 4.00187347,25.8485296 L3.22776834,21.5872888 L0.625653725,18.1246388 C-0.182019929,17.0506592 -0.210055188,15.5861921 0.555196695,14.480671 L3.02073165,10.9192462 L3.62828521,6.63079854 C3.77943583,5.56991523 4.48262281,4.64340616 5.46487128,4.21501331 C5.68574116,4.11789863 5.91804647,4.04743746 6.15533173,4.0039987 L10.4168754,3.22938695 L13.8791376,0.627672762 C14.0724333,0.482231314 14.2821444,0.359938757 14.5023687,0.263838573 C15.4990037,-0.172485773 16.6281606,-0.0627360432 17.5228911,0.556750458 L21.083,3.02178473 L25.3713801,3.63038848 C26.702686,3.81908424 27.757697,4.83496094 27.9983945,6.1574913 L28.7725918,10.4189165 L31.3747064,13.880921 C32.1821034,14.955085 32.2096776,16.4196444 31.4453479,17.5255343 L28.9797207,21.0867747 L28.3721672,25.3748535 C28.2211088,26.4364746 27.5182907,27.3620614 26.5356733,27.7914687 C26.3152645,27.888399 26.0824059,27.9585835 25.8458584,28.00193 L25.6611393,28.0352238 L21.7316334,28.8120325 C20.3719978,29.6796017 19.3488816,30.39959 18.6622846,30.9719975 Z M12.3125,8 C9.93457031,8 8,9.93457031 8,12.3125 C8,14.4781494 9.60473631,16.2758789 11.6875,16.5795898 L11.6875,23.375 C11.6875,23.7202148 11.9672852,24 12.3125,24 C12.6577148,24 12.9375,23.7202148 12.9375,23.375 L12.9375,16.5795898 C15.0202637,16.2758789 16.625,14.4781494 16.625,12.3125 C16.625,9.93457031 14.6904297,8 12.3125,8 Z M12.3125,15.375 C10.6239014,15.375 9.25,14.0012207 9.25,12.3125 C9.25,10.6237793 10.6239014,9.25 12.3125,9.25 C14.0010986,9.25 15.375,10.6237793 15.375,12.3125 C15.375,14.0012207 14.0010986,15.375 12.3125,15.375 Z M17.5157895,18.2992444 L17.5157895,18.8375977 C17.5157895,19.217012 17.8288519,19.5368421 18.2150339,19.5368421 L18.7533871,19.5368421 C19.1328015,19.5368421 19.4526316,19.2237797 19.4526316,18.8375977 L19.4526316,18.2992444 C19.4526316,17.9198301 19.1395692,17.6 18.7533871,17.6 L18.2150339,17.6 C17.8356196,17.6 17.5157895,17.9130624 17.5157895,18.2992444 Z M17.5157895,20.4887181 L17.5157895,21.0270713 C17.5157895,21.4064857 17.8288519,21.7263158 18.2150339,21.7263158 L18.7533871,21.7263158 C19.1328015,21.7263158 19.4526316,21.4132534 19.4526316,21.0270713 L19.4526316,20.4887181 C19.4526316,20.1093038 19.1395692,19.7894737 18.7533871,19.7894737 L18.2150339,19.7894737 C17.8356196,19.7894737 17.5157895,20.1025361 17.5157895,20.4887181 Z M20,18.2992444 L20,18.8375977 C20,19.217012 20.3130624,19.5368421 20.6992444,19.5368421 L21.2375977,19.5368421 C21.617012,19.5368421 21.9368421,19.2237797 21.9368421,18.8375977 L21.9368421,18.2992444 C21.9368421,17.9198301 21.6237797,17.6 21.2375977,17.6 L20.6992444,17.6 C20.3198301,17.6 20,17.9130624 20,18.2992444 Z M20,20.4887181 L20,21.0270713 C20,21.4064857 20.3130624,21.7263158 20.6992444,21.7263158 L21.2375977,21.7263158 C21.617012,21.7263158 21.9368421,21.4132534 21.9368421,21.0270713 L21.9368421,20.4887181 C21.9368421,20.1093038 21.6237797,19.7894737 21.2375977,19.7894737 L20.6992444,19.7894737 C20.3198301,19.7894737 20,20.1025361 20,20.4887181 Z M20.3125,15.4204102 L20.3125,8.65625 C20.3125,8.31103516 20.0327148,8.03125 19.6875,8.03125 C19.3422852,8.03125 19.0625,8.31103516 19.0625,8.65625 L19.0625,15.4204102 C16.9797363,15.7241211 15.375,17.5218506 15.375,19.6875 C15.375,22.0654297 17.3095703,24 19.6875,24 C22.0654297,24 24,22.0654297 24,19.6875 C24,17.5218506 22.3952637,15.7241211 20.3125,15.4204102 Z M19.6875,22.75 C17.9989014,22.75 16.625,21.3762207 16.625,19.6875 C16.625,17.9987793 17.9989014,16.625 19.6875,16.625 C21.3760986,16.625 22.75,17.9987793 22.75,19.6875 C22.75,21.3762207 21.3760986,22.75 19.6875,22.75 Z M10.1894737,11.1873096 L10.1894737,13.402164 C10.1894737,13.9493999 10.6362201,14.4 11.1873096,14.4 L13.402164,14.4 C13.9493999,14.4 14.4,13.9532536 14.4,13.402164 L14.4,11.1873096 C14.4,10.6400738 13.9532536,10.1894737 13.402164,10.1894737 L11.1873096,10.1894737 C10.6400738,10.1894737 10.1894737,10.6362201 10.1894737,11.1873096 Z M28.047308,15.9994246 C28.047308,9.34575729 22.6529263,3.95137767 15.9998627,3.95137767 C9.34626741,3.95137767 3.9522048,9.34565094 3.9522048,15.9994246 C3.9522048,22.6534109 9.34626741,28.0480033 15.9998627,28.0480033 C22.6529263,28.0480033 28.047308,22.6535173 28.047308,15.9994246 Z M26.88,16.0807994 C26.88,22.0461472 22.0445034,26.881928 16.0801646,26.881928 C10.1157161,26.881928 5.28,22.0461472 5.28,16.0807994 C5.28,10.1157808 10.1151673,5.28 16.0797256,5.28 C22.0441742,5.28 26.88,10.1157808 26.88,16.0807994 Z" id="path-3"></path>
        <path d="M18.6622846,30.9719975 L18.121407,31.3786248 C17.9285724,31.5224984 17.7181235,31.6460822 17.4976225,31.742459 C16.516204,32.1714052 15.3579974,32.0585198 14.4770079,31.4487171 L13.5168925,30.7841318 C12.8546718,30.3036176 11.8213327,29.6462512 10.4168754,28.8120325 L6.19406466,28.2804545 C5.07274655,27.9538799 4.21545787,27.0227595 4.00187347,25.8485296 L3.22776834,21.5872888 L0.625653725,18.1246388 C-0.182019929,17.0506592 -0.210055188,15.5861921 0.555196695,14.480671 L3.02073165,10.9192462 L3.62828521,6.63079854 C3.77943583,5.56991523 4.48262281,4.64340616 5.46487128,4.21501331 C5.68574116,4.11789863 5.91804647,4.04743746 6.15533173,4.0039987 L10.4168754,3.22938695 L13.8791376,0.627672762 C14.0724333,0.482231314 14.2821444,0.359938757 14.5023687,0.263838573 C15.4990037,-0.172485773 16.6281606,-0.0627360432 17.5228911,0.556750458 L21.083,3.02178473 L25.3713801,3.63038848 C26.702686,3.81908424 27.757697,4.83496094 27.9983945,6.1574913 L28.7725918,10.4189165 L31.3747064,13.880921 C32.1821034,14.955085 32.2096776,16.4196444 31.4453479,17.5255343 L28.9797207,21.0867747 L28.3721672,25.3748535 C28.2211088,26.4364746 27.5182907,27.3620614 26.5356733,27.7914687 C26.3152645,27.888399 26.0824059,27.9585835 25.8458584,28.00193 L25.6611393,28.0352238 L21.7316334,28.8120325 C20.3719978,29.6796017 19.3488816,30.39959 18.6622846,30.9719975 Z M17.5128182,15.6931924 C17.354786,15.5340872 17.163019,15.4545942 16.9372207,15.4545942 L16.6665413,15.4545942 L16.6665413,13.8181383 C16.6665413,12.7727003 16.2942423,11.8750541 15.5494073,11.1250503 C14.8046315,10.3750168 13.9132957,9.99999997 12.8749554,9.99999997 C11.8366448,9.99999997 10.9451312,10.3750168 10.2004147,11.1250205 C9.45557958,11.8750541 9.08328061,12.7726705 9.08328061,13.8181383 L9.08328061,15.4545942 L8.81248269,15.4545942 C8.58686222,15.4545942 8.39497663,15.5340872 8.23697412,15.6931924 C8.07897161,15.8521783 8,16.0454031 8,16.2728072 L8,21.1818466 C8,21.4090417 8.07900125,21.6023263 8.23697412,21.7614614 C8.39497663,21.9204174 8.58686222,22 8.81248269,22 L16.9374282,22 C17.1632265,22 17.3549639,21.9205069 17.5130257,21.7614614 C17.67088,21.6023263 17.7499999,21.4090417 17.7499999,21.1818466 L17.7499999,16.2727177 C17.7501184,16.0454927 17.67088,15.8522977 17.5128182,15.6931924 Z M15.0416056,15.4545942 L10.7083053,15.4545942 L10.7083053,13.8181383 C10.7083053,13.2158965 10.9199338,12.7016552 11.3431018,12.2755934 C11.7663292,11.8494718 12.2769174,11.6364559 12.8750444,11.6364559 C13.4732306,11.6364559 13.9837002,11.849442 14.4069572,12.2755934 C14.8300067,12.7016253 15.0416056,13.2158965 15.0416056,13.8181383 L15.0416056,15.4545942 Z M16.3885741,9.50973559 C16.4501432,9.42893499 16.5183193,9.35088726 16.5931018,9.27559339 C17.0163292,8.84947187 17.5269174,8.63645589 18.1250443,8.63645589 C18.7232305,8.63645589 19.2337002,8.84944202 19.6569572,9.27559339 C20.0800067,9.70162536 20.2916055,10.2158966 20.2916055,10.8181384 L20.2916055,12.4545943 L18.2422036,12.4545943 C18.3930844,13.0433119 18.4554156,13.4978266 18.4291975,13.8181383 L18.4291975,14.1681246 C18.5481318,14.1681246 19.0038207,14.6313897 19.2057647,15.084239 C19.3638265,15.2433442 19.5226547,16.0455822 19.5225578,16.2728072 L19.5225578,19 L22.1874281,19 C22.4132264,19 22.6049638,18.920507 22.7630256,18.7614614 C22.9208799,18.6023263 22.9999999,18.4090417 22.9999999,18.1818466 L22.9999999,13.2727177 C23.0001183,13.0454927 22.9208799,12.8522977 22.7628181,12.6931925 C22.604786,12.5340872 22.4130189,12.4545943 22.1872206,12.4545943 L21.9165413,12.4545943 L21.9165413,10.8181384 C21.9165413,9.77270034 21.5442423,8.87505409 20.7994072,8.12505036 C20.0546314,7.37501679 19.1632957,7 18.1249554,7 C17.0866447,7 16.1951311,7.37501679 15.4504146,8.12502051 C15.2892526,8.28730734 15.1455317,8.45650357 15.0192494,8.63261194 C15.4490613,8.7983072 15.9074814,9.12833217 16.3885741,9.50973559 Z M28.047308,15.9994246 C28.047308,9.34575729 22.6529263,3.95137767 15.9998627,3.95137767 C9.34626741,3.95137767 3.9522048,9.34565094 3.9522048,15.9994246 C3.9522048,22.6534109 9.34626741,28.0480033 15.9998627,28.0480033 C22.6529263,28.0480033 28.047308,22.6535173 28.047308,15.9994246 Z M26.88,16.0807994 C26.88,22.0461472 22.0445034,26.881928 16.0801646,26.881928 C10.1157161,26.881928 5.28,22.0461472 5.28,16.0807994 C5.28,10.1157808 10.1151673,5.28 16.0797256,5.28 C22.0441742,5.28 26.88,10.1157808 26.88,16.0807994 Z" id="path-5"></path>
        <path d="M18.6622846,30.9719975 L18.121407,31.3786248 C17.9285724,31.5224984 17.7181235,31.6460822 17.4976225,31.742459 C16.516204,32.1714052 15.3579974,32.0585198 14.4770079,31.4487171 L13.5168925,30.7841318 C12.8546718,30.3036176 11.8213327,29.6462512 10.4168754,28.8120325 L6.19406466,28.2804545 C5.07274655,27.9538799 4.21545787,27.0227595 4.00187347,25.8485296 L3.22776834,21.5872888 L0.625653725,18.1246388 C-0.182019929,17.0506592 -0.210055188,15.5861921 0.555196695,14.480671 L3.02073165,10.9192462 L3.62828521,6.63079854 C3.77943583,5.56991523 4.48262281,4.64340616 5.46487128,4.21501331 C5.68574116,4.11789863 5.91804647,4.04743746 6.15533173,4.0039987 L10.4168754,3.22938695 L13.8791376,0.627672762 C14.0724333,0.482231314 14.2821444,0.359938757 14.5023687,0.263838573 C15.4990037,-0.172485773 16.6281606,-0.0627360432 17.5228911,0.556750458 L21.083,3.02178473 L25.3713801,3.63038848 C26.702686,3.81908424 27.757697,4.83496094 27.9983945,6.1574913 L28.7725918,10.4189165 L31.3747064,13.880921 C32.1821034,14.955085 32.2096776,16.4196444 31.4453479,17.5255343 L28.9797207,21.0867747 L28.3721672,25.3748535 C28.2211088,26.4364746 27.5182907,27.3620614 26.5356733,27.7914687 C26.3152645,27.888399 26.0824059,27.9585835 25.8458584,28.00193 L25.6611393,28.0352238 L21.7316334,28.8120325 C20.3719978,29.6796017 19.3488816,30.39959 18.6622846,30.9719975 Z M22.1104339,14.7908856 C21.902966,14.5787463 21.6512103,14.4727562 21.3547776,14.4727562 L20.9994243,14.4727562 L20.9994243,12.2908259 C20.9994243,10.8969154 20.5106625,9.7000597 19.5328277,8.7000597 C18.5550708,7.7000199 17.3849069,7.2 16.0217525,7.2 C14.6586369,7.2 13.4882396,7.7000199 12.5105605,8.7000199 C11.5327257,9.7000597 11.043964,10.8968756 11.043964,12.2908259 L11.043964,14.4727562 L10.6884549,14.4727562 C10.3922557,14.4727562 10.1403444,14.5787463 9.93291543,14.7908856 C9.7254865,15.0028657 9.62181095,15.2604975 9.62181095,15.5637015 L9.62181095,22.1090547 C9.62181095,22.4119801 9.72552541,22.6696915 9.93291543,22.8818706 C10.1403444,23.0938109 10.3922557,23.1999204 10.6884549,23.1999204 L21.3550501,23.1999204 C21.6514828,23.1999204 21.9031995,23.0939303 22.1107063,22.8818706 C22.3179406,22.6696915 22.4218109,22.4119801 22.4218109,22.1090547 L22.4218109,15.5635821 C22.4219664,15.2606169 22.3179406,15.0030249 22.1104339,14.7908856 Z M18.8661753,14.4727562 L13.1773297,14.4727562 L13.1773297,12.2908259 C13.1773297,11.4878408 13.4551599,10.8021891 14.0107037,10.2341095 C14.5663252,9.66595025 15.2366359,9.38193035 16.0218692,9.38193035 C16.8071804,9.38193035 17.4773354,9.66591045 18.0329959,10.2341095 C18.5883839,10.8021493 18.8661753,11.4878408 18.8661753,12.2908259 L18.8661753,14.4727562 Z M28.047308,15.9994246 C28.047308,9.34575729 22.6529263,3.95137767 15.9998627,3.95137767 C9.34626741,3.95137767 3.9522048,9.34565094 3.9522048,15.9994246 C3.9522048,22.6534109 9.34626741,28.0480033 15.9998627,28.0480033 C22.6529263,28.0480033 28.047308,22.6535173 28.047308,15.9994246 Z M26.88,16.0807994 C26.88,22.0461472 22.0445034,26.881928 16.0801646,26.881928 C10.1157161,26.881928 5.28,22.0461472 5.28,16.0807994 C5.28,10.1157808 10.1151673,5.28 16.0797256,5.28 C22.0441742,5.28 26.88,10.1157808 26.88,16.0807994 Z" id="path-7"></path>
        <linearGradient x1="0%" y1="0%" x2="101.477557%" y2="100.48268%" id="linearGradient-9">
            <stop stop-color="#00AAA8" offset="0%"></stop>
            <stop stop-color="#7BD500" offset="100%"></stop>
        </linearGradient>
        <linearGradient x1="0%" y1="0%" x2="101.999998%" y2="100.999999%" id="linearGradient-10">
            <stop stop-color="#3023AE" offset="0%"></stop>
            <stop stop-color="#C86DD7" offset="100%"></stop>
        </linearGradient>
        <rect id="path-11" x="0" y="0" width="32" height="32" rx="2"></rect>
        <rect id="path-12" x="0" y="0" width="32" height="32" rx="2"></rect>
        <linearGradient x1="0%" y1="0%" x2="101.477557%" y2="100.48268%" id="linearGradient-13">
            <stop stop-color="#006BD0" offset="0%"></stop>
            <stop stop-color="#00B6D5" offset="100%"></stop>
        </linearGradient>
        <path d="M18.9521334,17.7500157 C19.1839574,17.9833701 19.3001737,18.2667227 19.3,18.5999861 L19.3,25.8000418 C19.3,26.1332614 19.1839574,26.4167454 18.9524378,26.6501435 C18.7206138,26.8834104 18.439399,27 18.1082281,27 L6.19164129,27 C5.86073127,27 5.57929906,26.883279 5.34756204,26.6501435 C5.11586851,26.4167454 5,26.1332614 5,25.8000418 L5,18.6001174 C5,18.2665914 5.11582503,17.9831949 5.34756204,17.7500157 C5.57929906,17.5166613 5.86073127,17.4000716 6.19164129,17.4000716 L6.58881157,17.4000716 L6.58881157,14.9999363 C6.58881157,13.4665834 7.13485006,12.1500794 8.22727487,11.0500301 C9.31952576,9.95002463 10.627079,9.4 12.1499347,9.4 C13.6728338,9.4 14.9801262,9.95002463 16.0724641,11.0500739 C17.1648889,12.1500794 17.7109274,13.4666272 17.7109274,14.9999363 L17.7109274,17.4000716 L18.1079237,17.4000716 C18.4390946,17.4000716 18.7203529,17.5166613 18.9521334,17.7500157 Z M15.3276883,17.4000716 L15.3276883,14.9999363 C15.3276883,14.1166483 15.0173433,13.3623839 14.3968707,12.737537 C13.7760937,12.112515 13.0274049,11.8001353 12.1500651,11.8001353 C11.2728123,11.8001353 10.5239495,12.1125588 9.90321608,12.737537 C9.28256957,13.3624277 8.97218111,14.1166483 8.97218111,14.9999363 L8.97218111,17.4000716 L15.3276883,17.4000716 Z M17.3032421,8.68094557 C16.5976395,8.12155388 15.92529,7.63751725 15.2948993,7.39449753 C15.4801132,7.13620526 15.6909039,6.88805078 15.9272749,6.6500301 C17.0195258,5.55002463 18.327079,5 19.8499347,5 C21.3728338,5 22.6801262,5.55002463 23.7724641,6.65007388 C24.8648889,7.75007935 25.4109274,9.0666272 25.4109274,10.5999363 L25.4109274,13.0000716 L25.8079237,13.0000716 C26.1390946,13.0000716 26.4203529,13.1166613 26.6521334,13.3500157 C26.8839574,13.5833701 27.0001737,13.8667227 27,14.1999861 L27,21.4000418 C27,21.7332614 26.8839574,22.0167454 26.6524378,22.2501435 C26.4206138,22.4834104 26.139399,22.6 25.8082281,22.6 L21.8997516,22.6 L21.8997516,18.6001174 C21.8998937,18.2668541 21.6669457,17.0902383 21.4351217,16.8568839 C21.1389371,16.192705 20.4705935,15.5132495 20.2961564,15.5132495 L20.2961564,14.9999363 C20.3346097,14.5301457 20.2431905,13.8635242 20.0218988,13.0000716 L23.0276883,13.0000716 L23.0276883,10.5999363 C23.0276883,9.71664834 22.7173433,8.96238389 22.0968707,8.337537 C21.4760937,7.71251499 20.7274049,7.40013532 19.8500651,7.40013532 C18.9728123,7.40013532 18.2239495,7.71255877 17.6032161,8.337537 C17.4935351,8.44796801 17.3935435,8.56243802 17.3032421,8.68094557 Z" id="path-14"></path>
    </defs>
    <g id="sprite_icons_cso_32x32" stroke="none" stroke-width="1" fill="none" fill-rule="evenodd">
        <g id="0:-icon32/event/sealed_test_event" transform="translate(40.000000, 120.000000)">
            <g id="Icon-Color" transform="translate(0.000000, -0.000000)">
                <mask id="mask-2" fill="white">
                    <use xlink:href="#path-1"></use>
                </mask>
                <g id="Mask" fill-rule="nonzero"></g>
                <g id="2-Neutral/01-Black" mask="url(#mask-2)" fill="#000000">
                    <rect id="2-Neutral/1-Black" x="0" y="0" width="32" height="32"></rect>
                </g>
            </g>
        </g>
        <g id="0:-icon32/event/test_event" transform="translate(40.000000, 80.000000)">
            <g id="Icon-Color" transform="translate(0.000000, -0.000000)">
                <mask id="mask-4" fill="white">
                    <use xlink:href="#path-3"></use>
                </mask>
                <g id="Mask" fill-rule="nonzero"></g>
                <g id="2-Neutral/01-Black" mask="url(#mask-4)" fill="#000000">
                    <rect id="2-Neutral/1-Black" x="0" y="0" width="32" height="32"></rect>
                </g>
            </g>
        </g>
        <g id="0:-icon32/event/double_sealed_event" transform="translate(40.000000, 40.000000)">
            <g id="Icon-Color" transform="translate(0.000000, -0.000000)">
                <mask id="mask-6" fill="white">
                    <use xlink:href="#path-5"></use>
                </mask>
                <g id="Mask" fill-rule="nonzero"></g>
                <g id="2-Neutral/01-Black" mask="url(#mask-6)" fill="#000000">
                    <rect id="2-Neutral/1-Black" x="0" y="0" width="32" height="32"></rect>
                </g>
            </g>
        </g>
        <g id="0:-icon32/event/sealed_event" transform="translate(40.000000, 0.000000)">
            <g id="Icon-Color" transform="translate(0.000000, -0.000000)">
                <mask id="mask-8" fill="white">
                    <use xlink:href="#path-7"></use>
                </mask>
                <g id="Mask" fill-rule="nonzero"></g>
                <g id="2-Neutral/01-Black" mask="url(#mask-8)" fill="#000000">
                    <rect id="2-Neutral/1-Black" x="0" y="0" width="32" height="32"></rect>
                </g>
            </g>
        </g>
        <g id="0:icon32/project/project-predefined-sealed" transform="translate(0.000000, 320.000000)">
            <g id="0:icon/project/project-predefined-sealed">
                <rect id="Rectangle-50-Copy" fill="url(#linearGradient-9)" x="0" y="0" width="32" height="32" rx="2"></rect>
                <path d="M23.75,8.53434589 C23.75,8.23948874 23.5111429,8.0006316 23.2162857,8.0006316 L22.2837143,8.0006316 C21.9888571,8.0006316 21.75,8.23948874 21.75,8.53434589 C21.75,8.62490767 21.75,8.692829 21.75,8.73810989 C21.75,8.9810457 22.7370946,10.0006316 22.9637848,10.0006316 C23.0198961,10.0006316 23.1040631,10.0006316 23.2162857,10.0006316 C23.5111429,10.0006316 23.75,9.76177446 23.75,9.46691732 L23.75,8.53434589 Z M8.25,8.53434589 C8.25,8.23948874 8.48885714,8.0006316 8.78371429,8.0006316 L9.71628571,8.0006316 C10.0111429,8.0006316 10.25,8.23948874 10.25,8.53434589 C10.25,8.62490767 10.25,8.692829 10.25,8.73810989 C10.25,8.9810457 9.26290538,10.0006316 9.03621521,10.0006316 C8.9801039,10.0006316 8.89593692,10.0006316 8.78371429,10.0006316 C8.48885714,10.0006316 8.25,9.76177446 8.25,9.46691732 L8.25,8.53434589 Z M23.75,22.9669173 C23.75,23.2617745 23.5111429,23.5006316 23.2162857,23.5006316 L22.2837143,23.5006316 C21.9888571,23.5006316 21.75,23.2617745 21.75,22.9669173 C21.75,22.8763555 21.75,22.8084342 21.75,22.7631533 C21.75,22.5202175 22.7370946,21.5006316 22.9637848,21.5006316 C23.1149116,21.5006316 23.1990785,21.5006316 23.2162857,21.5006316 C23.5111429,21.5006316 23.75,21.7394887 23.75,22.0343459 L23.75,22.9669173 Z M8.25,22.9669173 C8.25,23.2617745 8.48885714,23.5006316 8.78371429,23.5006316 L9.71628571,23.5006316 C10.0111429,23.5006316 10.25,23.2617745 10.25,22.9669173 C10.25,22.8763555 10.25,22.8084342 10.25,22.7631533 C10.25,22.5202175 9.26290538,21.5006316 9.03621521,21.5006316 C8.88508844,21.5006316 8.80092146,21.5006316 8.78371429,21.5006316 C8.48885714,21.5006316 8.25,21.7394887 8.25,22.0343459 L8.25,22.9669173 Z M22.8964466,10.8435248 C22.8059369,10.9340345 22.7500755,11.0591924 22.7493684,11.1970782 L22.7493684,11.904185 C22.7500755,12.0420708 22.8059369,12.1672287 22.8964466,12.2577384 C23.0916081,12.4528999 23.4083919,12.4528999 23.6035534,12.2577384 C23.6940631,12.1672287 23.7499245,12.0420708 23.7499245,11.9034779 L23.7499245,11.1963711 C23.7499245,11.0591924 23.6940631,10.9340345 23.6035534,10.8435248 C23.4076848,10.6476562 23.0916081,10.6483633 22.8964466,10.8435248 Z M23.6035534,13.6435248 C23.4083919,13.4483633 23.0916081,13.4483633 22.8964466,13.6435248 C22.8059369,13.7340345 22.7500755,13.8591924 22.7500755,13.9977853 L22.7500755,14.7048921 C22.7500755,14.8420708 22.8059369,14.9672287 22.8964466,15.0577384 C23.0916081,15.2528999 23.4083919,15.2528999 23.6035534,15.0577384 C23.6940631,14.9672287 23.7499245,14.8420708 23.7506316,14.704185 L23.7506316,13.9970782 C23.7499245,13.8591924 23.6940631,13.7340345 23.6035534,13.6435248 M23.6035534,16.4435248 C23.4083919,16.2483633 23.0916081,16.2483633 22.8964466,16.4435248 C22.8059369,16.5340345 22.7500755,16.6591924 22.7493684,16.7970782 L22.7493684,17.504185 C22.7500755,17.6420708 22.8059369,17.7672287 22.8964466,17.8577384 C23.0916081,18.0528999 23.4083919,18.0528999 23.6035534,17.8577384 C23.6940631,17.7672287 23.7499245,17.6420708 23.7499245,17.5034779 L23.7499245,16.7963711 C23.7499245,16.6591924 23.6940631,16.5340345 23.6035534,16.4435248 M22.8964466,19.2435248 C22.8059369,19.3340345 22.7500755,19.4591924 22.7500755,19.5977853 L22.7500755,20.3048921 C22.7500755,20.4420708 22.8059369,20.5672287 22.8964466,20.6577384 C23.0923152,20.853607 23.4083919,20.8528999 23.6035534,20.6577384 C23.6940631,20.5672287 23.7499245,20.4420708 23.7506316,20.304185 L23.7506316,19.5970782 C23.7499245,19.4591924 23.6940631,19.3340345 23.6035534,19.2435248 C23.4083919,19.0483633 23.0916081,19.0483633 22.8964466,19.2435248 M9.10355339,12.2577384 C9.19406306,12.1672287 9.24992449,12.0420708 9.24992449,11.9034779 L9.24992449,11.1963711 C9.24992449,11.0591924 9.19406306,10.9340345 9.10355339,10.8435248 C8.90768481,10.6476562 8.59160808,10.6483633 8.39644661,10.8435248 C8.30593694,10.9340345 8.25007551,11.0591924 8.2493684,11.1970782 L8.2493684,11.904185 C8.25007551,12.0420708 8.30593694,12.1672287 8.39644661,12.2577384 C8.59160808,12.4528999 8.90839192,12.4528999 9.10355339,12.2577384 M8.39644661,15.0577384 C8.59160808,15.2528999 8.90839192,15.2528999 9.10355339,15.0577384 C9.19406306,14.9672287 9.24992449,14.8420708 9.2506316,14.704185 L9.2506316,13.9970782 C9.24992449,13.8591924 9.19406306,13.7340345 9.10355339,13.6435248 C8.90839192,13.4483633 8.59160808,13.4483633 8.39644661,13.6435248 C8.30593694,13.7340345 8.25007551,13.8591924 8.25007551,13.9977853 L8.25007551,14.7048921 C8.25007551,14.8420708 8.30593694,14.9672287 8.39644661,15.0577384 M8.39644661,20.6577384 C8.59231519,20.853607 8.90839192,20.8528999 9.10355339,20.6577384 C9.19406306,20.5672287 9.24992449,20.4420708 9.2506316,20.304185 L9.2506316,19.5970782 C9.24992449,19.4591924 9.19406306,19.3340345 9.10355339,19.2435248 C8.90839192,19.0483633 8.59160808,19.0483633 8.39644661,19.2435248 C8.30593694,19.3340345 8.25007551,19.4591924 8.25007551,19.5977853 L8.25007551,20.3048921 C8.25007551,20.4420708 8.30593694,20.5672287 8.39644661,20.6577384 M8.39644661,17.8577384 C8.59160808,18.0528999 8.90839192,18.0528999 9.10355339,17.8577384 C9.19406306,17.7672287 9.24992449,17.6420708 9.24992449,17.5034779 L9.24992449,16.7963711 C9.24992449,16.6591924 9.19406306,16.5340345 9.10355339,16.4435248 C8.90839192,16.2483633 8.59160808,16.2483633 8.39644661,16.4435248 C8.30593694,16.5340345 8.25007551,16.6591924 8.2493684,16.7970782 L8.2493684,17.504185 C8.25007551,17.6420708 8.30593694,17.7672287 8.39644661,17.8577384 M12.5071068,8.14707821 C12.4165971,8.05656854 12.2914392,8.00070711 12.1535534,8 L11.4464466,8 C11.3085608,8.00070711 11.1834029,8.05656854 11.0928932,8.14707821 C10.8977317,8.34223968 10.8970246,8.65831641 11.0928932,8.85418499 C11.1834029,8.94469466 11.3085608,9.0005561 11.4457395,9.0005561 L12.1528463,9.0005561 C12.2914392,9.0005561 12.4165971,8.94469466 12.5071068,8.85418499 C12.7022683,8.65902352 12.7022683,8.34223968 12.5071068,8.14707821 M15.3071068,8.14707821 C15.2165971,8.05656854 15.0914392,8.00070711 14.9535534,8 L14.2464466,8 C14.1078537,8 13.9834029,8.05656854 13.8928932,8.14707821 C13.6977317,8.34223968 13.6970246,8.65831641 13.8928932,8.85418499 C13.9834029,8.94469466 14.1078537,8.99984899 14.2457395,9.0005561 L14.9528463,9.0005561 C15.0914392,9.0005561 15.2165971,8.94469466 15.3071068,8.85418499 C15.5022683,8.65902352 15.5022683,8.34223968 15.3071068,8.14707821 M18.1071068,8.14707821 C18.0165971,8.05656854 17.8921463,8.00141421 17.7542605,8.00070711 L17.0471537,8.00070711 C16.9085608,8.00070711 16.7834029,8.05656854 16.6928932,8.14707821 C16.4977317,8.34223968 16.4977317,8.65902352 16.6928932,8.85418499 C16.7834029,8.94469466 16.9085608,9.0005561 17.0464466,9.0012632 L17.7535534,9.0012632 C17.8921463,9.0012632 18.0165971,8.94469466 18.1071068,8.85418499 C18.3022683,8.65902352 18.3029754,8.34294679 18.1071068,8.14707821 M20.9071068,8.14707821 C20.8165971,8.05656854 20.6914392,8.00070711 20.5542605,8.00070711 L19.8471537,8.00070711 C19.7085608,8.00070711 19.5834029,8.05656854 19.4928932,8.14707821 C19.2977317,8.34223968 19.2977317,8.65902352 19.4928932,8.85418499 C19.5834029,8.94469466 19.7085608,9.0005561 19.8464466,9.0012632 L20.5535534,9.0012632 C20.6914392,9.0005561 20.8165971,8.94469466 20.9071068,8.85418499 C21.1022683,8.65902352 21.1029754,8.34294679 20.9071068,8.14707821 M12.5071068,22.6470782 C12.4165971,22.5565685 12.2914392,22.5007071 12.1535534,22.5 L11.4464466,22.5 C11.3085608,22.5007071 11.1834029,22.5565685 11.0928932,22.6470782 C10.8977317,22.8422397 10.8970246,23.1583164 11.0928932,23.354185 C11.1834029,23.4446947 11.3085608,23.5005561 11.4457395,23.5005561 L12.1528463,23.5005561 C12.2914392,23.5005561 12.4165971,23.4446947 12.5071068,23.354185 C12.7022683,23.1590235 12.7022683,22.8422397 12.5071068,22.6470782 M15.3071068,22.6470782 C15.2165971,22.5565685 15.0914392,22.5007071 14.9535534,22.5 L14.2464466,22.5 C14.1078537,22.5 13.9834029,22.5565685 13.8928932,22.6470782 C13.6977317,22.8422397 13.6970246,23.1583164 13.8928932,23.354185 C13.9834029,23.4446947 14.1078537,23.499849 14.2457395,23.5005561 L14.9528463,23.5005561 C15.0914392,23.5005561 15.2165971,23.4446947 15.3071068,23.354185 C15.5022683,23.1590235 15.5022683,22.8422397 15.3071068,22.6470782 M18.1071068,22.6470782 C18.0165971,22.5565685 17.8921463,22.5014142 17.7542605,22.5007071 L17.0471537,22.5007071 C16.9085608,22.5007071 16.7834029,22.5565685 16.6928932,22.6470782 C16.4977317,22.8422397 16.4977317,23.1590235 16.6928932,23.354185 C16.7834029,23.4446947 16.9085608,23.5005561 17.0464466,23.5012632 L17.7535534,23.5012632 C17.8921463,23.5012632 18.0165971,23.4446947 18.1071068,23.354185 C18.1976164,23.2636753 18.254185,23.1392245 18.254185,23.0006316 C18.2534779,22.8627458 18.1976164,22.7375879 18.1071068,22.6470782 M20.9071068,22.6470782 C21.1029754,22.8429468 21.1022683,23.1590235 20.9071068,23.354185 C20.8165971,23.4446947 20.6914392,23.5005561 20.5535534,23.5012632 L19.8464466,23.5012632 C19.7085608,23.5005561 19.5834029,23.4446947 19.4928932,23.354185 C19.2977317,23.1590235 19.2977317,22.8422397 19.4928932,22.6470782 C19.5834029,22.5565685 19.7085608,22.5007071 19.8471537,22.5007071 L20.5542605,22.5007071 C20.6914392,22.5007071 20.8165971,22.5565685 20.9071068,22.6470782" id="Fill-107" fill="#FFFFFF"></path>
                <path d="M19.8053579,15.7442844 C19.675691,15.6116979 19.5183444,15.5454543 19.3330747,15.5454543 L19.1109797,15.5454543 L19.1109797,14.1817534 C19.1109797,13.3105628 18.8055048,12.562531 18.1943606,11.9375335 C17.5832649,11.3125112 16.8519155,11 15.9999474,11 C15.1480036,11 14.4165082,11.3125112 13.8054612,11.9375087 C13.1943169,12.562531 12.8888421,13.310538 12.8888421,14.1817534 L12.8888421,15.5454543 L12.6666498,15.5454543 C12.481526,15.5454543 12.3240821,15.6116979 12.1944395,15.7442844 C12.064797,15.8767714 12,16.0377907 12,16.2272924 L12,20.3181217 C12,20.5074493 12.0648213,20.6685183 12.1944395,20.8011297 C12.3240821,20.9335919 12.481526,20.99991 12.6666498,20.99991 L19.3332449,20.99991 C19.5185146,20.99991 19.675837,20.9336665 19.8055282,20.8011297 C19.9350491,20.6685183 19.9999678,20.5074493 19.9999678,20.3181217 L19.9999678,16.2272178 C20.000065,16.0378653 19.9350491,15.8768709 19.8053579,15.7442844 Z M17.7777044,15.5454543 L14.2221903,15.5454543 L14.2221903,14.1817534 C14.2221903,13.6798897 14.3958335,13.2513591 14.7430469,12.8963108 C15.090309,12.5412127 15.5092515,12.363701 16.0000203,12.363701 C16.4908378,12.363701 16.909683,12.5411878 17.2569694,12.8963108 C17.6040856,13.2513342 17.7777044,13.6798897 17.7777044,14.1817534 L17.7777044,15.5454543 Z" id="Shape" fill="#FFFFFF"></path>
            </g>
        </g>
        <g id="0:icon32/project/project-predefined" transform="translate(0.000000, 280.000000)">
            <g id="0:icon/project/project-predefined">
                <rect id="Rectangle-50-Copy" fill="url(#linearGradient-9)" x="0" y="0" width="32" height="32" rx="2"></rect>
                <path d="M23.75,8.53434589 C23.75,8.23948874 23.5111429,8.0006316 23.2162857,8.0006316 L22.2837143,8.0006316 C21.9888571,8.0006316 21.75,8.23948874 21.75,8.53434589 C21.75,8.62490767 21.75,8.692829 21.75,8.73810989 C21.75,8.9810457 22.7370946,10.0006316 22.9637848,10.0006316 C23.0198961,10.0006316 23.1040631,10.0006316 23.2162857,10.0006316 C23.5111429,10.0006316 23.75,9.76177446 23.75,9.46691732 L23.75,8.53434589 Z M8.25,8.53434589 C8.25,8.23948874 8.48885714,8.0006316 8.78371429,8.0006316 L9.71628571,8.0006316 C10.0111429,8.0006316 10.25,8.23948874 10.25,8.53434589 C10.25,8.62490767 10.25,8.692829 10.25,8.73810989 C10.25,8.9810457 9.26290538,10.0006316 9.03621521,10.0006316 C8.9801039,10.0006316 8.89593692,10.0006316 8.78371429,10.0006316 C8.48885714,10.0006316 8.25,9.76177446 8.25,9.46691732 L8.25,8.53434589 Z M23.75,22.9669173 C23.75,23.2617745 23.5111429,23.5006316 23.2162857,23.5006316 L22.2837143,23.5006316 C21.9888571,23.5006316 21.75,23.2617745 21.75,22.9669173 C21.75,22.8763555 21.75,22.8084342 21.75,22.7631533 C21.75,22.5202175 22.7370946,21.5006316 22.9637848,21.5006316 C23.1149116,21.5006316 23.1990785,21.5006316 23.2162857,21.5006316 C23.5111429,21.5006316 23.75,21.7394887 23.75,22.0343459 L23.75,22.9669173 Z M8.25,22.9669173 C8.25,23.2617745 8.48885714,23.5006316 8.78371429,23.5006316 L9.71628571,23.5006316 C10.0111429,23.5006316 10.25,23.2617745 10.25,22.9669173 C10.25,22.8763555 10.25,22.8084342 10.25,22.7631533 C10.25,22.5202175 9.26290538,21.5006316 9.03621521,21.5006316 C8.88508844,21.5006316 8.80092146,21.5006316 8.78371429,21.5006316 C8.48885714,21.5006316 8.25,21.7394887 8.25,22.0343459 L8.25,22.9669173 Z M22.8964466,10.8435248 C22.8059369,10.9340345 22.7500755,11.0591924 22.7493684,11.1970782 L22.7493684,11.904185 C22.7500755,12.0420708 22.8059369,12.1672287 22.8964466,12.2577384 C23.0916081,12.4528999 23.4083919,12.4528999 23.6035534,12.2577384 C23.6940631,12.1672287 23.7499245,12.0420708 23.7499245,11.9034779 L23.7499245,11.1963711 C23.7499245,11.0591924 23.6940631,10.9340345 23.6035534,10.8435248 C23.4076848,10.6476562 23.0916081,10.6483633 22.8964466,10.8435248 Z M23.6035534,13.6435248 C23.4083919,13.4483633 23.0916081,13.4483633 22.8964466,13.6435248 C22.8059369,13.7340345 22.7500755,13.8591924 22.7500755,13.9977853 L22.7500755,14.7048921 C22.7500755,14.8420708 22.8059369,14.9672287 22.8964466,15.0577384 C23.0916081,15.2528999 23.4083919,15.2528999 23.6035534,15.0577384 C23.6940631,14.9672287 23.7499245,14.8420708 23.7506316,14.704185 L23.7506316,13.9970782 C23.7499245,13.8591924 23.6940631,13.7340345 23.6035534,13.6435248 M23.6035534,16.4435248 C23.4083919,16.2483633 23.0916081,16.2483633 22.8964466,16.4435248 C22.8059369,16.5340345 22.7500755,16.6591924 22.7493684,16.7970782 L22.7493684,17.504185 C22.7500755,17.6420708 22.8059369,17.7672287 22.8964466,17.8577384 C23.0916081,18.0528999 23.4083919,18.0528999 23.6035534,17.8577384 C23.6940631,17.7672287 23.7499245,17.6420708 23.7499245,17.5034779 L23.7499245,16.7963711 C23.7499245,16.6591924 23.6940631,16.5340345 23.6035534,16.4435248 M22.8964466,19.2435248 C22.8059369,19.3340345 22.7500755,19.4591924 22.7500755,19.5977853 L22.7500755,20.3048921 C22.7500755,20.4420708 22.8059369,20.5672287 22.8964466,20.6577384 C23.0923152,20.853607 23.4083919,20.8528999 23.6035534,20.6577384 C23.6940631,20.5672287 23.7499245,20.4420708 23.7506316,20.304185 L23.7506316,19.5970782 C23.7499245,19.4591924 23.6940631,19.3340345 23.6035534,19.2435248 C23.4083919,19.0483633 23.0916081,19.0483633 22.8964466,19.2435248 M9.10355339,12.2577384 C9.19406306,12.1672287 9.24992449,12.0420708 9.24992449,11.9034779 L9.24992449,11.1963711 C9.24992449,11.0591924 9.19406306,10.9340345 9.10355339,10.8435248 C8.90768481,10.6476562 8.59160808,10.6483633 8.39644661,10.8435248 C8.30593694,10.9340345 8.25007551,11.0591924 8.2493684,11.1970782 L8.2493684,11.904185 C8.25007551,12.0420708 8.30593694,12.1672287 8.39644661,12.2577384 C8.59160808,12.4528999 8.90839192,12.4528999 9.10355339,12.2577384 M8.39644661,15.0577384 C8.59160808,15.2528999 8.90839192,15.2528999 9.10355339,15.0577384 C9.19406306,14.9672287 9.24992449,14.8420708 9.2506316,14.704185 L9.2506316,13.9970782 C9.24992449,13.8591924 9.19406306,13.7340345 9.10355339,13.6435248 C8.90839192,13.4483633 8.59160808,13.4483633 8.39644661,13.6435248 C8.30593694,13.7340345 8.25007551,13.8591924 8.25007551,13.9977853 L8.25007551,14.7048921 C8.25007551,14.8420708 8.30593694,14.9672287 8.39644661,15.0577384 M8.39644661,20.6577384 C8.59231519,20.853607 8.90839192,20.8528999 9.10355339,20.6577384 C9.19406306,20.5672287 9.24992449,20.4420708 9.2506316,20.304185 L9.2506316,19.5970782 C9.24992449,19.4591924 9.19406306,19.3340345 9.10355339,19.2435248 C8.90839192,19.0483633 8.59160808,19.0483633 8.39644661,19.2435248 C8.30593694,19.3340345 8.25007551,19.4591924 8.25007551,19.5977853 L8.25007551,20.3048921 C8.25007551,20.4420708 8.30593694,20.5672287 8.39644661,20.6577384 M8.39644661,17.8577384 C8.59160808,18.0528999 8.90839192,18.0528999 9.10355339,17.8577384 C9.19406306,17.7672287 9.24992449,17.6420708 9.24992449,17.5034779 L9.24992449,16.7963711 C9.24992449,16.6591924 9.19406306,16.5340345 9.10355339,16.4435248 C8.90839192,16.2483633 8.59160808,16.2483633 8.39644661,16.4435248 C8.30593694,16.5340345 8.25007551,16.6591924 8.2493684,16.7970782 L8.2493684,17.504185 C8.25007551,17.6420708 8.30593694,17.7672287 8.39644661,17.8577384 M12.5071068,8.14707821 C12.4165971,8.05656854 12.2914392,8.00070711 12.1535534,8 L11.4464466,8 C11.3085608,8.00070711 11.1834029,8.05656854 11.0928932,8.14707821 C10.8977317,8.34223968 10.8970246,8.65831641 11.0928932,8.85418499 C11.1834029,8.94469466 11.3085608,9.0005561 11.4457395,9.0005561 L12.1528463,9.0005561 C12.2914392,9.0005561 12.4165971,8.94469466 12.5071068,8.85418499 C12.7022683,8.65902352 12.7022683,8.34223968 12.5071068,8.14707821 M15.3071068,8.14707821 C15.2165971,8.05656854 15.0914392,8.00070711 14.9535534,8 L14.2464466,8 C14.1078537,8 13.9834029,8.05656854 13.8928932,8.14707821 C13.6977317,8.34223968 13.6970246,8.65831641 13.8928932,8.85418499 C13.9834029,8.94469466 14.1078537,8.99984899 14.2457395,9.0005561 L14.9528463,9.0005561 C15.0914392,9.0005561 15.2165971,8.94469466 15.3071068,8.85418499 C15.5022683,8.65902352 15.5022683,8.34223968 15.3071068,8.14707821 M18.1071068,8.14707821 C18.0165971,8.05656854 17.8921463,8.00141421 17.7542605,8.00070711 L17.0471537,8.00070711 C16.9085608,8.00070711 16.7834029,8.05656854 16.6928932,8.14707821 C16.4977317,8.34223968 16.4977317,8.65902352 16.6928932,8.85418499 C16.7834029,8.94469466 16.9085608,9.0005561 17.0464466,9.0012632 L17.7535534,9.0012632 C17.8921463,9.0012632 18.0165971,8.94469466 18.1071068,8.85418499 C18.3022683,8.65902352 18.3029754,8.34294679 18.1071068,8.14707821 M20.9071068,8.14707821 C20.8165971,8.05656854 20.6914392,8.00070711 20.5542605,8.00070711 L19.8471537,8.00070711 C19.7085608,8.00070711 19.5834029,8.05656854 19.4928932,8.14707821 C19.2977317,8.34223968 19.2977317,8.65902352 19.4928932,8.85418499 C19.5834029,8.94469466 19.7085608,9.0005561 19.8464466,9.0012632 L20.5535534,9.0012632 C20.6914392,9.0005561 20.8165971,8.94469466 20.9071068,8.85418499 C21.1022683,8.65902352 21.1029754,8.34294679 20.9071068,8.14707821 M12.5071068,22.6470782 C12.4165971,22.5565685 12.2914392,22.5007071 12.1535534,22.5 L11.4464466,22.5 C11.3085608,22.5007071 11.1834029,22.5565685 11.0928932,22.6470782 C10.8977317,22.8422397 10.8970246,23.1583164 11.0928932,23.354185 C11.1834029,23.4446947 11.3085608,23.5005561 11.4457395,23.5005561 L12.1528463,23.5005561 C12.2914392,23.5005561 12.4165971,23.4446947 12.5071068,23.354185 C12.7022683,23.1590235 12.7022683,22.8422397 12.5071068,22.6470782 M15.3071068,22.6470782 C15.2165971,22.5565685 15.0914392,22.5007071 14.9535534,22.5 L14.2464466,22.5 C14.1078537,22.5 13.9834029,22.5565685 13.8928932,22.6470782 C13.6977317,22.8422397 13.6970246,23.1583164 13.8928932,23.354185 C13.9834029,23.4446947 14.1078537,23.499849 14.2457395,23.5005561 L14.9528463,23.5005561 C15.0914392,23.5005561 15.2165971,23.4446947 15.3071068,23.354185 C15.5022683,23.1590235 15.5022683,22.8422397 15.3071068,22.6470782 M18.1071068,22.6470782 C18.0165971,22.5565685 17.8921463,22.5014142 17.7542605,22.5007071 L17.0471537,22.5007071 C16.9085608,22.5007071 16.7834029,22.5565685 16.6928932,22.6470782 C16.4977317,22.8422397 16.4977317,23.1590235 16.6928932,23.354185 C16.7834029,23.4446947 16.9085608,23.5005561 17.0464466,23.5012632 L17.7535534,23.5012632 C17.8921463,23.5012632 18.0165971,23.4446947 18.1071068,23.354185 C18.1976164,23.2636753 18.254185,23.1392245 18.254185,23.0006316 C18.2534779,22.8627458 18.1976164,22.7375879 18.1071068,22.6470782 M20.9071068,22.6470782 C21.1029754,22.8429468 21.1022683,23.1590235 20.9071068,23.354185 C20.8165971,23.4446947 20.6914392,23.5005561 20.5535534,23.5012632 L19.8464466,23.5012632 C19.7085608,23.5005561 19.5834029,23.4446947 19.4928932,23.354185 C19.2977317,23.1590235 19.2977317,22.8422397 19.4928932,22.6470782 C19.5834029,22.5565685 19.7085608,22.5007071 19.8471537,22.5007071 L20.5542605,22.5007071 C20.6914392,22.5007071 20.8165971,22.5565685 20.9071068,22.6470782" id="Fill-107" fill="#FFFFFF"></path>
                <path d="M11,11.9712 C11,11.4352 11.435,11.0002 11.972,11.0002 L14.278,11.0002 C14.815,11.0002 15.25,11.4352 15.25,11.9712 L15.25,14.2792 C15.25,14.8152 14.815,15.2502 14.278,15.2502 L11.972,15.2502 C11.435,15.2502 11,14.8152 11,14.2792 L11,11.9712 Z M11,17.7212 C11,17.1852 11.435,16.7502 11.972,16.7502 L14.028,16.7502 C14.565,16.7502 15,17.1852 15,17.7212 L15,20.0292 C15,20.5652 14.565,21.0002 14.028,21.0002 L11.972,21.0002 C11.435,21.0002 11,20.5652 11,20.0292 L11,17.7212 Z M16.75,11.9712 C16.75,11.4352 17.185,11.0002 17.722,11.0002 L20.028,11.0002 C20.565,11.0002 21,11.4352 21,11.9712 L21,14.0002 C21,14.5362 20.565,14.9712 20.028,14.9712 L17.722,14.9712 C17.185,14.9712 16.75,14.5362 16.75,14.0002 L16.75,11.9712 Z M16.25,16.7172 C16.25,16.4592 16.459,16.2502 16.717,16.2502 L17.533,16.2502 C17.791,16.2502 18,16.4592 18,16.7172 L18,17.5332 C18,17.7912 17.791,18.0002 17.533,18.0002 L16.717,18.0002 C16.459,18.0002 16.25,17.7912 16.25,17.5332 L16.25,16.7172 Z M16.25,19.7172 C16.25,19.4592 16.459,19.2502 16.717,19.2502 L17.533,19.2502 C17.791,19.2502 18,19.4592 18,19.7172 L18,20.5332 C18,20.7912 17.791,21.0002 17.533,21.0002 L16.717,21.0002 C16.459,21.0002 16.25,20.7912 16.25,20.5332 L16.25,19.7172 Z M19.25,16.7172 C19.25,16.4592 19.459,16.2502 19.717,16.2502 L20.533,16.2502 C20.791,16.2502 21,16.4592 21,16.7172 L21,17.5332 C21,17.7912 20.791,18.0002 20.533,18.0002 L19.717,18.0002 C19.459,18.0002 19.25,17.7912 19.25,17.5332 L19.25,16.7172 Z M19.25,19.7172 C19.25,19.4592 19.459,19.2502 19.717,19.2502 L20.533,19.2502 C20.791,19.2502 21,19.4592 21,19.7172 L21,20.5332 C21,20.7912 20.791,21.0002 20.533,21.0002 L19.717,21.0002 C19.459,21.0002 19.25,20.7912 19.25,20.5332 L19.25,19.7172 Z" id="Fill-292" fill="#FFFFFF"></path>
            </g>
        </g>
        <g id="0:icon32/project/project-template-sealed" transform="translate(0.000000, 240.000000)">
            <g id="0:icon/project/project-template-sealed">
                <g id="Rectangle-50-Copy">
                    <use fill="#AE835D" xlink:href="#path-11"></use>
                    <use fill="url(#linearGradient-10)" xlink:href="#path-11"></use>
                </g>
                <path d="M23.75,8.53434589 C23.75,8.23948874 23.5111429,8.0006316 23.2162857,8.0006316 L22.2837143,8.0006316 C21.9888571,8.0006316 21.75,8.23948874 21.75,8.53434589 C21.75,8.62490767 21.75,8.692829 21.75,8.73810989 C21.75,8.9810457 22.7370946,10.0006316 22.9637848,10.0006316 C23.0198961,10.0006316 23.1040631,10.0006316 23.2162857,10.0006316 C23.5111429,10.0006316 23.75,9.76177446 23.75,9.46691732 L23.75,8.53434589 Z M8.25,8.53434589 C8.25,8.23948874 8.48885714,8.0006316 8.78371429,8.0006316 L9.71628571,8.0006316 C10.0111429,8.0006316 10.25,8.23948874 10.25,8.53434589 C10.25,8.62490767 10.25,8.692829 10.25,8.73810989 C10.25,8.9810457 9.26290538,10.0006316 9.03621521,10.0006316 C8.9801039,10.0006316 8.89593692,10.0006316 8.78371429,10.0006316 C8.48885714,10.0006316 8.25,9.76177446 8.25,9.46691732 L8.25,8.53434589 Z M23.75,22.9669173 C23.75,23.2617745 23.5111429,23.5006316 23.2162857,23.5006316 L22.2837143,23.5006316 C21.9888571,23.5006316 21.75,23.2617745 21.75,22.9669173 C21.75,22.8763555 21.75,22.8084342 21.75,22.7631533 C21.75,22.5202175 22.7370946,21.5006316 22.9637848,21.5006316 C23.1149116,21.5006316 23.1990785,21.5006316 23.2162857,21.5006316 C23.5111429,21.5006316 23.75,21.7394887 23.75,22.0343459 L23.75,22.9669173 Z M8.25,22.9669173 C8.25,23.2617745 8.48885714,23.5006316 8.78371429,23.5006316 L9.71628571,23.5006316 C10.0111429,23.5006316 10.25,23.2617745 10.25,22.9669173 C10.25,22.8763555 10.25,22.8084342 10.25,22.7631533 C10.25,22.5202175 9.26290538,21.5006316 9.03621521,21.5006316 C8.88508844,21.5006316 8.80092146,21.5006316 8.78371429,21.5006316 C8.48885714,21.5006316 8.25,21.7394887 8.25,22.0343459 L8.25,22.9669173 Z M22.8964466,10.8435248 C22.8059369,10.9340345 22.7500755,11.0591924 22.7493684,11.1970782 L22.7493684,11.904185 C22.7500755,12.0420708 22.8059369,12.1672287 22.8964466,12.2577384 C23.0916081,12.4528999 23.4083919,12.4528999 23.6035534,12.2577384 C23.6940631,12.1672287 23.7499245,12.0420708 23.7499245,11.9034779 L23.7499245,11.1963711 C23.7499245,11.0591924 23.6940631,10.9340345 23.6035534,10.8435248 C23.4076848,10.6476562 23.0916081,10.6483633 22.8964466,10.8435248 Z M23.6035534,13.6435248 C23.4083919,13.4483633 23.0916081,13.4483633 22.8964466,13.6435248 C22.8059369,13.7340345 22.7500755,13.8591924 22.7500755,13.9977853 L22.7500755,14.7048921 C22.7500755,14.8420708 22.8059369,14.9672287 22.8964466,15.0577384 C23.0916081,15.2528999 23.4083919,15.2528999 23.6035534,15.0577384 C23.6940631,14.9672287 23.7499245,14.8420708 23.7506316,14.704185 L23.7506316,13.9970782 C23.7499245,13.8591924 23.6940631,13.7340345 23.6035534,13.6435248 M23.6035534,16.4435248 C23.4083919,16.2483633 23.0916081,16.2483633 22.8964466,16.4435248 C22.8059369,16.5340345 22.7500755,16.6591924 22.7493684,16.7970782 L22.7493684,17.504185 C22.7500755,17.6420708 22.8059369,17.7672287 22.8964466,17.8577384 C23.0916081,18.0528999 23.4083919,18.0528999 23.6035534,17.8577384 C23.6940631,17.7672287 23.7499245,17.6420708 23.7499245,17.5034779 L23.7499245,16.7963711 C23.7499245,16.6591924 23.6940631,16.5340345 23.6035534,16.4435248 M22.8964466,19.2435248 C22.8059369,19.3340345 22.7500755,19.4591924 22.7500755,19.5977853 L22.7500755,20.3048921 C22.7500755,20.4420708 22.8059369,20.5672287 22.8964466,20.6577384 C23.0923152,20.853607 23.4083919,20.8528999 23.6035534,20.6577384 C23.6940631,20.5672287 23.7499245,20.4420708 23.7506316,20.304185 L23.7506316,19.5970782 C23.7499245,19.4591924 23.6940631,19.3340345 23.6035534,19.2435248 C23.4083919,19.0483633 23.0916081,19.0483633 22.8964466,19.2435248 M9.10355339,12.2577384 C9.19406306,12.1672287 9.24992449,12.0420708 9.24992449,11.9034779 L9.24992449,11.1963711 C9.24992449,11.0591924 9.19406306,10.9340345 9.10355339,10.8435248 C8.90768481,10.6476562 8.59160808,10.6483633 8.39644661,10.8435248 C8.30593694,10.9340345 8.25007551,11.0591924 8.2493684,11.1970782 L8.2493684,11.904185 C8.25007551,12.0420708 8.30593694,12.1672287 8.39644661,12.2577384 C8.59160808,12.4528999 8.90839192,12.4528999 9.10355339,12.2577384 M8.39644661,15.0577384 C8.59160808,15.2528999 8.90839192,15.2528999 9.10355339,15.0577384 C9.19406306,14.9672287 9.24992449,14.8420708 9.2506316,14.704185 L9.2506316,13.9970782 C9.24992449,13.8591924 9.19406306,13.7340345 9.10355339,13.6435248 C8.90839192,13.4483633 8.59160808,13.4483633 8.39644661,13.6435248 C8.30593694,13.7340345 8.25007551,13.8591924 8.25007551,13.9977853 L8.25007551,14.7048921 C8.25007551,14.8420708 8.30593694,14.9672287 8.39644661,15.0577384 M8.39644661,20.6577384 C8.59231519,20.853607 8.90839192,20.8528999 9.10355339,20.6577384 C9.19406306,20.5672287 9.24992449,20.4420708 9.2506316,20.304185 L9.2506316,19.5970782 C9.24992449,19.4591924 9.19406306,19.3340345 9.10355339,19.2435248 C8.90839192,19.0483633 8.59160808,19.0483633 8.39644661,19.2435248 C8.30593694,19.3340345 8.25007551,19.4591924 8.25007551,19.5977853 L8.25007551,20.3048921 C8.25007551,20.4420708 8.30593694,20.5672287 8.39644661,20.6577384 M8.39644661,17.8577384 C8.59160808,18.0528999 8.90839192,18.0528999 9.10355339,17.8577384 C9.19406306,17.7672287 9.24992449,17.6420708 9.24992449,17.5034779 L9.24992449,16.7963711 C9.24992449,16.6591924 9.19406306,16.5340345 9.10355339,16.4435248 C8.90839192,16.2483633 8.59160808,16.2483633 8.39644661,16.4435248 C8.30593694,16.5340345 8.25007551,16.6591924 8.2493684,16.7970782 L8.2493684,17.504185 C8.25007551,17.6420708 8.30593694,17.7672287 8.39644661,17.8577384 M12.5071068,8.14707821 C12.4165971,8.05656854 12.2914392,8.00070711 12.1535534,8 L11.4464466,8 C11.3085608,8.00070711 11.1834029,8.05656854 11.0928932,8.14707821 C10.8977317,8.34223968 10.8970246,8.65831641 11.0928932,8.85418499 C11.1834029,8.94469466 11.3085608,9.0005561 11.4457395,9.0005561 L12.1528463,9.0005561 C12.2914392,9.0005561 12.4165971,8.94469466 12.5071068,8.85418499 C12.7022683,8.65902352 12.7022683,8.34223968 12.5071068,8.14707821 M15.3071068,8.14707821 C15.2165971,8.05656854 15.0914392,8.00070711 14.9535534,8 L14.2464466,8 C14.1078537,8 13.9834029,8.05656854 13.8928932,8.14707821 C13.6977317,8.34223968 13.6970246,8.65831641 13.8928932,8.85418499 C13.9834029,8.94469466 14.1078537,8.99984899 14.2457395,9.0005561 L14.9528463,9.0005561 C15.0914392,9.0005561 15.2165971,8.94469466 15.3071068,8.85418499 C15.5022683,8.65902352 15.5022683,8.34223968 15.3071068,8.14707821 M18.1071068,8.14707821 C18.0165971,8.05656854 17.8921463,8.00141421 17.7542605,8.00070711 L17.0471537,8.00070711 C16.9085608,8.00070711 16.7834029,8.05656854 16.6928932,8.14707821 C16.4977317,8.34223968 16.4977317,8.65902352 16.6928932,8.85418499 C16.7834029,8.94469466 16.9085608,9.0005561 17.0464466,9.0012632 L17.7535534,9.0012632 C17.8921463,9.0012632 18.0165971,8.94469466 18.1071068,8.85418499 C18.3022683,8.65902352 18.3029754,8.34294679 18.1071068,8.14707821 M20.9071068,8.14707821 C20.8165971,8.05656854 20.6914392,8.00070711 20.5542605,8.00070711 L19.8471537,8.00070711 C19.7085608,8.00070711 19.5834029,8.05656854 19.4928932,8.14707821 C19.2977317,8.34223968 19.2977317,8.65902352 19.4928932,8.85418499 C19.5834029,8.94469466 19.7085608,9.0005561 19.8464466,9.0012632 L20.5535534,9.0012632 C20.6914392,9.0005561 20.8165971,8.94469466 20.9071068,8.85418499 C21.1022683,8.65902352 21.1029754,8.34294679 20.9071068,8.14707821 M12.5071068,22.6470782 C12.4165971,22.5565685 12.2914392,22.5007071 12.1535534,22.5 L11.4464466,22.5 C11.3085608,22.5007071 11.1834029,22.5565685 11.0928932,22.6470782 C10.8977317,22.8422397 10.8970246,23.1583164 11.0928932,23.354185 C11.1834029,23.4446947 11.3085608,23.5005561 11.4457395,23.5005561 L12.1528463,23.5005561 C12.2914392,23.5005561 12.4165971,23.4446947 12.5071068,23.354185 C12.7022683,23.1590235 12.7022683,22.8422397 12.5071068,22.6470782 M15.3071068,22.6470782 C15.2165971,22.5565685 15.0914392,22.5007071 14.9535534,22.5 L14.2464466,22.5 C14.1078537,22.5 13.9834029,22.5565685 13.8928932,22.6470782 C13.6977317,22.8422397 13.6970246,23.1583164 13.8928932,23.354185 C13.9834029,23.4446947 14.1078537,23.499849 14.2457395,23.5005561 L14.9528463,23.5005561 C15.0914392,23.5005561 15.2165971,23.4446947 15.3071068,23.354185 C15.5022683,23.1590235 15.5022683,22.8422397 15.3071068,22.6470782 M18.1071068,22.6470782 C18.0165971,22.5565685 17.8921463,22.5014142 17.7542605,22.5007071 L17.0471537,22.5007071 C16.9085608,22.5007071 16.7834029,22.5565685 16.6928932,22.6470782 C16.4977317,22.8422397 16.4977317,23.1590235 16.6928932,23.354185 C16.7834029,23.4446947 16.9085608,23.5005561 17.0464466,23.5012632 L17.7535534,23.5012632 C17.8921463,23.5012632 18.0165971,23.4446947 18.1071068,23.354185 C18.1976164,23.2636753 18.254185,23.1392245 18.254185,23.0006316 C18.2534779,22.8627458 18.1976164,22.7375879 18.1071068,22.6470782 M20.9071068,22.6470782 C21.1029754,22.8429468 21.1022683,23.1590235 20.9071068,23.354185 C20.8165971,23.4446947 20.6914392,23.5005561 20.5535534,23.5012632 L19.8464466,23.5012632 C19.7085608,23.5005561 19.5834029,23.4446947 19.4928932,23.354185 C19.2977317,23.1590235 19.2977317,22.8422397 19.4928932,22.6470782 C19.5834029,22.5565685 19.7085608,22.5007071 19.8471537,22.5007071 L20.5542605,22.5007071 C20.6914392,22.5007071 20.8165971,22.5565685 20.9071068,22.6470782" id="Fill-107" fill="#FFFFFF"></path>
                <path d="M19.8053579,15.7442844 C19.675691,15.6116979 19.5183444,15.5454543 19.3330747,15.5454543 L19.1109797,15.5454543 L19.1109797,14.1817534 C19.1109797,13.3105628 18.8055048,12.562531 18.1943606,11.9375335 C17.5832649,11.3125112 16.8519155,11 15.9999474,11 C15.1480036,11 14.4165082,11.3125112 13.8054612,11.9375087 C13.1943169,12.562531 12.8888421,13.310538 12.8888421,14.1817534 L12.8888421,15.5454543 L12.6666498,15.5454543 C12.481526,15.5454543 12.3240821,15.6116979 12.1944395,15.7442844 C12.064797,15.8767714 12,16.0377907 12,16.2272924 L12,20.3181217 C12,20.5074493 12.0648213,20.6685183 12.1944395,20.8011297 C12.3240821,20.9335919 12.481526,20.99991 12.6666498,20.99991 L19.3332449,20.99991 C19.5185146,20.99991 19.675837,20.9336665 19.8055282,20.8011297 C19.9350491,20.6685183 19.9999678,20.5074493 19.9999678,20.3181217 L19.9999678,16.2272178 C20.000065,16.0378653 19.9350491,15.8768709 19.8053579,15.7442844 Z M17.7777044,15.5454543 L14.2221903,15.5454543 L14.2221903,14.1817534 C14.2221903,13.6798897 14.3958335,13.2513591 14.7430469,12.8963108 C15.090309,12.5412127 15.5092515,12.363701 16.0000203,12.363701 C16.4908378,12.363701 16.909683,12.5411878 17.2569694,12.8963108 C17.6040856,13.2513342 17.7777044,13.6798897 17.7777044,14.1817534 L17.7777044,15.5454543 Z" id="Shape" fill="#FFFFFF"></path>
            </g>
        </g>
        <g id="0:icon32/project/project-template" transform="translate(0.000000, 200.000000)">
            <g id="0:icon/project/project-template">
                <g id="Rectangle-50-Copy">
                    <use fill="#AE835D" xlink:href="#path-12"></use>
                    <use fill="url(#linearGradient-10)" xlink:href="#path-12"></use>
                </g>
                <path d="M23.75,8.78371429 C23.75,8.48885714 23.5111429,8.25 23.2162857,8.25 L22.2837143,8.25 C21.9888571,8.25 21.75,8.48885714 21.75,8.78371429 C21.75,8.87427606 21.75,8.9421974 21.75,8.98747829 C21.75,9.2304141 22.7370946,10.25 22.9637848,10.25 C23.0198961,10.25 23.1040631,10.25 23.2162857,10.25 C23.5111429,10.25 23.75,10.0111429 23.75,9.71628571 L23.75,8.78371429 Z M8.25,8.78371429 C8.25,8.48885714 8.48885714,8.25 8.78371429,8.25 L9.71628571,8.25 C10.0111429,8.25 10.25,8.48885714 10.25,8.78371429 C10.25,8.87427606 10.25,8.9421974 10.25,8.98747829 C10.25,9.2304141 9.26290538,10.25 9.03621521,10.25 C8.9801039,10.25 8.89593692,10.25 8.78371429,10.25 C8.48885714,10.25 8.25,10.0111429 8.25,9.71628571 L8.25,8.78371429 Z M23.75,23.2162857 C23.75,23.5111429 23.5111429,23.75 23.2162857,23.75 L22.2837143,23.75 C21.9888571,23.75 21.75,23.5111429 21.75,23.2162857 C21.75,23.1257239 21.75,23.0578026 21.75,23.0125217 C21.75,22.7695859 22.7370946,21.75 22.9637848,21.75 C23.1149116,21.75 23.1990785,21.75 23.2162857,21.75 C23.5111429,21.75 23.75,21.9888571 23.75,22.2837143 L23.75,23.2162857 Z M8.25,23.2162857 C8.25,23.5111429 8.48885714,23.75 8.78371429,23.75 L9.71628571,23.75 C10.0111429,23.75 10.25,23.5111429 10.25,23.2162857 C10.25,23.1257239 10.25,23.0578026 10.25,23.0125217 C10.25,22.7695859 9.26290538,21.75 9.03621521,21.75 C8.88508844,21.75 8.80092146,21.75 8.78371429,21.75 C8.48885714,21.75 8.25,21.9888571 8.25,22.2837143 L8.25,23.2162857 Z M22.8964466,11.0928932 C22.8059369,11.1834029 22.7500755,11.3085608 22.7493684,11.4464466 L22.7493684,12.1535534 C22.7500755,12.2914392 22.8059369,12.4165971 22.8964466,12.5071068 C23.0916081,12.7022683 23.4083919,12.7022683 23.6035534,12.5071068 C23.6940631,12.4165971 23.7499245,12.2914392 23.7499245,12.1528463 L23.7499245,11.4457395 C23.7499245,11.3085608 23.6940631,11.1834029 23.6035534,11.0928932 C23.4076848,10.8970246 23.0916081,10.8977317 22.8964466,11.0928932 Z M23.6035534,13.8928932 C23.4083919,13.6977317 23.0916081,13.6977317 22.8964466,13.8928932 C22.8059369,13.9834029 22.7500755,14.1085608 22.7500755,14.2471537 L22.7500755,14.9542605 C22.7500755,15.0914392 22.8059369,15.2165971 22.8964466,15.3071068 C23.0916081,15.5022683 23.4083919,15.5022683 23.6035534,15.3071068 C23.6940631,15.2165971 23.7499245,15.0914392 23.7506316,14.9535534 L23.7506316,14.2464466 C23.7499245,14.1085608 23.6940631,13.9834029 23.6035534,13.8928932 M23.6035534,16.6928932 C23.4083919,16.4977317 23.0916081,16.4977317 22.8964466,16.6928932 C22.8059369,16.7834029 22.7500755,16.9085608 22.7493684,17.0464466 L22.7493684,17.7535534 C22.7500755,17.8914392 22.8059369,18.0165971 22.8964466,18.1071068 C23.0916081,18.3022683 23.4083919,18.3022683 23.6035534,18.1071068 C23.6940631,18.0165971 23.7499245,17.8914392 23.7499245,17.7528463 L23.7499245,17.0457395 C23.7499245,16.9085608 23.6940631,16.7834029 23.6035534,16.6928932 M22.8964466,19.4928932 C22.8059369,19.5834029 22.7500755,19.7085608 22.7500755,19.8471537 L22.7500755,20.5542605 C22.7500755,20.6914392 22.8059369,20.8165971 22.8964466,20.9071068 C23.0923152,21.1029754 23.4083919,21.1022683 23.6035534,20.9071068 C23.6940631,20.8165971 23.7499245,20.6914392 23.7506316,20.5535534 L23.7506316,19.8464466 C23.7499245,19.7085608 23.6940631,19.5834029 23.6035534,19.4928932 C23.4083919,19.2977317 23.0916081,19.2977317 22.8964466,19.4928932 M9.10355339,12.5071068 C9.19406306,12.4165971 9.24992449,12.2914392 9.24992449,12.1528463 L9.24992449,11.4457395 C9.24992449,11.3085608 9.19406306,11.1834029 9.10355339,11.0928932 C8.90768481,10.8970246 8.59160808,10.8977317 8.39644661,11.0928932 C8.30593694,11.1834029 8.25007551,11.3085608 8.2493684,11.4464466 L8.2493684,12.1535534 C8.25007551,12.2914392 8.30593694,12.4165971 8.39644661,12.5071068 C8.59160808,12.7022683 8.90839192,12.7022683 9.10355339,12.5071068 M8.39644661,15.3071068 C8.59160808,15.5022683 8.90839192,15.5022683 9.10355339,15.3071068 C9.19406306,15.2165971 9.24992449,15.0914392 9.2506316,14.9535534 L9.2506316,14.2464466 C9.24992449,14.1085608 9.19406306,13.9834029 9.10355339,13.8928932 C8.90839192,13.6977317 8.59160808,13.6977317 8.39644661,13.8928932 C8.30593694,13.9834029 8.25007551,14.1085608 8.25007551,14.2471537 L8.25007551,14.9542605 C8.25007551,15.0914392 8.30593694,15.2165971 8.39644661,15.3071068 M8.39644661,20.9071068 C8.59231519,21.1029754 8.90839192,21.1022683 9.10355339,20.9071068 C9.19406306,20.8165971 9.24992449,20.6914392 9.2506316,20.5535534 L9.2506316,19.8464466 C9.24992449,19.7085608 9.19406306,19.5834029 9.10355339,19.4928932 C8.90839192,19.2977317 8.59160808,19.2977317 8.39644661,19.4928932 C8.30593694,19.5834029 8.25007551,19.7085608 8.25007551,19.8471537 L8.25007551,20.5542605 C8.25007551,20.6914392 8.30593694,20.8165971 8.39644661,20.9071068 M8.39644661,18.1071068 C8.59160808,18.3022683 8.90839192,18.3022683 9.10355339,18.1071068 C9.19406306,18.0165971 9.24992449,17.8914392 9.24992449,17.7528463 L9.24992449,17.0457395 C9.24992449,16.9085608 9.19406306,16.7834029 9.10355339,16.6928932 C8.90839192,16.4977317 8.59160808,16.4977317 8.39644661,16.6928932 C8.30593694,16.7834029 8.25007551,16.9085608 8.2493684,17.0464466 L8.2493684,17.7535534 C8.25007551,17.8914392 8.30593694,18.0165971 8.39644661,18.1071068 M12.5071068,8.39644661 C12.4165971,8.30593694 12.2914392,8.25007551 12.1535534,8.2493684 L11.4464466,8.2493684 C11.3085608,8.25007551 11.1834029,8.30593694 11.0928932,8.39644661 C10.8977317,8.59160808 10.8970246,8.90768481 11.0928932,9.10355339 C11.1834029,9.19406306 11.3085608,9.24992449 11.4457395,9.24992449 L12.1528463,9.24992449 C12.2914392,9.24992449 12.4165971,9.19406306 12.5071068,9.10355339 C12.7022683,8.90839192 12.7022683,8.59160808 12.5071068,8.39644661 M15.3071068,8.39644661 C15.2165971,8.30593694 15.0914392,8.25007551 14.9535534,8.2493684 L14.2464466,8.2493684 C14.1078537,8.2493684 13.9834029,8.30593694 13.8928932,8.39644661 C13.6977317,8.59160808 13.6970246,8.90768481 13.8928932,9.10355339 C13.9834029,9.19406306 14.1078537,9.24921739 14.2457395,9.24992449 L14.9528463,9.24992449 C15.0914392,9.24992449 15.2165971,9.19406306 15.3071068,9.10355339 C15.5022683,8.90839192 15.5022683,8.59160808 15.3071068,8.39644661 M18.1071068,8.39644661 C18.0165971,8.30593694 17.8921463,8.25078261 17.7542605,8.25007551 L17.0471537,8.25007551 C16.9085608,8.25007551 16.7834029,8.30593694 16.6928932,8.39644661 C16.4977317,8.59160808 16.4977317,8.90839192 16.6928932,9.10355339 C16.7834029,9.19406306 16.9085608,9.24992449 17.0464466,9.2506316 L17.7535534,9.2506316 C17.8921463,9.2506316 18.0165971,9.19406306 18.1071068,9.10355339 C18.3022683,8.90839192 18.3029754,8.59231519 18.1071068,8.39644661 M20.9071068,8.39644661 C20.8165971,8.30593694 20.6914392,8.25007551 20.5542605,8.25007551 L19.8471537,8.25007551 C19.7085608,8.25007551 19.5834029,8.30593694 19.4928932,8.39644661 C19.2977317,8.59160808 19.2977317,8.90839192 19.4928932,9.10355339 C19.5834029,9.19406306 19.7085608,9.24992449 19.8464466,9.2506316 L20.5535534,9.2506316 C20.6914392,9.24992449 20.8165971,9.19406306 20.9071068,9.10355339 C21.1022683,8.90839192 21.1029754,8.59231519 20.9071068,8.39644661 M12.5071068,22.8964466 C12.4165971,22.8059369 12.2914392,22.7500755 12.1535534,22.7493684 L11.4464466,22.7493684 C11.3085608,22.7500755 11.1834029,22.8059369 11.0928932,22.8964466 C10.8977317,23.0916081 10.8970246,23.4076848 11.0928932,23.6035534 C11.1834029,23.6940631 11.3085608,23.7499245 11.4457395,23.7499245 L12.1528463,23.7499245 C12.2914392,23.7499245 12.4165971,23.6940631 12.5071068,23.6035534 C12.7022683,23.4083919 12.7022683,23.0916081 12.5071068,22.8964466 M15.3071068,22.8964466 C15.2165971,22.8059369 15.0914392,22.7500755 14.9535534,22.7493684 L14.2464466,22.7493684 C14.1078537,22.7493684 13.9834029,22.8059369 13.8928932,22.8964466 C13.6977317,23.0916081 13.6970246,23.4076848 13.8928932,23.6035534 C13.9834029,23.6940631 14.1078537,23.7492174 14.2457395,23.7499245 L14.9528463,23.7499245 C15.0914392,23.7499245 15.2165971,23.6940631 15.3071068,23.6035534 C15.5022683,23.4083919 15.5022683,23.0916081 15.3071068,22.8964466 M18.1071068,22.8964466 C18.0165971,22.8059369 17.8921463,22.7507826 17.7542605,22.7500755 L17.0471537,22.7500755 C16.9085608,22.7500755 16.7834029,22.8059369 16.6928932,22.8964466 C16.4977317,23.0916081 16.4977317,23.4083919 16.6928932,23.6035534 C16.7834029,23.6940631 16.9085608,23.7499245 17.0464466,23.7506316 L17.7535534,23.7506316 C17.8921463,23.7506316 18.0165971,23.6940631 18.1071068,23.6035534 C18.1976164,23.5130437 18.254185,23.3885929 18.254185,23.25 C18.2534779,23.1121142 18.1976164,22.9869563 18.1071068,22.8964466 M20.9071068,22.8964466 C21.1029754,23.0923152 21.1022683,23.4083919 20.9071068,23.6035534 C20.8165971,23.6940631 20.6914392,23.7499245 20.5535534,23.7506316 L19.8464466,23.7506316 C19.7085608,23.7499245 19.5834029,23.6940631 19.4928932,23.6035534 C19.2977317,23.4083919 19.2977317,23.0916081 19.4928932,22.8964466 C19.5834029,22.8059369 19.7085608,22.7500755 19.8471537,22.7500755 L20.5542605,22.7500755 C20.6914392,22.7500755 20.8165971,22.8059369 20.9071068,22.8964466" id="Fill-107" fill="#FFFFFF"></path>
                <path d="M11,11.9712 C11,11.4352 11.435,11.0002 11.972,11.0002 L14.278,11.0002 C14.815,11.0002 15.25,11.4352 15.25,11.9712 L15.25,14.2792 C15.25,14.8152 14.815,15.2502 14.278,15.2502 L11.972,15.2502 C11.435,15.2502 11,14.8152 11,14.2792 L11,11.9712 Z M11,17.7212 C11,17.1852 11.435,16.7502 11.972,16.7502 L14.028,16.7502 C14.565,16.7502 15,17.1852 15,17.7212 L15,20.0292 C15,20.5652 14.565,21.0002 14.028,21.0002 L11.972,21.0002 C11.435,21.0002 11,20.5652 11,20.0292 L11,17.7212 Z M16.75,11.9712 C16.75,11.4352 17.185,11.0002 17.722,11.0002 L20.028,11.0002 C20.565,11.0002 21,11.4352 21,11.9712 L21,14.0002 C21,14.5362 20.565,14.9712 20.028,14.9712 L17.722,14.9712 C17.185,14.9712 16.75,14.5362 16.75,14.0002 L16.75,11.9712 Z M16.25,16.7172 C16.25,16.4592 16.459,16.2502 16.717,16.2502 L17.533,16.2502 C17.791,16.2502 18,16.4592 18,16.7172 L18,17.5332 C18,17.7912 17.791,18.0002 17.533,18.0002 L16.717,18.0002 C16.459,18.0002 16.25,17.7912 16.25,17.5332 L16.25,16.7172 Z M16.25,19.7172 C16.25,19.4592 16.459,19.2502 16.717,19.2502 L17.533,19.2502 C17.791,19.2502 18,19.4592 18,19.7172 L18,20.5332 C18,20.7912 17.791,21.0002 17.533,21.0002 L16.717,21.0002 C16.459,21.0002 16.25,20.7912 16.25,20.5332 L16.25,19.7172 Z M19.25,16.7172 C19.25,16.4592 19.459,16.2502 19.717,16.2502 L20.533,16.2502 C20.791,16.2502 21,16.4592 21,16.7172 L21,17.5332 C21,17.7912 20.791,18.0002 20.533,18.0002 L19.717,18.0002 C19.459,18.0002 19.25,17.7912 19.25,17.5332 L19.25,16.7172 Z M19.25,19.7172 C19.25,19.4592 19.459,19.2502 19.717,19.2502 L20.533,19.2502 C20.791,19.2502 21,19.4592 21,19.7172 L21,20.5332 C21,20.7912 20.791,21.0002 20.533,21.0002 L19.717,21.0002 C19.459,21.0002 19.25,20.7912 19.25,20.5332 L19.25,19.7172 Z" id="Fill-292" fill="#FFFFFF"></path>
            </g>
        </g>
        <g id="0:icon32/project/project-sealed-test" transform="translate(0.000000, 160.000000)">
            <g id="ikon-project-copy">
                <rect id="Rectangle-50-Copy" fill="url(#linearGradient-13)" x="0" y="0" width="32" height="32" rx="2"></rect>
                <path d="M19.6067708,9 C17.5260824,9 15.8333333,10.692749 15.8333333,12.7734375 C15.8333333,14.6683807 17.2374776,16.241394 19.0598958,16.5071411 L19.0598958,22.453125 C19.0598958,22.755188 19.3047078,23 19.6067708,23 C19.9088338,23 20.1536458,22.755188 20.1536458,22.453125 L20.1536458,16.5071411 C21.9760641,16.241394 23.3802083,14.6683807 23.3802083,12.7734375 C23.3802083,10.692749 21.6874593,9 19.6067708,9 Z M19.6067708,15.453125 C18.129247,15.453125 16.9270833,14.2510681 16.9270833,12.7734375 C16.9270833,11.2958069 18.129247,10.09375 19.6067708,10.09375 C21.0842946,10.09375 22.2864583,11.2958069 22.2864583,12.7734375 C22.2864583,14.2510681 21.0842946,15.453125 19.6067708,15.453125 Z M24.1596491,18.1089014 C24.1596491,17.717386 24.47049,17.4 24.8685505,17.4 L25.1454846,17.4 C25.537,17.4 25.854386,17.7108409 25.854386,18.1089014 L25.854386,18.3858354 C25.854386,18.7773509 25.5435451,19.0947368 25.1454846,19.0947368 L24.8685505,19.0947368 C24.4770351,19.0947368 24.1596491,18.783896 24.1596491,18.3858354 L24.1596491,18.1089014 Z M24.1596491,20.0246909 C24.1596491,19.6331754 24.47049,19.3157895 24.8685505,19.3157895 L25.1454846,19.3157895 C25.537,19.3157895 25.854386,19.6266303 25.854386,20.0246909 L25.854386,20.3016249 C25.854386,20.6931403 25.5435451,21.0105263 25.1454846,21.0105263 L24.8685505,21.0105263 C24.4770351,21.0105263 24.1596491,20.6996855 24.1596491,20.3016249 L24.1596491,20.0246909 Z M26.3333333,18.1089014 C26.3333333,17.717386 26.6441742,17.4 27.0422347,17.4 L27.3191688,17.4 C27.7106842,17.4 28.0280702,17.7108409 28.0280702,18.1089014 L28.0280702,18.3858354 C28.0280702,18.7773509 27.7172293,19.0947368 27.3191688,19.0947368 L27.0422347,19.0947368 C26.6507193,19.0947368 26.3333333,18.783896 26.3333333,18.3858354 L26.3333333,18.1089014 Z M26.3333333,20.0246909 C26.3333333,19.6331754 26.6441742,19.3157895 27.0422347,19.3157895 L27.3191688,19.3157895 C27.7106842,19.3157895 28.0280702,19.6266303 28.0280702,20.0246909 L28.0280702,20.3016249 C28.0280702,20.6931403 27.7172293,21.0105263 27.3191688,21.0105263 L27.0422347,21.0105263 C26.6507193,21.0105263 26.3333333,20.6996855 26.3333333,20.3016249 L26.3333333,20.0246909 Z M26.6067708,15.4928589 L26.6067708,9.57421875 C26.6067708,9.27215576 26.3619588,9.02734375 26.0598958,9.02734375 C25.7578328,9.02734375 25.5130208,9.27215576 25.5130208,9.57421875 L25.5130208,15.4928589 C23.6906026,15.758606 22.2864583,17.3316193 22.2864583,19.2265625 C22.2864583,21.307251 23.9792074,23 26.0598958,23 C28.1405843,23 29.8333333,21.307251 29.8333333,19.2265625 C29.8333333,17.3316193 28.4291891,15.758606 26.6067708,15.4928589 Z M26.0598958,21.90625 C24.582372,21.90625 23.3802083,20.7041931 23.3802083,19.2265625 C23.3802083,17.7489319 24.582372,16.546875 26.0598958,16.546875 C27.5374196,16.546875 28.7395833,17.7489319 28.7395833,19.2265625 C28.7395833,20.7041931 27.5374196,21.90625 26.0598958,21.90625 Z M17.7491228,11.9225162 C17.7491228,11.3665164 18.2008793,10.9157895 18.7558495,10.9157895 L20.4266066,10.9157895 C20.9826064,10.9157895 21.4333333,11.367546 21.4333333,11.9225162 L21.4333333,13.5932733 C21.4333333,14.1492731 20.9815768,14.6 20.4266066,14.6 L18.7558495,14.6 C18.1998497,14.6 17.7491228,14.1482435 17.7491228,13.5932733 L17.7491228,11.9225162 Z M13.9275994,15.6420579 C13.7460641,15.4564351 13.5257768,15.3636934 13.2663969,15.3636934 L12.9554612,15.3636934 L12.9554612,13.4544948 C12.9554612,12.2348171 12.5277925,11.1875631 11.6721828,10.3125588 C10.8166412,9.43751959 9.7927428,9 8.59997671,9 C7.40724466,9 6.3831419,9.43751959 5.52766842,10.3125239 C4.67205872,11.1875631 4.24439008,12.2347823 4.24439008,13.4544948 L4.24439008,15.3636934 L3.9333181,15.3636934 C3.67414253,15.3636934 3.453719,15.4564351 3.27221778,15.6420579 C3.09071656,15.8275414 3,16.0529704 3,16.3182752 L3,22.0454878 C3,22.3105488 3.09075061,22.5360474 3.27221778,22.7217051 C3.453719,22.9071538 3.67414253,23 3.9333181,23 L13.2666353,23 C13.5260152,23 13.7462685,22.9072582 13.9278378,22.7217051 C14.1091687,22.5360474 14.2000557,22.3105488 14.2000557,22.0454878 L14.2000557,16.3181707 C14.2001918,16.0530749 14.1091687,15.8276807 13.9275994,15.6420579 Z M11.088859,15.3636934 L6.11109439,15.3636934 L6.11109439,13.4544948 C6.11109439,12.7518794 6.35419705,12.1519311 6.84030023,11.654859 C7.32647151,11.1577172 7.91299629,10.9091986 8.60007886,10.9091986 C9.28722955,10.9091986 9.87361811,11.1576824 10.3598234,11.654859 C10.8457904,12.1518963 11.088859,12.7518794 11.088859,13.4544948 L11.088859,15.3636934 Z" id="Shape" fill="#FFFFFF" fill-rule="nonzero"></path>
            </g>
        </g>
        <g id="0:icon32/project/project-sealed" transform="translate(0.000000, 40.000000)">
            <g id="ikon-project-copy">
                <rect id="Rectangle-50-Copy" fill="url(#linearGradient-13)" x="0" y="0" width="32" height="32" rx="2"></rect>
                <path d="M23.0497008,15.5397463 C22.8162995,15.3010896 22.5330743,15.1818507 22.1995875,15.1818507 L21.799815,15.1818507 L21.799815,12.7271791 C21.799815,11.1590299 21.249958,9.81256716 20.1498939,8.68756716 C19.0499173,7.56252239 17.733483,7 16.1999342,7 C14.6664292,7 13.3497322,7.56252239 12.2498432,8.68752239 C11.1497791,9.81256716 10.5999221,11.1589851 10.5999221,12.7271791 L10.5999221,15.1818507 L10.1999744,15.1818507 C9.86675037,15.1818507 9.5833501,15.3010896 9.34999255,15.5397463 C9.11663499,15.7782239 9,16.0680597 9,16.4091642 L9,23.7726866 C9,24.1134776 9.11667878,24.403403 9.34999255,24.6421045 C9.5833501,24.8805373 9.86675037,24.9999104 10.1999744,24.9999104 L22.199894,24.9999104 C22.5333808,24.9999104 22.8165621,24.8806716 23.0500073,24.6421045 C23.2831459,24.403403 23.4,24.1134776 23.4,23.7726866 L23.4,16.4090299 C23.4001749,16.068194 23.2831459,15.778403 23.0497008,15.5397463 Z M19.3999099,15.1818507 L12.9999586,15.1818507 L12.9999586,12.7271791 C12.9999586,11.8238209 13.3125176,11.0524627 13.9375043,10.4133731 C14.5625786,9.77419403 15.3166781,9.45467164 16.2000656,9.45467164 C17.0835406,9.45467164 17.837465,9.77414925 18.4625831,10.4133731 C19.0873946,11.0524179 19.3999099,11.8238209 19.3999099,12.7271791 L19.3999099,15.1818507 Z" id="Shape" fill="#FFFFFF"></path>
            </g>
        </g>
        <g id="0:icon32/project/project-double-sealed" transform="translate(0.000000, 80.000000)">
            <g id="ikon-project-copy">
                <rect id="Rectangle-50-Copy" fill="url(#linearGradient-13)" x="0" y="0" width="32" height="32" rx="2"></rect>
                <mask id="mask-15" fill="white">
                    <use xlink:href="#path-14"></use>
                </mask>
                <use id="Mask" fill="#FFFFFF" fill-rule="nonzero" xlink:href="#path-14"></use>
            </g>
        </g>
        <g id="0:icon32/project/project-test" transform="translate(0.000000, 120.000000)">
            <g id="ikon-project-copy">
                <rect id="Rectangle-50-Copy" fill="url(#linearGradient-13)" x="0" y="0" width="32" height="32" rx="2"></rect>
                <path d="M12.1210938,7 C9.29730225,7 7,9.29730225 7,12.1210938 C7,14.6928024 8.90562437,16.8276062 11.3789062,17.1882629 L11.3789062,25.2578125 C11.3789062,25.6677551 11.7111511,26 12.1210938,26 C12.5310364,26 12.8632812,25.6677551 12.8632812,25.2578125 L12.8632812,17.1882629 C15.3365631,16.8276062 17.2421875,14.6928024 17.2421875,12.1210938 C17.2421875,9.29730225 14.9448853,7 12.1210938,7 Z M12.1210938,15.7578125 C10.1158829,15.7578125 8.484375,14.1264496 8.484375,12.1210938 C8.484375,10.1157379 10.1158829,8.484375 12.1210938,8.484375 C14.1263046,8.484375 15.7578125,10.1157379 15.7578125,12.1210938 C15.7578125,14.1264496 14.1263046,15.7578125 12.1210938,15.7578125 Z M18.3,19.1025733 C18.3,18.7145528 18.6198051,18.4 19.0025733,18.4 L19.8974267,18.4 C20.2854472,18.4 20.6,18.7198051 20.6,19.1025733 L20.6,19.9974267 C20.6,20.3854472 20.2801949,20.7 19.8974267,20.7 L19.0025733,20.7 C18.6145528,20.7 18.3,20.3801949 18.3,19.9974267 L18.3,19.1025733 Z M18.3,21.7025733 C18.3,21.3145528 18.6198051,21 19.0025733,21 L19.8974267,21 C20.2854472,21 20.6,21.3198051 20.6,21.7025733 L20.6,22.5974267 C20.6,22.9854472 20.2801949,23.3 19.8974267,23.3 L19.0025733,23.3 C18.6145528,23.3 18.3,22.9801949 18.3,22.5974267 L18.3,21.7025733 Z M21.25,19.1025733 C21.25,18.7145528 21.5698051,18.4 21.9525733,18.4 L22.8474267,18.4 C23.2354472,18.4 23.55,18.7198051 23.55,19.1025733 L23.55,19.9974267 C23.55,20.3854472 23.2301949,20.7 22.8474267,20.7 L21.9525733,20.7 C21.5645528,20.7 21.25,20.3801949 21.25,19.9974267 L21.25,19.1025733 Z M21.25,21.7025733 C21.25,21.3145528 21.5698051,21 21.9525733,21 L22.8474267,21 C23.2354472,21 23.55,21.3198051 23.55,21.7025733 L23.55,22.5974267 C23.55,22.9854472 23.2301949,23.3 22.8474267,23.3 L21.9525733,23.3 C21.5645528,23.3 21.25,22.9801949 21.25,22.5974267 L21.25,21.7025733 Z M21.6210938,15.8117371 L21.6210938,7.77929688 C21.6210938,7.36935425 21.2888489,7.03710938 20.8789062,7.03710938 C20.4689636,7.03710938 20.1367188,7.36935425 20.1367188,7.77929688 L20.1367188,15.8117371 C17.6634369,16.1723938 15.7578125,18.3071976 15.7578125,20.8789062 C15.7578125,23.7026978 18.0551147,26 20.8789062,26 C23.7026978,26 26,23.7026978 26,20.8789062 C26,18.3071976 24.0943756,16.1723938 21.6210938,15.8117371 Z M20.8789062,24.515625 C18.8736954,24.515625 17.2421875,22.8842621 17.2421875,20.8789062 C17.2421875,18.8735504 18.8736954,17.2421875 20.8789062,17.2421875 C22.8841171,17.2421875 24.515625,18.8735504 24.515625,20.8789062 C24.515625,22.8842621 22.8841171,24.515625 20.8789062,24.515625 Z M9.6,10.5998075 C9.6,10.0476291 10.0437166,9.6 10.5998075,9.6 L13.6001925,9.6 C14.1523709,9.6 14.6,10.0437166 14.6,10.5998075 L14.6,13.6001925 C14.6,14.1523709 14.1562834,14.6 13.6001925,14.6 L10.5998075,14.6 C10.0476291,14.6 9.6,14.1562834 9.6,13.6001925 L9.6,10.5998075 Z" id="Shape" fill="#FFFFFF" fill-rule="nonzero"></path>
            </g>
        </g>
        <g id="0:icon32/project/project">
            <g id="0:icon/events/project">
                <rect id="Rectangle-50-Copy" fill="url(#linearGradient-13)" x="0" y="0" width="32" height="32" rx="2"></rect>
                <path d="M8,10.0059191 C8,8.89808055 8.88655484,8 10.0059191,8 L12.9940809,8 C14.1019194,8 15,8.88655484 15,10.0059191 L15,12.9940809 C15,14.1019194 14.1134452,15 12.9940809,15 L10.0059191,15 C8.89808055,15 8,14.1134452 8,12.9940809 L8,10.0059191 Z M8,19.0059191 C8,17.8980806 8.88655484,17 10.0059191,17 L12.9940809,17 C14.1019194,17 15,17.8865548 15,19.0059191 L15,21.9940809 C15,23.1019194 14.1134452,24 12.9940809,24 L10.0059191,24 C8.89808055,24 8,23.1134452 8,21.9940809 L8,19.0059191 Z M17,10.0059191 C17,8.89808055 17.8865548,8 19.0059191,8 L21.9940809,8 C23.1019194,8 24,8.88655484 24,10.0059191 L24,12.9940809 C24,14.1019194 23.1134452,15 21.9940809,15 L19.0059191,15 C17.8980806,15 17,14.1134452 17,12.9940809 L17,10.0059191 Z M17,17.9989566 C17,17.4472481 17.4426603,17 17.9989566,17 L19.0010434,17 C19.5527519,17 20,17.4426603 20,17.9989566 L20,19.0010434 C20,19.5527519 19.5573397,20 19.0010434,20 L17.9989566,20 C17.4472481,20 17,19.5573397 17,19.0010434 L17,17.9989566 Z M17,21.9989566 C17,21.4472481 17.4426603,21 17.9989566,21 L19.0010434,21 C19.5527519,21 20,21.4426603 20,21.9989566 L20,23.0010434 C20,23.5527519 19.5573397,24 19.0010434,24 L17.9989566,24 C17.4472481,24 17,23.5573397 17,23.0010434 L17,21.9989566 Z M21,17.9989566 C21,17.4472481 21.4426603,17 21.9989566,17 L23.0010434,17 C23.5527519,17 24,17.4426603 24,17.9989566 L24,19.0010434 C24,19.5527519 23.5573397,20 23.0010434,20 L21.9989566,20 C21.4472481,20 21,19.5573397 21,19.0010434 L21,17.9989566 Z M21,21.9989566 C21,21.4472481 21.4426603,21 21.9989566,21 L23.0010434,21 C23.5527519,21 24,21.4426603 24,21.9989566 L24,23.0010434 C24,23.5527519 23.5573397,24 23.0010434,24 L21.9989566,24 C21.4472481,24 21,23.5573397 21,23.0010434 L21,21.9989566 Z" id="Combined-Shape-Copy-11" fill="#FFFFFF"></path>
            </g>
        </g>
    </g>
</svg>