<?xml version="1.0" encoding="UTF-8"?>
<svg width="1280px" height="1024px" viewBox="0 0 1280 1024" version="1.1" xmlns="http://www.w3.org/2000/svg" xmlns:xlink="http://www.w3.org/1999/xlink">
    <!-- Generator: Sketch 55.2 (78181) - https://sketchapp.com -->
    <title>sprite_icons_cso_32x32</title>
    <desc>Created with Sketch.</desc>
    <defs>
        <path d="M32,16.0006579 C32,24.8377633 24.8358799,32.0020219 16.0001412,32.0020219 C7.16369639,32.0020219 0,24.837622 0,16.0006579 C0,7.16397616 7.16369639,0 16.0001412,0 C24.8358799,0 32,7.1641174 32,16.0006579 Z M18.009453,15.5939599 C17.7995751,15.3826569 17.544895,15.2770846 17.2450188,15.2770846 L16.8855375,15.2770846 L16.8855375,13.1037555 C16.8855375,11.7153399 16.3910982,10.5232023 15.4019045,9.52714433 C14.4127896,8.53104673 13.2290328,8.03299793 11.8500435,8.03299793 C10.4710935,8.03299793 9.28710047,8.53104673 8.29806431,9.52710469 C7.30887067,10.5232023 6.81443133,11.7153003 6.81443133,13.1037555 L6.81443133,15.2770846 L6.45479256,15.2770846 C6.15515263,15.2770846 5.90031499,15.3826569 5.6904765,15.5939599 C5.480638,15.8051044 5.37575812,16.0617206 5.37575812,16.3637293 L5.37575812,22.8832805 C5.37575812,23.1850117 5.48067737,23.4417073 5.6904765,23.6530499 C5.90031499,23.8641548 6.15515263,23.9698459 6.45479256,23.9698459 L17.2452944,23.9698459 C17.5451705,23.9698459 17.7998113,23.8642737 18.0097286,23.6530499 C18.2193702,23.4417073 18.3244471,23.1850117 18.3244471,22.8832805 L18.3244471,16.3636104 C18.3246044,16.0618395 18.2193702,15.8052629 18.009453,15.5939599 Z M14.727508,15.2770846 L8.97257894,15.2770846 L8.97257894,13.1037555 C8.97257894,12.3039359 9.25363655,11.620987 9.81563365,11.0551468 C10.3777095,10.4892273 11.0558067,10.206327 11.8501616,10.206327 C12.6445952,10.206327 13.3225349,10.4891876 13.8846501,11.0551468 C14.4464898,11.6209474 14.727508,12.3039359 14.727508,13.1037555 L14.727508,15.2770846 Z M16.5163774,7.38189218 C16.5981456,7.27458327 16.6886882,7.17093037 16.7880047,7.07093479 C17.3500805,6.50501529 18.0281777,6.22211501 18.8225326,6.22211501 C19.6169662,6.22211501 20.2949059,6.50497565 20.8570211,7.07093479 C21.4188608,7.63673535 21.699879,8.31972387 21.699879,9.11954354 L21.699879,11.2928726 L18.9781285,11.2928726 C19.1785087,12.0747313 19.261289,12.6783589 19.2264695,13.1037555 L19.2264695,13.568562 C19.3844227,13.568562 19.9896097,14.1838108 20.2578056,14.7852267 C20.4677229,14.9965297 20.678658,16.0619585 20.6785293,16.3637293 L20.6785293,19.9856339 L24.2176654,19.9856339 C24.5175415,19.9856339 24.7721823,19.8800617 24.9820996,19.6688379 C25.1917412,19.4574953 25.2968181,19.2007997 25.2968181,18.8990685 L25.2968181,12.3793984 C25.2969754,12.0776275 25.1917412,11.8210509 24.981824,11.6097479 C24.7719461,11.3984449 24.517266,11.2928726 24.2173898,11.2928726 L23.8579085,11.2928726 L23.8579085,9.11954354 C23.8579085,7.73112795 23.3634692,6.53899029 22.3742755,5.54293233 C21.3851606,4.54683473 20.2014038,4.04878593 18.8224145,4.04878593 C17.4434645,4.04878593 16.2594715,4.54683473 15.2704353,5.54289269 C15.0564008,5.75842106 14.8655292,5.98312562 14.6978175,6.21700998 C15.2686381,6.43706499 15.8774523,6.87536148 16.5163774,7.38189218 Z" id="path-1"></path>
        <path d="M32,16.0011842 C32,24.8387366 24.8363014,32.0028562 16.0002439,32.0028562 C7.1640238,32.0028562 0,24.8387366 0,16.0011842 C0,7.16411964 7.16321087,0 15.9995935,0 C24.8358136,0 32,7.16411964 32,16.0011842 Z M24.9339761,14.0902008 C24.6266163,13.7759204 24.2536449,13.6188981 23.8144854,13.6188981 L23.2880359,13.6188981 L23.2880359,10.3864087 C23.2880359,8.32135618 22.5639445,6.54823659 21.1153003,5.06675511 C19.6667715,3.58521467 17.9331955,2.84444444 15.9137074,2.84444444 C13.8942769,2.84444444 12.160355,3.58521467 10.7119414,5.06669615 C9.26329731,6.54823659 8.53920587,8.32129722 8.53920587,10.3864087 L8.53920587,13.6188981 L8.01252577,13.6188981 C7.57371217,13.6188981 7.20051017,13.7759204 6.89320805,14.0902008 C6.58590592,14.4042454 6.43231251,14.7859222 6.43231251,15.2351133 L6.43231251,24.9319329 C6.43231251,25.3807113 6.58596357,25.762506 6.89320805,26.0768454 C7.20051017,26.390831 7.57371217,26.5480302 8.01252577,26.5480302 L23.814889,26.5480302 C24.2540485,26.5480302 24.6269622,26.3910079 24.9343797,26.0768454 C25.2413935,25.762506 25.3952755,25.3807113 25.3952755,24.9319329 L25.3952755,15.2349364 C25.3955058,14.7860991 25.2413935,14.4044813 24.9339761,14.0902008 Z M20.1276671,13.6188981 L11.6997477,13.6188981 L11.6997477,10.3864087 C11.6997477,9.19680118 12.1113481,8.18102082 12.9343758,7.33942141 C13.7575188,6.49770407 14.7505717,6.07693385 15.9138803,6.07693385 C17.0773043,6.07693385 18.0701265,6.49764511 18.8933272,7.33942141 C19.7161244,8.18096186 20.1276671,9.19680118 20.1276671,10.3864087 L20.1276671,13.6188981 Z" id="path-3"></path>
        <linearGradient x1="0%" y1="0%" x2="101.477557%" y2="100.48268%" id="linearGradient-5">
            <stop stop-color="#00AAA8" offset="0%"></stop>
            <stop stop-color="#7BD500" offset="100%"></stop>
        </linearGradient>
        <path d="M17.3418788,16.7954617 C17.4472534,16.9015318 17.500079,17.0303285 17.5,17.1818118 L17.5,20.4545645 C17.5,20.6060279 17.4472534,20.7348843 17.3420172,20.8409743 C17.2366426,20.9470047 17.1088177,21 16.9582855,21 L11.5416551,21 C11.3912415,21 11.2633178,20.946945 11.1579827,20.8409743 C11.0526675,20.7348843 11,20.6060279 11,20.4545645 L11,17.1818716 C11,17.0302688 11.0526477,16.9014522 11.1579827,16.7954617 C11.2633178,16.6893915 11.3912415,16.6363962 11.5416551,16.6363962 L11.7221871,16.6363962 L11.7221871,15.5454256 C11.7221871,14.848447 11.9703864,14.2500361 12.4669431,13.7500137 C12.9634208,13.2500112 13.5577632,13 14.2499703,13 C14.9421972,13 15.536421,13.2500112 16.0329382,13.7500336 C16.5294949,14.2500361 16.7776943,14.8484669 16.7776943,15.5454256 L16.7776943,16.6363962 L16.9581472,16.6363962 C17.1086794,16.6363962 17.2365241,16.6893915 17.3418788,16.7954617 Z M15.6944038,16.6363962 L15.6944038,15.5454256 C15.6944038,15.1439311 15.5533379,14.8010836 15.2713049,14.5170623 C14.9891335,14.2329614 14.6488204,14.0909706 14.2500296,14.0909706 C13.8512783,14.0909706 13.5108862,14.2329813 13.2287346,14.5170623 C12.9466225,14.8011035 12.8055369,15.1439311 12.8055369,15.5454256 L12.8055369,16.6363962 L15.6944038,16.6363962 Z M16.5923828,12.6731571 C16.2716543,12.4188881 15.9660409,12.1988715 15.6794997,12.088408 C15.7636878,11.9710024 15.8595018,11.8582049 15.9669431,11.7500137 C16.4634208,11.2500112 17.0577632,11 17.7499703,11 C18.4421972,11 19.036421,11.2500112 19.5329382,11.7500336 C20.0294949,12.2500361 20.2776943,12.8484669 20.2776943,13.5454256 L20.2776943,14.6363962 L20.4581472,14.6363962 C20.6086794,14.6363962 20.7365241,14.6893915 20.8418788,14.7954617 C20.9472534,14.9015318 21.000079,15.0303285 21,15.1818118 L21,18.4545645 C21,18.6060279 20.9472534,18.7348843 20.8420172,18.8409743 C20.7366426,18.9470047 20.6088177,19 20.4582855,19 L18.6817053,19 L18.6817053,17.1818716 C18.6817699,17.0303882 18.5758844,16.4955629 18.4705099,16.3894927 C18.3358805,16.0875932 18.0320879,15.7787498 17.9527984,15.7787498 L17.9527984,15.5454256 C17.9702771,15.3318844 17.928723,15.0288746 17.8281358,14.6363962 L19.1944038,14.6363962 L19.1944038,13.5454256 C19.1944038,13.1439311 19.0533379,12.8010836 18.7713049,12.5170623 C18.4891335,12.2329614 18.1488204,12.0909706 17.7500296,12.0909706 C17.3512783,12.0909706 17.0108862,12.2329813 16.7287346,12.5170623 C16.6788796,12.5672582 16.6334289,12.61929 16.5923828,12.6731571 Z" id="path-6"></path>
        <linearGradient x1="0%" y1="0%" x2="101.999998%" y2="100.999999%" id="linearGradient-8">
            <stop stop-color="#3023AE" offset="0%"></stop>
            <stop stop-color="#C86DD7" offset="100%"></stop>
        </linearGradient>
        <rect id="path-9" x="0" y="0" width="32" height="32" rx="2"></rect>
        <path d="M17.3418788,16.7954617 C17.4472534,16.9015318 17.500079,17.0303285 17.5,17.1818118 L17.5,20.4545645 C17.5,20.6060279 17.4472534,20.7348843 17.3420172,20.8409743 C17.2366426,20.9470047 17.1088177,21 16.9582855,21 L11.5416551,21 C11.3912415,21 11.2633178,20.946945 11.1579827,20.8409743 C11.0526675,20.7348843 11,20.6060279 11,20.4545645 L11,17.1818716 C11,17.0302688 11.0526477,16.9014522 11.1579827,16.7954617 C11.2633178,16.6893915 11.3912415,16.6363962 11.5416551,16.6363962 L11.7221871,16.6363962 L11.7221871,15.5454256 C11.7221871,14.848447 11.9703864,14.2500361 12.4669431,13.7500137 C12.9634208,13.2500112 13.5577632,13 14.2499703,13 C14.9421972,13 15.536421,13.2500112 16.0329382,13.7500336 C16.5294949,14.2500361 16.7776943,14.8484669 16.7776943,15.5454256 L16.7776943,16.6363962 L16.9581472,16.6363962 C17.1086794,16.6363962 17.2365241,16.6893915 17.3418788,16.7954617 Z M15.6944038,16.6363962 L15.6944038,15.5454256 C15.6944038,15.1439311 15.5533379,14.8010836 15.2713049,14.5170623 C14.9891335,14.2329614 14.6488204,14.0909706 14.2500296,14.0909706 C13.8512783,14.0909706 13.5108862,14.2329813 13.2287346,14.5170623 C12.9466225,14.8011035 12.8055369,15.1439311 12.8055369,15.5454256 L12.8055369,16.6363962 L15.6944038,16.6363962 Z M16.5923828,12.6731571 C16.2716543,12.4188881 15.9660409,12.1988715 15.6794997,12.088408 C15.7636878,11.9710024 15.8595018,11.8582049 15.9669431,11.7500137 C16.4634208,11.2500112 17.0577632,11 17.7499703,11 C18.4421972,11 19.036421,11.2500112 19.5329382,11.7500336 C20.0294949,12.2500361 20.2776943,12.8484669 20.2776943,13.5454256 L20.2776943,14.6363962 L20.4581472,14.6363962 C20.6086794,14.6363962 20.7365241,14.6893915 20.8418788,14.7954617 C20.9472534,14.9015318 21.000079,15.0303285 21,15.1818118 L21,18.4545645 C21,18.6060279 20.9472534,18.7348843 20.8420172,18.8409743 C20.7366426,18.9470047 20.6088177,19 20.4582855,19 L18.6817053,19 L18.6817053,17.1818716 C18.6817699,17.0303882 18.5758844,16.4955629 18.4705099,16.3894927 C18.3358805,16.0875932 18.0320879,15.7787498 17.9527984,15.7787498 L17.9527984,15.5454256 C17.9702771,15.3318844 17.928723,15.0288746 17.8281358,14.6363962 L19.1944038,14.6363962 L19.1944038,13.5454256 C19.1944038,13.1439311 19.0533379,12.8010836 18.7713049,12.5170623 C18.4891335,12.2329614 18.1488204,12.0909706 17.7500296,12.0909706 C17.3512783,12.0909706 17.0108862,12.2329813 16.7287346,12.5170623 C16.6788796,12.5672582 16.6334289,12.61929 16.5923828,12.6731571 Z" id="path-10"></path>
        <rect id="path-12" x="0" y="0" width="32" height="32" rx="2"></rect>
        <rect id="path-13" x="0" y="0" width="32" height="32" rx="2"></rect>
        <linearGradient x1="0%" y1="0%" x2="101.477557%" y2="100.48268%" id="linearGradient-14">
            <stop stop-color="#4A4A4A" offset="0%"></stop>
            <stop stop-color="#D8D8D8" offset="100%"></stop>
        </linearGradient>
        <path d="M18.9521334,17.7500157 C19.1839574,17.9833701 19.3001737,18.2667227 19.3,18.5999861 L19.3,25.8000418 C19.3,26.1332614 19.1839574,26.4167454 18.9524378,26.6501435 C18.7206138,26.8834104 18.439399,27 18.1082281,27 L6.19164129,27 C5.86073127,27 5.57929906,26.883279 5.34756204,26.6501435 C5.11586851,26.4167454 5,26.1332614 5,25.8000418 L5,18.6001174 C5,18.2665914 5.11582503,17.9831949 5.34756204,17.7500157 C5.57929906,17.5166613 5.86073127,17.4000716 6.19164129,17.4000716 L6.58881157,17.4000716 L6.58881157,14.9999363 C6.58881157,13.4665834 7.13485006,12.1500794 8.22727487,11.0500301 C9.31952576,9.95002463 10.627079,9.4 12.1499347,9.4 C13.6728338,9.4 14.9801262,9.95002463 16.0724641,11.0500739 C17.1648889,12.1500794 17.7109274,13.4666272 17.7109274,14.9999363 L17.7109274,17.4000716 L18.1079237,17.4000716 C18.4390946,17.4000716 18.7203529,17.5166613 18.9521334,17.7500157 Z M15.3276883,17.4000716 L15.3276883,14.9999363 C15.3276883,14.1166483 15.0173433,13.3623839 14.3968707,12.737537 C13.7760937,12.112515 13.0274049,11.8001353 12.1500651,11.8001353 C11.2728123,11.8001353 10.5239495,12.1125588 9.90321608,12.737537 C9.28256957,13.3624277 8.97218111,14.1166483 8.97218111,14.9999363 L8.97218111,17.4000716 L15.3276883,17.4000716 Z M17.3032421,8.68094557 C16.5976395,8.12155388 15.92529,7.63751725 15.2948993,7.39449753 C15.4801132,7.13620526 15.6909039,6.88805078 15.9272749,6.6500301 C17.0195258,5.55002463 18.327079,5 19.8499347,5 C21.3728338,5 22.6801262,5.55002463 23.7724641,6.65007388 C24.8648889,7.75007935 25.4109274,9.0666272 25.4109274,10.5999363 L25.4109274,13.0000716 L25.8079237,13.0000716 C26.1390946,13.0000716 26.4203529,13.1166613 26.6521334,13.3500157 C26.8839574,13.5833701 27.0001737,13.8667227 27,14.1999861 L27,21.4000418 C27,21.7332614 26.8839574,22.0167454 26.6524378,22.2501435 C26.4206138,22.4834104 26.139399,22.6 25.8082281,22.6 L21.8997516,22.6 L21.8997516,18.6001174 C21.8998937,18.2668541 21.6669457,17.0902383 21.4351217,16.8568839 C21.1389371,16.192705 20.4705935,15.5132495 20.2961564,15.5132495 L20.2961564,14.9999363 C20.3346097,14.5301457 20.2431905,13.8635242 20.0218988,13.0000716 L23.0276883,13.0000716 L23.0276883,10.5999363 C23.0276883,9.71664834 22.7173433,8.96238389 22.0968707,8.337537 C21.4760937,7.71251499 20.7274049,7.40013532 19.8500651,7.40013532 C18.9728123,7.40013532 18.2239495,7.71255877 17.6032161,8.337537 C17.4935351,8.44796801 17.3935435,8.56243802 17.3032421,8.68094557 Z" id="path-15"></path>
        <linearGradient x1="0%" y1="0%" x2="101.477557%" y2="100.48268%" id="linearGradient-17">
            <stop stop-color="#006BD0" offset="0%"></stop>
            <stop stop-color="#00B6D5" offset="100%"></stop>
        </linearGradient>
        <path d="M18.9521334,17.7500157 C19.1839574,17.9833701 19.3001737,18.2667227 19.3,18.5999861 L19.3,25.8000418 C19.3,26.1332614 19.1839574,26.4167454 18.9524378,26.6501435 C18.7206138,26.8834104 18.439399,27 18.1082281,27 L6.19164129,27 C5.86073127,27 5.57929906,26.883279 5.34756204,26.6501435 C5.11586851,26.4167454 5,26.1332614 5,25.8000418 L5,18.6001174 C5,18.2665914 5.11582503,17.9831949 5.34756204,17.7500157 C5.57929906,17.5166613 5.86073127,17.4000716 6.19164129,17.4000716 L6.58881157,17.4000716 L6.58881157,14.9999363 C6.58881157,13.4665834 7.13485006,12.1500794 8.22727487,11.0500301 C9.31952576,9.95002463 10.627079,9.4 12.1499347,9.4 C13.6728338,9.4 14.9801262,9.95002463 16.0724641,11.0500739 C17.1648889,12.1500794 17.7109274,13.4666272 17.7109274,14.9999363 L17.7109274,17.4000716 L18.1079237,17.4000716 C18.4390946,17.4000716 18.7203529,17.5166613 18.9521334,17.7500157 Z M15.3276883,17.4000716 L15.3276883,14.9999363 C15.3276883,14.1166483 15.0173433,13.3623839 14.3968707,12.737537 C13.7760937,12.112515 13.0274049,11.8001353 12.1500651,11.8001353 C11.2728123,11.8001353 10.5239495,12.1125588 9.90321608,12.737537 C9.28256957,13.3624277 8.97218111,14.1166483 8.97218111,14.9999363 L8.97218111,17.4000716 L15.3276883,17.4000716 Z M17.3032421,8.68094557 C16.5976395,8.12155388 15.92529,7.63751725 15.2948993,7.39449753 C15.4801132,7.13620526 15.6909039,6.88805078 15.9272749,6.6500301 C17.0195258,5.55002463 18.327079,5 19.8499347,5 C21.3728338,5 22.6801262,5.55002463 23.7724641,6.65007388 C24.8648889,7.75007935 25.4109274,9.0666272 25.4109274,10.5999363 L25.4109274,13.0000716 L25.8079237,13.0000716 C26.1390946,13.0000716 26.4203529,13.1166613 26.6521334,13.3500157 C26.8839574,13.5833701 27.0001737,13.8667227 27,14.1999861 L27,21.4000418 C27,21.7332614 26.8839574,22.0167454 26.6524378,22.2501435 C26.4206138,22.4834104 26.139399,22.6 25.8082281,22.6 L21.8997516,22.6 L21.8997516,18.6001174 C21.8998937,18.2668541 21.6669457,17.0902383 21.4351217,16.8568839 C21.1389371,16.192705 20.4705935,15.5132495 20.2961564,15.5132495 L20.2961564,14.9999363 C20.3346097,14.5301457 20.2431905,13.8635242 20.0218988,13.0000716 L23.0276883,13.0000716 L23.0276883,10.5999363 C23.0276883,9.71664834 22.7173433,8.96238389 22.0968707,8.337537 C21.4760937,7.71251499 20.7274049,7.40013532 19.8500651,7.40013532 C18.9728123,7.40013532 18.2239495,7.71255877 17.6032161,8.337537 C17.4935351,8.44796801 17.3935435,8.56243802 17.3032421,8.68094557 Z" id="path-18"></path>
    </defs>
    <g id="sprite_icons_cso_32x32" stroke="none" stroke-width="1" fill="none" fill-rule="evenodd">
        <g id="0:-icon32/event/double_sealed_event" transform="translate(40.000000, 40.000000)">
            <g id="Icon-Color" transform="translate(0.000000, -0.000000)">
                <mask id="mask-2" fill="white">
                    <use xlink:href="#path-1"></use>
                </mask>
                <g id="Mask" fill-rule="nonzero"></g>
                <g id="2-Neutral/01-Black" mask="url(#mask-2)" fill="#000000">
                    <rect id="2-Neutral/1-Black" x="0" y="0" width="32" height="32"></rect>
                </g>
            </g>
        </g>
        <g id="0:-icon32/event/sealed_event" transform="translate(40.000000, 0.000000)">
            <g id="Icon-Color" transform="translate(0.000000, -0.000000)">
                <mask id="mask-4" fill="white">
                    <use xlink:href="#path-3"></use>
                </mask>
                <g id="Mask" fill-rule="nonzero"></g>
                <g id="2-Neutral/01-Black" mask="url(#mask-4)" fill="#000000">
                    <rect id="2-Neutral/1-Black" x="0" y="0" width="32" height="32"></rect>
                </g>
            </g>
        </g>
        <g id="0:icon32/project/project-predefined-sealed" transform="translate(0.000000, 400.000000)">
            <g id="0:icon/project/project-predefined-sealed">
                <rect id="Rectangle-50-Copy" fill="url(#linearGradient-5)" x="0" y="0" width="32" height="32" rx="2"></rect>
                <path d="M23.75,8.53434589 C23.75,8.23948874 23.5111429,8.0006316 23.2162857,8.0006316 L22.2837143,8.0006316 C21.9888571,8.0006316 21.75,8.23948874 21.75,8.53434589 C21.75,8.62490767 21.75,8.692829 21.75,8.73810989 C21.75,8.9810457 22.7370946,10.0006316 22.9637848,10.0006316 C23.0198961,10.0006316 23.1040631,10.0006316 23.2162857,10.0006316 C23.5111429,10.0006316 23.75,9.76177446 23.75,9.46691732 L23.75,8.53434589 Z M8.25,8.53434589 C8.25,8.23948874 8.48885714,8.0006316 8.78371429,8.0006316 L9.71628571,8.0006316 C10.0111429,8.0006316 10.25,8.23948874 10.25,8.53434589 C10.25,8.62490767 10.25,8.692829 10.25,8.73810989 C10.25,8.9810457 9.26290538,10.0006316 9.03621521,10.0006316 C8.9801039,10.0006316 8.89593692,10.0006316 8.78371429,10.0006316 C8.48885714,10.0006316 8.25,9.76177446 8.25,9.46691732 L8.25,8.53434589 Z M23.75,22.9669173 C23.75,23.2617745 23.5111429,23.5006316 23.2162857,23.5006316 L22.2837143,23.5006316 C21.9888571,23.5006316 21.75,23.2617745 21.75,22.9669173 C21.75,22.8763555 21.75,22.8084342 21.75,22.7631533 C21.75,22.5202175 22.7370946,21.5006316 22.9637848,21.5006316 C23.1149116,21.5006316 23.1990785,21.5006316 23.2162857,21.5006316 C23.5111429,21.5006316 23.75,21.7394887 23.75,22.0343459 L23.75,22.9669173 Z M8.25,22.9669173 C8.25,23.2617745 8.48885714,23.5006316 8.78371429,23.5006316 L9.71628571,23.5006316 C10.0111429,23.5006316 10.25,23.2617745 10.25,22.9669173 C10.25,22.8763555 10.25,22.8084342 10.25,22.7631533 C10.25,22.5202175 9.26290538,21.5006316 9.03621521,21.5006316 C8.88508844,21.5006316 8.80092146,21.5006316 8.78371429,21.5006316 C8.48885714,21.5006316 8.25,21.7394887 8.25,22.0343459 L8.25,22.9669173 Z M22.8964466,10.8435248 C22.8059369,10.9340345 22.7500755,11.0591924 22.7493684,11.1970782 L22.7493684,11.904185 C22.7500755,12.0420708 22.8059369,12.1672287 22.8964466,12.2577384 C23.0916081,12.4528999 23.4083919,12.4528999 23.6035534,12.2577384 C23.6940631,12.1672287 23.7499245,12.0420708 23.7499245,11.9034779 L23.7499245,11.1963711 C23.7499245,11.0591924 23.6940631,10.9340345 23.6035534,10.8435248 C23.4076848,10.6476562 23.0916081,10.6483633 22.8964466,10.8435248 Z M23.6035534,13.6435248 C23.4083919,13.4483633 23.0916081,13.4483633 22.8964466,13.6435248 C22.8059369,13.7340345 22.7500755,13.8591924 22.7500755,13.9977853 L22.7500755,14.7048921 C22.7500755,14.8420708 22.8059369,14.9672287 22.8964466,15.0577384 C23.0916081,15.2528999 23.4083919,15.2528999 23.6035534,15.0577384 C23.6940631,14.9672287 23.7499245,14.8420708 23.7506316,14.704185 L23.7506316,13.9970782 C23.7499245,13.8591924 23.6940631,13.7340345 23.6035534,13.6435248 M23.6035534,16.4435248 C23.4083919,16.2483633 23.0916081,16.2483633 22.8964466,16.4435248 C22.8059369,16.5340345 22.7500755,16.6591924 22.7493684,16.7970782 L22.7493684,17.504185 C22.7500755,17.6420708 22.8059369,17.7672287 22.8964466,17.8577384 C23.0916081,18.0528999 23.4083919,18.0528999 23.6035534,17.8577384 C23.6940631,17.7672287 23.7499245,17.6420708 23.7499245,17.5034779 L23.7499245,16.7963711 C23.7499245,16.6591924 23.6940631,16.5340345 23.6035534,16.4435248 M22.8964466,19.2435248 C22.8059369,19.3340345 22.7500755,19.4591924 22.7500755,19.5977853 L22.7500755,20.3048921 C22.7500755,20.4420708 22.8059369,20.5672287 22.8964466,20.6577384 C23.0923152,20.853607 23.4083919,20.8528999 23.6035534,20.6577384 C23.6940631,20.5672287 23.7499245,20.4420708 23.7506316,20.304185 L23.7506316,19.5970782 C23.7499245,19.4591924 23.6940631,19.3340345 23.6035534,19.2435248 C23.4083919,19.0483633 23.0916081,19.0483633 22.8964466,19.2435248 M9.10355339,12.2577384 C9.19406306,12.1672287 9.24992449,12.0420708 9.24992449,11.9034779 L9.24992449,11.1963711 C9.24992449,11.0591924 9.19406306,10.9340345 9.10355339,10.8435248 C8.90768481,10.6476562 8.59160808,10.6483633 8.39644661,10.8435248 C8.30593694,10.9340345 8.25007551,11.0591924 8.2493684,11.1970782 L8.2493684,11.904185 C8.25007551,12.0420708 8.30593694,12.1672287 8.39644661,12.2577384 C8.59160808,12.4528999 8.90839192,12.4528999 9.10355339,12.2577384 M8.39644661,15.0577384 C8.59160808,15.2528999 8.90839192,15.2528999 9.10355339,15.0577384 C9.19406306,14.9672287 9.24992449,14.8420708 9.2506316,14.704185 L9.2506316,13.9970782 C9.24992449,13.8591924 9.19406306,13.7340345 9.10355339,13.6435248 C8.90839192,13.4483633 8.59160808,13.4483633 8.39644661,13.6435248 C8.30593694,13.7340345 8.25007551,13.8591924 8.25007551,13.9977853 L8.25007551,14.7048921 C8.25007551,14.8420708 8.30593694,14.9672287 8.39644661,15.0577384 M8.39644661,20.6577384 C8.59231519,20.853607 8.90839192,20.8528999 9.10355339,20.6577384 C9.19406306,20.5672287 9.24992449,20.4420708 9.2506316,20.304185 L9.2506316,19.5970782 C9.24992449,19.4591924 9.19406306,19.3340345 9.10355339,19.2435248 C8.90839192,19.0483633 8.59160808,19.0483633 8.39644661,19.2435248 C8.30593694,19.3340345 8.25007551,19.4591924 8.25007551,19.5977853 L8.25007551,20.3048921 C8.25007551,20.4420708 8.30593694,20.5672287 8.39644661,20.6577384 M8.39644661,17.8577384 C8.59160808,18.0528999 8.90839192,18.0528999 9.10355339,17.8577384 C9.19406306,17.7672287 9.24992449,17.6420708 9.24992449,17.5034779 L9.24992449,16.7963711 C9.24992449,16.6591924 9.19406306,16.5340345 9.10355339,16.4435248 C8.90839192,16.2483633 8.59160808,16.2483633 8.39644661,16.4435248 C8.30593694,16.5340345 8.25007551,16.6591924 8.2493684,16.7970782 L8.2493684,17.504185 C8.25007551,17.6420708 8.30593694,17.7672287 8.39644661,17.8577384 M12.5071068,8.14707821 C12.4165971,8.05656854 12.2914392,8.00070711 12.1535534,8 L11.4464466,8 C11.3085608,8.00070711 11.1834029,8.05656854 11.0928932,8.14707821 C10.8977317,8.34223968 10.8970246,8.65831641 11.0928932,8.85418499 C11.1834029,8.94469466 11.3085608,9.0005561 11.4457395,9.0005561 L12.1528463,9.0005561 C12.2914392,9.0005561 12.4165971,8.94469466 12.5071068,8.85418499 C12.7022683,8.65902352 12.7022683,8.34223968 12.5071068,8.14707821 M15.3071068,8.14707821 C15.2165971,8.05656854 15.0914392,8.00070711 14.9535534,8 L14.2464466,8 C14.1078537,8 13.9834029,8.05656854 13.8928932,8.14707821 C13.6977317,8.34223968 13.6970246,8.65831641 13.8928932,8.85418499 C13.9834029,8.94469466 14.1078537,8.99984899 14.2457395,9.0005561 L14.9528463,9.0005561 C15.0914392,9.0005561 15.2165971,8.94469466 15.3071068,8.85418499 C15.5022683,8.65902352 15.5022683,8.34223968 15.3071068,8.14707821 M18.1071068,8.14707821 C18.0165971,8.05656854 17.8921463,8.00141421 17.7542605,8.00070711 L17.0471537,8.00070711 C16.9085608,8.00070711 16.7834029,8.05656854 16.6928932,8.14707821 C16.4977317,8.34223968 16.4977317,8.65902352 16.6928932,8.85418499 C16.7834029,8.94469466 16.9085608,9.0005561 17.0464466,9.0012632 L17.7535534,9.0012632 C17.8921463,9.0012632 18.0165971,8.94469466 18.1071068,8.85418499 C18.3022683,8.65902352 18.3029754,8.34294679 18.1071068,8.14707821 M20.9071068,8.14707821 C20.8165971,8.05656854 20.6914392,8.00070711 20.5542605,8.00070711 L19.8471537,8.00070711 C19.7085608,8.00070711 19.5834029,8.05656854 19.4928932,8.14707821 C19.2977317,8.34223968 19.2977317,8.65902352 19.4928932,8.85418499 C19.5834029,8.94469466 19.7085608,9.0005561 19.8464466,9.0012632 L20.5535534,9.0012632 C20.6914392,9.0005561 20.8165971,8.94469466 20.9071068,8.85418499 C21.1022683,8.65902352 21.1029754,8.34294679 20.9071068,8.14707821 M12.5071068,22.6470782 C12.4165971,22.5565685 12.2914392,22.5007071 12.1535534,22.5 L11.4464466,22.5 C11.3085608,22.5007071 11.1834029,22.5565685 11.0928932,22.6470782 C10.8977317,22.8422397 10.8970246,23.1583164 11.0928932,23.354185 C11.1834029,23.4446947 11.3085608,23.5005561 11.4457395,23.5005561 L12.1528463,23.5005561 C12.2914392,23.5005561 12.4165971,23.4446947 12.5071068,23.354185 C12.7022683,23.1590235 12.7022683,22.8422397 12.5071068,22.6470782 M15.3071068,22.6470782 C15.2165971,22.5565685 15.0914392,22.5007071 14.9535534,22.5 L14.2464466,22.5 C14.1078537,22.5 13.9834029,22.5565685 13.8928932,22.6470782 C13.6977317,22.8422397 13.6970246,23.1583164 13.8928932,23.354185 C13.9834029,23.4446947 14.1078537,23.499849 14.2457395,23.5005561 L14.9528463,23.5005561 C15.0914392,23.5005561 15.2165971,23.4446947 15.3071068,23.354185 C15.5022683,23.1590235 15.5022683,22.8422397 15.3071068,22.6470782 M18.1071068,22.6470782 C18.0165971,22.5565685 17.8921463,22.5014142 17.7542605,22.5007071 L17.0471537,22.5007071 C16.9085608,22.5007071 16.7834029,22.5565685 16.6928932,22.6470782 C16.4977317,22.8422397 16.4977317,23.1590235 16.6928932,23.354185 C16.7834029,23.4446947 16.9085608,23.5005561 17.0464466,23.5012632 L17.7535534,23.5012632 C17.8921463,23.5012632 18.0165971,23.4446947 18.1071068,23.354185 C18.1976164,23.2636753 18.254185,23.1392245 18.254185,23.0006316 C18.2534779,22.8627458 18.1976164,22.7375879 18.1071068,22.6470782 M20.9071068,22.6470782 C21.1029754,22.8429468 21.1022683,23.1590235 20.9071068,23.354185 C20.8165971,23.4446947 20.6914392,23.5005561 20.5535534,23.5012632 L19.8464466,23.5012632 C19.7085608,23.5005561 19.5834029,23.4446947 19.4928932,23.354185 C19.2977317,23.1590235 19.2977317,22.8422397 19.4928932,22.6470782 C19.5834029,22.5565685 19.7085608,22.5007071 19.8471537,22.5007071 L20.5542605,22.5007071 C20.6914392,22.5007071 20.8165971,22.5565685 20.9071068,22.6470782" id="Fill-107" fill="#FFFFFF"></path>
                <path d="M19.8053579,15.7442844 C19.675691,15.6116979 19.5183444,15.5454543 19.3330747,15.5454543 L19.1109797,15.5454543 L19.1109797,14.1817534 C19.1109797,13.3105628 18.8055048,12.562531 18.1943606,11.9375335 C17.5832649,11.3125112 16.8519155,11 15.9999474,11 C15.1480036,11 14.4165082,11.3125112 13.8054612,11.9375087 C13.1943169,12.562531 12.8888421,13.310538 12.8888421,14.1817534 L12.8888421,15.5454543 L12.6666498,15.5454543 C12.481526,15.5454543 12.3240821,15.6116979 12.1944395,15.7442844 C12.064797,15.8767714 12,16.0377907 12,16.2272924 L12,20.3181217 C12,20.5074493 12.0648213,20.6685183 12.1944395,20.8011297 C12.3240821,20.9335919 12.481526,20.99991 12.6666498,20.99991 L19.3332449,20.99991 C19.5185146,20.99991 19.675837,20.9336665 19.8055282,20.8011297 C19.9350491,20.6685183 19.9999678,20.5074493 19.9999678,20.3181217 L19.9999678,16.2272178 C20.000065,16.0378653 19.9350491,15.8768709 19.8053579,15.7442844 Z M17.7777044,15.5454543 L14.2221903,15.5454543 L14.2221903,14.1817534 C14.2221903,13.6798897 14.3958335,13.2513591 14.7430469,12.8963108 C15.090309,12.5412127 15.5092515,12.363701 16.0000203,12.363701 C16.4908378,12.363701 16.909683,12.5411878 17.2569694,12.8963108 C17.6040856,13.2513342 17.7777044,13.6798897 17.7777044,14.1817534 L17.7777044,15.5454543 Z" id="Shape" fill="#FFFFFF"></path>
            </g>
        </g>
        <g id="0:icon32/project/project-predefined-double-sealed" transform="translate(0.000000, 440.000000)">
            <g>
                <rect id="Rectangle-50-Copy" fill="url(#linearGradient-5)" x="0" y="0" width="32" height="32" rx="2"></rect>
                <path d="M23.75,8.53434589 C23.75,8.23948874 23.5111429,8.0006316 23.2162857,8.0006316 L22.2837143,8.0006316 C21.9888571,8.0006316 21.75,8.23948874 21.75,8.53434589 C21.75,8.62490767 21.75,8.692829 21.75,8.73810989 C21.75,8.9810457 22.7370946,10.0006316 22.9637848,10.0006316 C23.0198961,10.0006316 23.1040631,10.0006316 23.2162857,10.0006316 C23.5111429,10.0006316 23.75,9.76177446 23.75,9.46691732 L23.75,8.53434589 Z M8.25,8.53434589 C8.25,8.23948874 8.48885714,8.0006316 8.78371429,8.0006316 L9.71628571,8.0006316 C10.0111429,8.0006316 10.25,8.23948874 10.25,8.53434589 C10.25,8.62490767 10.25,8.692829 10.25,8.73810989 C10.25,8.9810457 9.26290538,10.0006316 9.03621521,10.0006316 C8.9801039,10.0006316 8.89593692,10.0006316 8.78371429,10.0006316 C8.48885714,10.0006316 8.25,9.76177446 8.25,9.46691732 L8.25,8.53434589 Z M23.75,22.9669173 C23.75,23.2617745 23.5111429,23.5006316 23.2162857,23.5006316 L22.2837143,23.5006316 C21.9888571,23.5006316 21.75,23.2617745 21.75,22.9669173 C21.75,22.8763555 21.75,22.8084342 21.75,22.7631533 C21.75,22.5202175 22.7370946,21.5006316 22.9637848,21.5006316 C23.1149116,21.5006316 23.1990785,21.5006316 23.2162857,21.5006316 C23.5111429,21.5006316 23.75,21.7394887 23.75,22.0343459 L23.75,22.9669173 Z M8.25,22.9669173 C8.25,23.2617745 8.48885714,23.5006316 8.78371429,23.5006316 L9.71628571,23.5006316 C10.0111429,23.5006316 10.25,23.2617745 10.25,22.9669173 C10.25,22.8763555 10.25,22.8084342 10.25,22.7631533 C10.25,22.5202175 9.26290538,21.5006316 9.03621521,21.5006316 C8.88508844,21.5006316 8.80092146,21.5006316 8.78371429,21.5006316 C8.48885714,21.5006316 8.25,21.7394887 8.25,22.0343459 L8.25,22.9669173 Z M22.8964466,10.8435248 C22.8059369,10.9340345 22.7500755,11.0591924 22.7493684,11.1970782 L22.7493684,11.904185 C22.7500755,12.0420708 22.8059369,12.1672287 22.8964466,12.2577384 C23.0916081,12.4528999 23.4083919,12.4528999 23.6035534,12.2577384 C23.6940631,12.1672287 23.7499245,12.0420708 23.7499245,11.9034779 L23.7499245,11.1963711 C23.7499245,11.0591924 23.6940631,10.9340345 23.6035534,10.8435248 C23.4076848,10.6476562 23.0916081,10.6483633 22.8964466,10.8435248 Z M23.6035534,13.6435248 C23.4083919,13.4483633 23.0916081,13.4483633 22.8964466,13.6435248 C22.8059369,13.7340345 22.7500755,13.8591924 22.7500755,13.9977853 L22.7500755,14.7048921 C22.7500755,14.8420708 22.8059369,14.9672287 22.8964466,15.0577384 C23.0916081,15.2528999 23.4083919,15.2528999 23.6035534,15.0577384 C23.6940631,14.9672287 23.7499245,14.8420708 23.7506316,14.704185 L23.7506316,13.9970782 C23.7499245,13.8591924 23.6940631,13.7340345 23.6035534,13.6435248 M23.6035534,16.4435248 C23.4083919,16.2483633 23.0916081,16.2483633 22.8964466,16.4435248 C22.8059369,16.5340345 22.7500755,16.6591924 22.7493684,16.7970782 L22.7493684,17.504185 C22.7500755,17.6420708 22.8059369,17.7672287 22.8964466,17.8577384 C23.0916081,18.0528999 23.4083919,18.0528999 23.6035534,17.8577384 C23.6940631,17.7672287 23.7499245,17.6420708 23.7499245,17.5034779 L23.7499245,16.7963711 C23.7499245,16.6591924 23.6940631,16.5340345 23.6035534,16.4435248 M22.8964466,19.2435248 C22.8059369,19.3340345 22.7500755,19.4591924 22.7500755,19.5977853 L22.7500755,20.3048921 C22.7500755,20.4420708 22.8059369,20.5672287 22.8964466,20.6577384 C23.0923152,20.853607 23.4083919,20.8528999 23.6035534,20.6577384 C23.6940631,20.5672287 23.7499245,20.4420708 23.7506316,20.304185 L23.7506316,19.5970782 C23.7499245,19.4591924 23.6940631,19.3340345 23.6035534,19.2435248 C23.4083919,19.0483633 23.0916081,19.0483633 22.8964466,19.2435248 M9.10355339,12.2577384 C9.19406306,12.1672287 9.24992449,12.0420708 9.24992449,11.9034779 L9.24992449,11.1963711 C9.24992449,11.0591924 9.19406306,10.9340345 9.10355339,10.8435248 C8.90768481,10.6476562 8.59160808,10.6483633 8.39644661,10.8435248 C8.30593694,10.9340345 8.25007551,11.0591924 8.2493684,11.1970782 L8.2493684,11.904185 C8.25007551,12.0420708 8.30593694,12.1672287 8.39644661,12.2577384 C8.59160808,12.4528999 8.90839192,12.4528999 9.10355339,12.2577384 M8.39644661,15.0577384 C8.59160808,15.2528999 8.90839192,15.2528999 9.10355339,15.0577384 C9.19406306,14.9672287 9.24992449,14.8420708 9.2506316,14.704185 L9.2506316,13.9970782 C9.24992449,13.8591924 9.19406306,13.7340345 9.10355339,13.6435248 C8.90839192,13.4483633 8.59160808,13.4483633 8.39644661,13.6435248 C8.30593694,13.7340345 8.25007551,13.8591924 8.25007551,13.9977853 L8.25007551,14.7048921 C8.25007551,14.8420708 8.30593694,14.9672287 8.39644661,15.0577384 M8.39644661,20.6577384 C8.59231519,20.853607 8.90839192,20.8528999 9.10355339,20.6577384 C9.19406306,20.5672287 9.24992449,20.4420708 9.2506316,20.304185 L9.2506316,19.5970782 C9.24992449,19.4591924 9.19406306,19.3340345 9.10355339,19.2435248 C8.90839192,19.0483633 8.59160808,19.0483633 8.39644661,19.2435248 C8.30593694,19.3340345 8.25007551,19.4591924 8.25007551,19.5977853 L8.25007551,20.3048921 C8.25007551,20.4420708 8.30593694,20.5672287 8.39644661,20.6577384 M8.39644661,17.8577384 C8.59160808,18.0528999 8.90839192,18.0528999 9.10355339,17.8577384 C9.19406306,17.7672287 9.24992449,17.6420708 9.24992449,17.5034779 L9.24992449,16.7963711 C9.24992449,16.6591924 9.19406306,16.5340345 9.10355339,16.4435248 C8.90839192,16.2483633 8.59160808,16.2483633 8.39644661,16.4435248 C8.30593694,16.5340345 8.25007551,16.6591924 8.2493684,16.7970782 L8.2493684,17.504185 C8.25007551,17.6420708 8.30593694,17.7672287 8.39644661,17.8577384 M12.5071068,8.14707821 C12.4165971,8.05656854 12.2914392,8.00070711 12.1535534,8 L11.4464466,8 C11.3085608,8.00070711 11.1834029,8.05656854 11.0928932,8.14707821 C10.8977317,8.34223968 10.8970246,8.65831641 11.0928932,8.85418499 C11.1834029,8.94469466 11.3085608,9.0005561 11.4457395,9.0005561 L12.1528463,9.0005561 C12.2914392,9.0005561 12.4165971,8.94469466 12.5071068,8.85418499 C12.7022683,8.65902352 12.7022683,8.34223968 12.5071068,8.14707821 M15.3071068,8.14707821 C15.2165971,8.05656854 15.0914392,8.00070711 14.9535534,8 L14.2464466,8 C14.1078537,8 13.9834029,8.05656854 13.8928932,8.14707821 C13.6977317,8.34223968 13.6970246,8.65831641 13.8928932,8.85418499 C13.9834029,8.94469466 14.1078537,8.99984899 14.2457395,9.0005561 L14.9528463,9.0005561 C15.0914392,9.0005561 15.2165971,8.94469466 15.3071068,8.85418499 C15.5022683,8.65902352 15.5022683,8.34223968 15.3071068,8.14707821 M18.1071068,8.14707821 C18.0165971,8.05656854 17.8921463,8.00141421 17.7542605,8.00070711 L17.0471537,8.00070711 C16.9085608,8.00070711 16.7834029,8.05656854 16.6928932,8.14707821 C16.4977317,8.34223968 16.4977317,8.65902352 16.6928932,8.85418499 C16.7834029,8.94469466 16.9085608,9.0005561 17.0464466,9.0012632 L17.7535534,9.0012632 C17.8921463,9.0012632 18.0165971,8.94469466 18.1071068,8.85418499 C18.3022683,8.65902352 18.3029754,8.34294679 18.1071068,8.14707821 M20.9071068,8.14707821 C20.8165971,8.05656854 20.6914392,8.00070711 20.5542605,8.00070711 L19.8471537,8.00070711 C19.7085608,8.00070711 19.5834029,8.05656854 19.4928932,8.14707821 C19.2977317,8.34223968 19.2977317,8.65902352 19.4928932,8.85418499 C19.5834029,8.94469466 19.7085608,9.0005561 19.8464466,9.0012632 L20.5535534,9.0012632 C20.6914392,9.0005561 20.8165971,8.94469466 20.9071068,8.85418499 C21.1022683,8.65902352 21.1029754,8.34294679 20.9071068,8.14707821 M12.5071068,22.6470782 C12.4165971,22.5565685 12.2914392,22.5007071 12.1535534,22.5 L11.4464466,22.5 C11.3085608,22.5007071 11.1834029,22.5565685 11.0928932,22.6470782 C10.8977317,22.8422397 10.8970246,23.1583164 11.0928932,23.354185 C11.1834029,23.4446947 11.3085608,23.5005561 11.4457395,23.5005561 L12.1528463,23.5005561 C12.2914392,23.5005561 12.4165971,23.4446947 12.5071068,23.354185 C12.7022683,23.1590235 12.7022683,22.8422397 12.5071068,22.6470782 M15.3071068,22.6470782 C15.2165971,22.5565685 15.0914392,22.5007071 14.9535534,22.5 L14.2464466,22.5 C14.1078537,22.5 13.9834029,22.5565685 13.8928932,22.6470782 C13.6977317,22.8422397 13.6970246,23.1583164 13.8928932,23.354185 C13.9834029,23.4446947 14.1078537,23.499849 14.2457395,23.5005561 L14.9528463,23.5005561 C15.0914392,23.5005561 15.2165971,23.4446947 15.3071068,23.354185 C15.5022683,23.1590235 15.5022683,22.8422397 15.3071068,22.6470782 M18.1071068,22.6470782 C18.0165971,22.5565685 17.8921463,22.5014142 17.7542605,22.5007071 L17.0471537,22.5007071 C16.9085608,22.5007071 16.7834029,22.5565685 16.6928932,22.6470782 C16.4977317,22.8422397 16.4977317,23.1590235 16.6928932,23.354185 C16.7834029,23.4446947 16.9085608,23.5005561 17.0464466,23.5012632 L17.7535534,23.5012632 C17.8921463,23.5012632 18.0165971,23.4446947 18.1071068,23.354185 C18.1976164,23.2636753 18.254185,23.1392245 18.254185,23.0006316 C18.2534779,22.8627458 18.1976164,22.7375879 18.1071068,22.6470782 M20.9071068,22.6470782 C21.1029754,22.8429468 21.1022683,23.1590235 20.9071068,23.354185 C20.8165971,23.4446947 20.6914392,23.5005561 20.5535534,23.5012632 L19.8464466,23.5012632 C19.7085608,23.5005561 19.5834029,23.4446947 19.4928932,23.354185 C19.2977317,23.1590235 19.2977317,22.8422397 19.4928932,22.6470782 C19.5834029,22.5565685 19.7085608,22.5007071 19.8471537,22.5007071 L20.5542605,22.5007071 C20.6914392,22.5007071 20.8165971,22.5565685 20.9071068,22.6470782" id="Fill-107" fill="#FFFFFF"></path>
                <mask id="mask-7" fill="white">
                    <use xlink:href="#path-6"></use>
                </mask>
                <use id="Mask" fill="#FFFFFF" fill-rule="nonzero" xlink:href="#path-6"></use>
            </g>
        </g>
        <g id="0:icon32/project/project-predefined" transform="translate(0.000000, 360.000000)">
            <g id="0:icon/project/project-predefined">
                <rect id="Rectangle-50-Copy" fill="url(#linearGradient-5)" x="0" y="0" width="32" height="32" rx="2"></rect>
                <path d="M23.75,8.53434589 C23.75,8.23948874 23.5111429,8.0006316 23.2162857,8.0006316 L22.2837143,8.0006316 C21.9888571,8.0006316 21.75,8.23948874 21.75,8.53434589 C21.75,8.62490767 21.75,8.692829 21.75,8.73810989 C21.75,8.9810457 22.7370946,10.0006316 22.9637848,10.0006316 C23.0198961,10.0006316 23.1040631,10.0006316 23.2162857,10.0006316 C23.5111429,10.0006316 23.75,9.76177446 23.75,9.46691732 L23.75,8.53434589 Z M8.25,8.53434589 C8.25,8.23948874 8.48885714,8.0006316 8.78371429,8.0006316 L9.71628571,8.0006316 C10.0111429,8.0006316 10.25,8.23948874 10.25,8.53434589 C10.25,8.62490767 10.25,8.692829 10.25,8.73810989 C10.25,8.9810457 9.26290538,10.0006316 9.03621521,10.0006316 C8.9801039,10.0006316 8.89593692,10.0006316 8.78371429,10.0006316 C8.48885714,10.0006316 8.25,9.76177446 8.25,9.46691732 L8.25,8.53434589 Z M23.75,22.9669173 C23.75,23.2617745 23.5111429,23.5006316 23.2162857,23.5006316 L22.2837143,23.5006316 C21.9888571,23.5006316 21.75,23.2617745 21.75,22.9669173 C21.75,22.8763555 21.75,22.8084342 21.75,22.7631533 C21.75,22.5202175 22.7370946,21.5006316 22.9637848,21.5006316 C23.1149116,21.5006316 23.1990785,21.5006316 23.2162857,21.5006316 C23.5111429,21.5006316 23.75,21.7394887 23.75,22.0343459 L23.75,22.9669173 Z M8.25,22.9669173 C8.25,23.2617745 8.48885714,23.5006316 8.78371429,23.5006316 L9.71628571,23.5006316 C10.0111429,23.5006316 10.25,23.2617745 10.25,22.9669173 C10.25,22.8763555 10.25,22.8084342 10.25,22.7631533 C10.25,22.5202175 9.26290538,21.5006316 9.03621521,21.5006316 C8.88508844,21.5006316 8.80092146,21.5006316 8.78371429,21.5006316 C8.48885714,21.5006316 8.25,21.7394887 8.25,22.0343459 L8.25,22.9669173 Z M22.8964466,10.8435248 C22.8059369,10.9340345 22.7500755,11.0591924 22.7493684,11.1970782 L22.7493684,11.904185 C22.7500755,12.0420708 22.8059369,12.1672287 22.8964466,12.2577384 C23.0916081,12.4528999 23.4083919,12.4528999 23.6035534,12.2577384 C23.6940631,12.1672287 23.7499245,12.0420708 23.7499245,11.9034779 L23.7499245,11.1963711 C23.7499245,11.0591924 23.6940631,10.9340345 23.6035534,10.8435248 C23.4076848,10.6476562 23.0916081,10.6483633 22.8964466,10.8435248 Z M23.6035534,13.6435248 C23.4083919,13.4483633 23.0916081,13.4483633 22.8964466,13.6435248 C22.8059369,13.7340345 22.7500755,13.8591924 22.7500755,13.9977853 L22.7500755,14.7048921 C22.7500755,14.8420708 22.8059369,14.9672287 22.8964466,15.0577384 C23.0916081,15.2528999 23.4083919,15.2528999 23.6035534,15.0577384 C23.6940631,14.9672287 23.7499245,14.8420708 23.7506316,14.704185 L23.7506316,13.9970782 C23.7499245,13.8591924 23.6940631,13.7340345 23.6035534,13.6435248 M23.6035534,16.4435248 C23.4083919,16.2483633 23.0916081,16.2483633 22.8964466,16.4435248 C22.8059369,16.5340345 22.7500755,16.6591924 22.7493684,16.7970782 L22.7493684,17.504185 C22.7500755,17.6420708 22.8059369,17.7672287 22.8964466,17.8577384 C23.0916081,18.0528999 23.4083919,18.0528999 23.6035534,17.8577384 C23.6940631,17.7672287 23.7499245,17.6420708 23.7499245,17.5034779 L23.7499245,16.7963711 C23.7499245,16.6591924 23.6940631,16.5340345 23.6035534,16.4435248 M22.8964466,19.2435248 C22.8059369,19.3340345 22.7500755,19.4591924 22.7500755,19.5977853 L22.7500755,20.3048921 C22.7500755,20.4420708 22.8059369,20.5672287 22.8964466,20.6577384 C23.0923152,20.853607 23.4083919,20.8528999 23.6035534,20.6577384 C23.6940631,20.5672287 23.7499245,20.4420708 23.7506316,20.304185 L23.7506316,19.5970782 C23.7499245,19.4591924 23.6940631,19.3340345 23.6035534,19.2435248 C23.4083919,19.0483633 23.0916081,19.0483633 22.8964466,19.2435248 M9.10355339,12.2577384 C9.19406306,12.1672287 9.24992449,12.0420708 9.24992449,11.9034779 L9.24992449,11.1963711 C9.24992449,11.0591924 9.19406306,10.9340345 9.10355339,10.8435248 C8.90768481,10.6476562 8.59160808,10.6483633 8.39644661,10.8435248 C8.30593694,10.9340345 8.25007551,11.0591924 8.2493684,11.1970782 L8.2493684,11.904185 C8.25007551,12.0420708 8.30593694,12.1672287 8.39644661,12.2577384 C8.59160808,12.4528999 8.90839192,12.4528999 9.10355339,12.2577384 M8.39644661,15.0577384 C8.59160808,15.2528999 8.90839192,15.2528999 9.10355339,15.0577384 C9.19406306,14.9672287 9.24992449,14.8420708 9.2506316,14.704185 L9.2506316,13.9970782 C9.24992449,13.8591924 9.19406306,13.7340345 9.10355339,13.6435248 C8.90839192,13.4483633 8.59160808,13.4483633 8.39644661,13.6435248 C8.30593694,13.7340345 8.25007551,13.8591924 8.25007551,13.9977853 L8.25007551,14.7048921 C8.25007551,14.8420708 8.30593694,14.9672287 8.39644661,15.0577384 M8.39644661,20.6577384 C8.59231519,20.853607 8.90839192,20.8528999 9.10355339,20.6577384 C9.19406306,20.5672287 9.24992449,20.4420708 9.2506316,20.304185 L9.2506316,19.5970782 C9.24992449,19.4591924 9.19406306,19.3340345 9.10355339,19.2435248 C8.90839192,19.0483633 8.59160808,19.0483633 8.39644661,19.2435248 C8.30593694,19.3340345 8.25007551,19.4591924 8.25007551,19.5977853 L8.25007551,20.3048921 C8.25007551,20.4420708 8.30593694,20.5672287 8.39644661,20.6577384 M8.39644661,17.8577384 C8.59160808,18.0528999 8.90839192,18.0528999 9.10355339,17.8577384 C9.19406306,17.7672287 9.24992449,17.6420708 9.24992449,17.5034779 L9.24992449,16.7963711 C9.24992449,16.6591924 9.19406306,16.5340345 9.10355339,16.4435248 C8.90839192,16.2483633 8.59160808,16.2483633 8.39644661,16.4435248 C8.30593694,16.5340345 8.25007551,16.6591924 8.2493684,16.7970782 L8.2493684,17.504185 C8.25007551,17.6420708 8.30593694,17.7672287 8.39644661,17.8577384 M12.5071068,8.14707821 C12.4165971,8.05656854 12.2914392,8.00070711 12.1535534,8 L11.4464466,8 C11.3085608,8.00070711 11.1834029,8.05656854 11.0928932,8.14707821 C10.8977317,8.34223968 10.8970246,8.65831641 11.0928932,8.85418499 C11.1834029,8.94469466 11.3085608,9.0005561 11.4457395,9.0005561 L12.1528463,9.0005561 C12.2914392,9.0005561 12.4165971,8.94469466 12.5071068,8.85418499 C12.7022683,8.65902352 12.7022683,8.34223968 12.5071068,8.14707821 M15.3071068,8.14707821 C15.2165971,8.05656854 15.0914392,8.00070711 14.9535534,8 L14.2464466,8 C14.1078537,8 13.9834029,8.05656854 13.8928932,8.14707821 C13.6977317,8.34223968 13.6970246,8.65831641 13.8928932,8.85418499 C13.9834029,8.94469466 14.1078537,8.99984899 14.2457395,9.0005561 L14.9528463,9.0005561 C15.0914392,9.0005561 15.2165971,8.94469466 15.3071068,8.85418499 C15.5022683,8.65902352 15.5022683,8.34223968 15.3071068,8.14707821 M18.1071068,8.14707821 C18.0165971,8.05656854 17.8921463,8.00141421 17.7542605,8.00070711 L17.0471537,8.00070711 C16.9085608,8.00070711 16.7834029,8.05656854 16.6928932,8.14707821 C16.4977317,8.34223968 16.4977317,8.65902352 16.6928932,8.85418499 C16.7834029,8.94469466 16.9085608,9.0005561 17.0464466,9.0012632 L17.7535534,9.0012632 C17.8921463,9.0012632 18.0165971,8.94469466 18.1071068,8.85418499 C18.3022683,8.65902352 18.3029754,8.34294679 18.1071068,8.14707821 M20.9071068,8.14707821 C20.8165971,8.05656854 20.6914392,8.00070711 20.5542605,8.00070711 L19.8471537,8.00070711 C19.7085608,8.00070711 19.5834029,8.05656854 19.4928932,8.14707821 C19.2977317,8.34223968 19.2977317,8.65902352 19.4928932,8.85418499 C19.5834029,8.94469466 19.7085608,9.0005561 19.8464466,9.0012632 L20.5535534,9.0012632 C20.6914392,9.0005561 20.8165971,8.94469466 20.9071068,8.85418499 C21.1022683,8.65902352 21.1029754,8.34294679 20.9071068,8.14707821 M12.5071068,22.6470782 C12.4165971,22.5565685 12.2914392,22.5007071 12.1535534,22.5 L11.4464466,22.5 C11.3085608,22.5007071 11.1834029,22.5565685 11.0928932,22.6470782 C10.8977317,22.8422397 10.8970246,23.1583164 11.0928932,23.354185 C11.1834029,23.4446947 11.3085608,23.5005561 11.4457395,23.5005561 L12.1528463,23.5005561 C12.2914392,23.5005561 12.4165971,23.4446947 12.5071068,23.354185 C12.7022683,23.1590235 12.7022683,22.8422397 12.5071068,22.6470782 M15.3071068,22.6470782 C15.2165971,22.5565685 15.0914392,22.5007071 14.9535534,22.5 L14.2464466,22.5 C14.1078537,22.5 13.9834029,22.5565685 13.8928932,22.6470782 C13.6977317,22.8422397 13.6970246,23.1583164 13.8928932,23.354185 C13.9834029,23.4446947 14.1078537,23.499849 14.2457395,23.5005561 L14.9528463,23.5005561 C15.0914392,23.5005561 15.2165971,23.4446947 15.3071068,23.354185 C15.5022683,23.1590235 15.5022683,22.8422397 15.3071068,22.6470782 M18.1071068,22.6470782 C18.0165971,22.5565685 17.8921463,22.5014142 17.7542605,22.5007071 L17.0471537,22.5007071 C16.9085608,22.5007071 16.7834029,22.5565685 16.6928932,22.6470782 C16.4977317,22.8422397 16.4977317,23.1590235 16.6928932,23.354185 C16.7834029,23.4446947 16.9085608,23.5005561 17.0464466,23.5012632 L17.7535534,23.5012632 C17.8921463,23.5012632 18.0165971,23.4446947 18.1071068,23.354185 C18.1976164,23.2636753 18.254185,23.1392245 18.254185,23.0006316 C18.2534779,22.8627458 18.1976164,22.7375879 18.1071068,22.6470782 M20.9071068,22.6470782 C21.1029754,22.8429468 21.1022683,23.1590235 20.9071068,23.354185 C20.8165971,23.4446947 20.6914392,23.5005561 20.5535534,23.5012632 L19.8464466,23.5012632 C19.7085608,23.5005561 19.5834029,23.4446947 19.4928932,23.354185 C19.2977317,23.1590235 19.2977317,22.8422397 19.4928932,22.6470782 C19.5834029,22.5565685 19.7085608,22.5007071 19.8471537,22.5007071 L20.5542605,22.5007071 C20.6914392,22.5007071 20.8165971,22.5565685 20.9071068,22.6470782" id="Fill-107" fill="#FFFFFF"></path>
                <path d="M11,11.9712 C11,11.4352 11.435,11.0002 11.972,11.0002 L14.278,11.0002 C14.815,11.0002 15.25,11.4352 15.25,11.9712 L15.25,14.2792 C15.25,14.8152 14.815,15.2502 14.278,15.2502 L11.972,15.2502 C11.435,15.2502 11,14.8152 11,14.2792 L11,11.9712 Z M11,17.7212 C11,17.1852 11.435,16.7502 11.972,16.7502 L14.028,16.7502 C14.565,16.7502 15,17.1852 15,17.7212 L15,20.0292 C15,20.5652 14.565,21.0002 14.028,21.0002 L11.972,21.0002 C11.435,21.0002 11,20.5652 11,20.0292 L11,17.7212 Z M16.75,11.9712 C16.75,11.4352 17.185,11.0002 17.722,11.0002 L20.028,11.0002 C20.565,11.0002 21,11.4352 21,11.9712 L21,14.0002 C21,14.5362 20.565,14.9712 20.028,14.9712 L17.722,14.9712 C17.185,14.9712 16.75,14.5362 16.75,14.0002 L16.75,11.9712 Z M16.25,16.7172 C16.25,16.4592 16.459,16.2502 16.717,16.2502 L17.533,16.2502 C17.791,16.2502 18,16.4592 18,16.7172 L18,17.5332 C18,17.7912 17.791,18.0002 17.533,18.0002 L16.717,18.0002 C16.459,18.0002 16.25,17.7912 16.25,17.5332 L16.25,16.7172 Z M16.25,19.7172 C16.25,19.4592 16.459,19.2502 16.717,19.2502 L17.533,19.2502 C17.791,19.2502 18,19.4592 18,19.7172 L18,20.5332 C18,20.7912 17.791,21.0002 17.533,21.0002 L16.717,21.0002 C16.459,21.0002 16.25,20.7912 16.25,20.5332 L16.25,19.7172 Z M19.25,16.7172 C19.25,16.4592 19.459,16.2502 19.717,16.2502 L20.533,16.2502 C20.791,16.2502 21,16.4592 21,16.7172 L21,17.5332 C21,17.7912 20.791,18.0002 20.533,18.0002 L19.717,18.0002 C19.459,18.0002 19.25,17.7912 19.25,17.5332 L19.25,16.7172 Z M19.25,19.7172 C19.25,19.4592 19.459,19.2502 19.717,19.2502 L20.533,19.2502 C20.791,19.2502 21,19.4592 21,19.7172 L21,20.5332 C21,20.7912 20.791,21.0002 20.533,21.0002 L19.717,21.0002 C19.459,21.0002 19.25,20.7912 19.25,20.5332 L19.25,19.7172 Z" id="Fill-292" fill="#FFFFFF"></path>
            </g>
        </g>
        <g id="0:icon32/project/project-template-double-sealed" transform="translate(0.000000, 320.000000)">
            <g>
                <g id="Rectangle-50-Copy">
                    <use fill="#AE835D" xlink:href="#path-9"></use>
                    <use fill="url(#linearGradient-8)" xlink:href="#path-9"></use>
                </g>
                <path d="M23.75,8.53434589 C23.75,8.23948874 23.5111429,8.0006316 23.2162857,8.0006316 L22.2837143,8.0006316 C21.9888571,8.0006316 21.75,8.23948874 21.75,8.53434589 C21.75,8.62490767 21.75,8.692829 21.75,8.73810989 C21.75,8.9810457 22.7370946,10.0006316 22.9637848,10.0006316 C23.0198961,10.0006316 23.1040631,10.0006316 23.2162857,10.0006316 C23.5111429,10.0006316 23.75,9.76177446 23.75,9.46691732 L23.75,8.53434589 Z M8.25,8.53434589 C8.25,8.23948874 8.48885714,8.0006316 8.78371429,8.0006316 L9.71628571,8.0006316 C10.0111429,8.0006316 10.25,8.23948874 10.25,8.53434589 C10.25,8.62490767 10.25,8.692829 10.25,8.73810989 C10.25,8.9810457 9.26290538,10.0006316 9.03621521,10.0006316 C8.9801039,10.0006316 8.89593692,10.0006316 8.78371429,10.0006316 C8.48885714,10.0006316 8.25,9.76177446 8.25,9.46691732 L8.25,8.53434589 Z M23.75,22.9669173 C23.75,23.2617745 23.5111429,23.5006316 23.2162857,23.5006316 L22.2837143,23.5006316 C21.9888571,23.5006316 21.75,23.2617745 21.75,22.9669173 C21.75,22.8763555 21.75,22.8084342 21.75,22.7631533 C21.75,22.5202175 22.7370946,21.5006316 22.9637848,21.5006316 C23.1149116,21.5006316 23.1990785,21.5006316 23.2162857,21.5006316 C23.5111429,21.5006316 23.75,21.7394887 23.75,22.0343459 L23.75,22.9669173 Z M8.25,22.9669173 C8.25,23.2617745 8.48885714,23.5006316 8.78371429,23.5006316 L9.71628571,23.5006316 C10.0111429,23.5006316 10.25,23.2617745 10.25,22.9669173 C10.25,22.8763555 10.25,22.8084342 10.25,22.7631533 C10.25,22.5202175 9.26290538,21.5006316 9.03621521,21.5006316 C8.88508844,21.5006316 8.80092146,21.5006316 8.78371429,21.5006316 C8.48885714,21.5006316 8.25,21.7394887 8.25,22.0343459 L8.25,22.9669173 Z M22.8964466,10.8435248 C22.8059369,10.9340345 22.7500755,11.0591924 22.7493684,11.1970782 L22.7493684,11.904185 C22.7500755,12.0420708 22.8059369,12.1672287 22.8964466,12.2577384 C23.0916081,12.4528999 23.4083919,12.4528999 23.6035534,12.2577384 C23.6940631,12.1672287 23.7499245,12.0420708 23.7499245,11.9034779 L23.7499245,11.1963711 C23.7499245,11.0591924 23.6940631,10.9340345 23.6035534,10.8435248 C23.4076848,10.6476562 23.0916081,10.6483633 22.8964466,10.8435248 Z M23.6035534,13.6435248 C23.4083919,13.4483633 23.0916081,13.4483633 22.8964466,13.6435248 C22.8059369,13.7340345 22.7500755,13.8591924 22.7500755,13.9977853 L22.7500755,14.7048921 C22.7500755,14.8420708 22.8059369,14.9672287 22.8964466,15.0577384 C23.0916081,15.2528999 23.4083919,15.2528999 23.6035534,15.0577384 C23.6940631,14.9672287 23.7499245,14.8420708 23.7506316,14.704185 L23.7506316,13.9970782 C23.7499245,13.8591924 23.6940631,13.7340345 23.6035534,13.6435248 M23.6035534,16.4435248 C23.4083919,16.2483633 23.0916081,16.2483633 22.8964466,16.4435248 C22.8059369,16.5340345 22.7500755,16.6591924 22.7493684,16.7970782 L22.7493684,17.504185 C22.7500755,17.6420708 22.8059369,17.7672287 22.8964466,17.8577384 C23.0916081,18.0528999 23.4083919,18.0528999 23.6035534,17.8577384 C23.6940631,17.7672287 23.7499245,17.6420708 23.7499245,17.5034779 L23.7499245,16.7963711 C23.7499245,16.6591924 23.6940631,16.5340345 23.6035534,16.4435248 M22.8964466,19.2435248 C22.8059369,19.3340345 22.7500755,19.4591924 22.7500755,19.5977853 L22.7500755,20.3048921 C22.7500755,20.4420708 22.8059369,20.5672287 22.8964466,20.6577384 C23.0923152,20.853607 23.4083919,20.8528999 23.6035534,20.6577384 C23.6940631,20.5672287 23.7499245,20.4420708 23.7506316,20.304185 L23.7506316,19.5970782 C23.7499245,19.4591924 23.6940631,19.3340345 23.6035534,19.2435248 C23.4083919,19.0483633 23.0916081,19.0483633 22.8964466,19.2435248 M9.10355339,12.2577384 C9.19406306,12.1672287 9.24992449,12.0420708 9.24992449,11.9034779 L9.24992449,11.1963711 C9.24992449,11.0591924 9.19406306,10.9340345 9.10355339,10.8435248 C8.90768481,10.6476562 8.59160808,10.6483633 8.39644661,10.8435248 C8.30593694,10.9340345 8.25007551,11.0591924 8.2493684,11.1970782 L8.2493684,11.904185 C8.25007551,12.0420708 8.30593694,12.1672287 8.39644661,12.2577384 C8.59160808,12.4528999 8.90839192,12.4528999 9.10355339,12.2577384 M8.39644661,15.0577384 C8.59160808,15.2528999 8.90839192,15.2528999 9.10355339,15.0577384 C9.19406306,14.9672287 9.24992449,14.8420708 9.2506316,14.704185 L9.2506316,13.9970782 C9.24992449,13.8591924 9.19406306,13.7340345 9.10355339,13.6435248 C8.90839192,13.4483633 8.59160808,13.4483633 8.39644661,13.6435248 C8.30593694,13.7340345 8.25007551,13.8591924 8.25007551,13.9977853 L8.25007551,14.7048921 C8.25007551,14.8420708 8.30593694,14.9672287 8.39644661,15.0577384 M8.39644661,20.6577384 C8.59231519,20.853607 8.90839192,20.8528999 9.10355339,20.6577384 C9.19406306,20.5672287 9.24992449,20.4420708 9.2506316,20.304185 L9.2506316,19.5970782 C9.24992449,19.4591924 9.19406306,19.3340345 9.10355339,19.2435248 C8.90839192,19.0483633 8.59160808,19.0483633 8.39644661,19.2435248 C8.30593694,19.3340345 8.25007551,19.4591924 8.25007551,19.5977853 L8.25007551,20.3048921 C8.25007551,20.4420708 8.30593694,20.5672287 8.39644661,20.6577384 M8.39644661,17.8577384 C8.59160808,18.0528999 8.90839192,18.0528999 9.10355339,17.8577384 C9.19406306,17.7672287 9.24992449,17.6420708 9.24992449,17.5034779 L9.24992449,16.7963711 C9.24992449,16.6591924 9.19406306,16.5340345 9.10355339,16.4435248 C8.90839192,16.2483633 8.59160808,16.2483633 8.39644661,16.4435248 C8.30593694,16.5340345 8.25007551,16.6591924 8.2493684,16.7970782 L8.2493684,17.504185 C8.25007551,17.6420708 8.30593694,17.7672287 8.39644661,17.8577384 M12.5071068,8.14707821 C12.4165971,8.05656854 12.2914392,8.00070711 12.1535534,8 L11.4464466,8 C11.3085608,8.00070711 11.1834029,8.05656854 11.0928932,8.14707821 C10.8977317,8.34223968 10.8970246,8.65831641 11.0928932,8.85418499 C11.1834029,8.94469466 11.3085608,9.0005561 11.4457395,9.0005561 L12.1528463,9.0005561 C12.2914392,9.0005561 12.4165971,8.94469466 12.5071068,8.85418499 C12.7022683,8.65902352 12.7022683,8.34223968 12.5071068,8.14707821 M15.3071068,8.14707821 C15.2165971,8.05656854 15.0914392,8.00070711 14.9535534,8 L14.2464466,8 C14.1078537,8 13.9834029,8.05656854 13.8928932,8.14707821 C13.6977317,8.34223968 13.6970246,8.65831641 13.8928932,8.85418499 C13.9834029,8.94469466 14.1078537,8.99984899 14.2457395,9.0005561 L14.9528463,9.0005561 C15.0914392,9.0005561 15.2165971,8.94469466 15.3071068,8.85418499 C15.5022683,8.65902352 15.5022683,8.34223968 15.3071068,8.14707821 M18.1071068,8.14707821 C18.0165971,8.05656854 17.8921463,8.00141421 17.7542605,8.00070711 L17.0471537,8.00070711 C16.9085608,8.00070711 16.7834029,8.05656854 16.6928932,8.14707821 C16.4977317,8.34223968 16.4977317,8.65902352 16.6928932,8.85418499 C16.7834029,8.94469466 16.9085608,9.0005561 17.0464466,9.0012632 L17.7535534,9.0012632 C17.8921463,9.0012632 18.0165971,8.94469466 18.1071068,8.85418499 C18.3022683,8.65902352 18.3029754,8.34294679 18.1071068,8.14707821 M20.9071068,8.14707821 C20.8165971,8.05656854 20.6914392,8.00070711 20.5542605,8.00070711 L19.8471537,8.00070711 C19.7085608,8.00070711 19.5834029,8.05656854 19.4928932,8.14707821 C19.2977317,8.34223968 19.2977317,8.65902352 19.4928932,8.85418499 C19.5834029,8.94469466 19.7085608,9.0005561 19.8464466,9.0012632 L20.5535534,9.0012632 C20.6914392,9.0005561 20.8165971,8.94469466 20.9071068,8.85418499 C21.1022683,8.65902352 21.1029754,8.34294679 20.9071068,8.14707821 M12.5071068,22.6470782 C12.4165971,22.5565685 12.2914392,22.5007071 12.1535534,22.5 L11.4464466,22.5 C11.3085608,22.5007071 11.1834029,22.5565685 11.0928932,22.6470782 C10.8977317,22.8422397 10.8970246,23.1583164 11.0928932,23.354185 C11.1834029,23.4446947 11.3085608,23.5005561 11.4457395,23.5005561 L12.1528463,23.5005561 C12.2914392,23.5005561 12.4165971,23.4446947 12.5071068,23.354185 C12.7022683,23.1590235 12.7022683,22.8422397 12.5071068,22.6470782 M15.3071068,22.6470782 C15.2165971,22.5565685 15.0914392,22.5007071 14.9535534,22.5 L14.2464466,22.5 C14.1078537,22.5 13.9834029,22.5565685 13.8928932,22.6470782 C13.6977317,22.8422397 13.6970246,23.1583164 13.8928932,23.354185 C13.9834029,23.4446947 14.1078537,23.499849 14.2457395,23.5005561 L14.9528463,23.5005561 C15.0914392,23.5005561 15.2165971,23.4446947 15.3071068,23.354185 C15.5022683,23.1590235 15.5022683,22.8422397 15.3071068,22.6470782 M18.1071068,22.6470782 C18.0165971,22.5565685 17.8921463,22.5014142 17.7542605,22.5007071 L17.0471537,22.5007071 C16.9085608,22.5007071 16.7834029,22.5565685 16.6928932,22.6470782 C16.4977317,22.8422397 16.4977317,23.1590235 16.6928932,23.354185 C16.7834029,23.4446947 16.9085608,23.5005561 17.0464466,23.5012632 L17.7535534,23.5012632 C17.8921463,23.5012632 18.0165971,23.4446947 18.1071068,23.354185 C18.1976164,23.2636753 18.254185,23.1392245 18.254185,23.0006316 C18.2534779,22.8627458 18.1976164,22.7375879 18.1071068,22.6470782 M20.9071068,22.6470782 C21.1029754,22.8429468 21.1022683,23.1590235 20.9071068,23.354185 C20.8165971,23.4446947 20.6914392,23.5005561 20.5535534,23.5012632 L19.8464466,23.5012632 C19.7085608,23.5005561 19.5834029,23.4446947 19.4928932,23.354185 C19.2977317,23.1590235 19.2977317,22.8422397 19.4928932,22.6470782 C19.5834029,22.5565685 19.7085608,22.5007071 19.8471537,22.5007071 L20.5542605,22.5007071 C20.6914392,22.5007071 20.8165971,22.5565685 20.9071068,22.6470782" id="Fill-107" fill="#FFFFFF"></path>
                <mask id="mask-11" fill="white">
                    <use xlink:href="#path-10"></use>
                </mask>
                <use id="Mask" fill="#FFFFFF" fill-rule="nonzero" xlink:href="#path-10"></use>
            </g>
        </g>
        <g id="0:icon32/project/project-template-sealed" transform="translate(0.000000, 280.000000)">
            <g id="0:icon/project/project-template-sealed">
                <g id="Rectangle-50-Copy">
                    <use fill="#AE835D" xlink:href="#path-12"></use>
                    <use fill="url(#linearGradient-8)" xlink:href="#path-12"></use>
                </g>
                <path d="M23.75,8.53434589 C23.75,8.23948874 23.5111429,8.0006316 23.2162857,8.0006316 L22.2837143,8.0006316 C21.9888571,8.0006316 21.75,8.23948874 21.75,8.53434589 C21.75,8.62490767 21.75,8.692829 21.75,8.73810989 C21.75,8.9810457 22.7370946,10.0006316 22.9637848,10.0006316 C23.0198961,10.0006316 23.1040631,10.0006316 23.2162857,10.0006316 C23.5111429,10.0006316 23.75,9.76177446 23.75,9.46691732 L23.75,8.53434589 Z M8.25,8.53434589 C8.25,8.23948874 8.48885714,8.0006316 8.78371429,8.0006316 L9.71628571,8.0006316 C10.0111429,8.0006316 10.25,8.23948874 10.25,8.53434589 C10.25,8.62490767 10.25,8.692829 10.25,8.73810989 C10.25,8.9810457 9.26290538,10.0006316 9.03621521,10.0006316 C8.9801039,10.0006316 8.89593692,10.0006316 8.78371429,10.0006316 C8.48885714,10.0006316 8.25,9.76177446 8.25,9.46691732 L8.25,8.53434589 Z M23.75,22.9669173 C23.75,23.2617745 23.5111429,23.5006316 23.2162857,23.5006316 L22.2837143,23.5006316 C21.9888571,23.5006316 21.75,23.2617745 21.75,22.9669173 C21.75,22.8763555 21.75,22.8084342 21.75,22.7631533 C21.75,22.5202175 22.7370946,21.5006316 22.9637848,21.5006316 C23.1149116,21.5006316 23.1990785,21.5006316 23.2162857,21.5006316 C23.5111429,21.5006316 23.75,21.7394887 23.75,22.0343459 L23.75,22.9669173 Z M8.25,22.9669173 C8.25,23.2617745 8.48885714,23.5006316 8.78371429,23.5006316 L9.71628571,23.5006316 C10.0111429,23.5006316 10.25,23.2617745 10.25,22.9669173 C10.25,22.8763555 10.25,22.8084342 10.25,22.7631533 C10.25,22.5202175 9.26290538,21.5006316 9.03621521,21.5006316 C8.88508844,21.5006316 8.80092146,21.5006316 8.78371429,21.5006316 C8.48885714,21.5006316 8.25,21.7394887 8.25,22.0343459 L8.25,22.9669173 Z M22.8964466,10.8435248 C22.8059369,10.9340345 22.7500755,11.0591924 22.7493684,11.1970782 L22.7493684,11.904185 C22.7500755,12.0420708 22.8059369,12.1672287 22.8964466,12.2577384 C23.0916081,12.4528999 23.4083919,12.4528999 23.6035534,12.2577384 C23.6940631,12.1672287 23.7499245,12.0420708 23.7499245,11.9034779 L23.7499245,11.1963711 C23.7499245,11.0591924 23.6940631,10.9340345 23.6035534,10.8435248 C23.4076848,10.6476562 23.0916081,10.6483633 22.8964466,10.8435248 Z M23.6035534,13.6435248 C23.4083919,13.4483633 23.0916081,13.4483633 22.8964466,13.6435248 C22.8059369,13.7340345 22.7500755,13.8591924 22.7500755,13.9977853 L22.7500755,14.7048921 C22.7500755,14.8420708 22.8059369,14.9672287 22.8964466,15.0577384 C23.0916081,15.2528999 23.4083919,15.2528999 23.6035534,15.0577384 C23.6940631,14.9672287 23.7499245,14.8420708 23.7506316,14.704185 L23.7506316,13.9970782 C23.7499245,13.8591924 23.6940631,13.7340345 23.6035534,13.6435248 M23.6035534,16.4435248 C23.4083919,16.2483633 23.0916081,16.2483633 22.8964466,16.4435248 C22.8059369,16.5340345 22.7500755,16.6591924 22.7493684,16.7970782 L22.7493684,17.504185 C22.7500755,17.6420708 22.8059369,17.7672287 22.8964466,17.8577384 C23.0916081,18.0528999 23.4083919,18.0528999 23.6035534,17.8577384 C23.6940631,17.7672287 23.7499245,17.6420708 23.7499245,17.5034779 L23.7499245,16.7963711 C23.7499245,16.6591924 23.6940631,16.5340345 23.6035534,16.4435248 M22.8964466,19.2435248 C22.8059369,19.3340345 22.7500755,19.4591924 22.7500755,19.5977853 L22.7500755,20.3048921 C22.7500755,20.4420708 22.8059369,20.5672287 22.8964466,20.6577384 C23.0923152,20.853607 23.4083919,20.8528999 23.6035534,20.6577384 C23.6940631,20.5672287 23.7499245,20.4420708 23.7506316,20.304185 L23.7506316,19.5970782 C23.7499245,19.4591924 23.6940631,19.3340345 23.6035534,19.2435248 C23.4083919,19.0483633 23.0916081,19.0483633 22.8964466,19.2435248 M9.10355339,12.2577384 C9.19406306,12.1672287 9.24992449,12.0420708 9.24992449,11.9034779 L9.24992449,11.1963711 C9.24992449,11.0591924 9.19406306,10.9340345 9.10355339,10.8435248 C8.90768481,10.6476562 8.59160808,10.6483633 8.39644661,10.8435248 C8.30593694,10.9340345 8.25007551,11.0591924 8.2493684,11.1970782 L8.2493684,11.904185 C8.25007551,12.0420708 8.30593694,12.1672287 8.39644661,12.2577384 C8.59160808,12.4528999 8.90839192,12.4528999 9.10355339,12.2577384 M8.39644661,15.0577384 C8.59160808,15.2528999 8.90839192,15.2528999 9.10355339,15.0577384 C9.19406306,14.9672287 9.24992449,14.8420708 9.2506316,14.704185 L9.2506316,13.9970782 C9.24992449,13.8591924 9.19406306,13.7340345 9.10355339,13.6435248 C8.90839192,13.4483633 8.59160808,13.4483633 8.39644661,13.6435248 C8.30593694,13.7340345 8.25007551,13.8591924 8.25007551,13.9977853 L8.25007551,14.7048921 C8.25007551,14.8420708 8.30593694,14.9672287 8.39644661,15.0577384 M8.39644661,20.6577384 C8.59231519,20.853607 8.90839192,20.8528999 9.10355339,20.6577384 C9.19406306,20.5672287 9.24992449,20.4420708 9.2506316,20.304185 L9.2506316,19.5970782 C9.24992449,19.4591924 9.19406306,19.3340345 9.10355339,19.2435248 C8.90839192,19.0483633 8.59160808,19.0483633 8.39644661,19.2435248 C8.30593694,19.3340345 8.25007551,19.4591924 8.25007551,19.5977853 L8.25007551,20.3048921 C8.25007551,20.4420708 8.30593694,20.5672287 8.39644661,20.6577384 M8.39644661,17.8577384 C8.59160808,18.0528999 8.90839192,18.0528999 9.10355339,17.8577384 C9.19406306,17.7672287 9.24992449,17.6420708 9.24992449,17.5034779 L9.24992449,16.7963711 C9.24992449,16.6591924 9.19406306,16.5340345 9.10355339,16.4435248 C8.90839192,16.2483633 8.59160808,16.2483633 8.39644661,16.4435248 C8.30593694,16.5340345 8.25007551,16.6591924 8.2493684,16.7970782 L8.2493684,17.504185 C8.25007551,17.6420708 8.30593694,17.7672287 8.39644661,17.8577384 M12.5071068,8.14707821 C12.4165971,8.05656854 12.2914392,8.00070711 12.1535534,8 L11.4464466,8 C11.3085608,8.00070711 11.1834029,8.05656854 11.0928932,8.14707821 C10.8977317,8.34223968 10.8970246,8.65831641 11.0928932,8.85418499 C11.1834029,8.94469466 11.3085608,9.0005561 11.4457395,9.0005561 L12.1528463,9.0005561 C12.2914392,9.0005561 12.4165971,8.94469466 12.5071068,8.85418499 C12.7022683,8.65902352 12.7022683,8.34223968 12.5071068,8.14707821 M15.3071068,8.14707821 C15.2165971,8.05656854 15.0914392,8.00070711 14.9535534,8 L14.2464466,8 C14.1078537,8 13.9834029,8.05656854 13.8928932,8.14707821 C13.6977317,8.34223968 13.6970246,8.65831641 13.8928932,8.85418499 C13.9834029,8.94469466 14.1078537,8.99984899 14.2457395,9.0005561 L14.9528463,9.0005561 C15.0914392,9.0005561 15.2165971,8.94469466 15.3071068,8.85418499 C15.5022683,8.65902352 15.5022683,8.34223968 15.3071068,8.14707821 M18.1071068,8.14707821 C18.0165971,8.05656854 17.8921463,8.00141421 17.7542605,8.00070711 L17.0471537,8.00070711 C16.9085608,8.00070711 16.7834029,8.05656854 16.6928932,8.14707821 C16.4977317,8.34223968 16.4977317,8.65902352 16.6928932,8.85418499 C16.7834029,8.94469466 16.9085608,9.0005561 17.0464466,9.0012632 L17.7535534,9.0012632 C17.8921463,9.0012632 18.0165971,8.94469466 18.1071068,8.85418499 C18.3022683,8.65902352 18.3029754,8.34294679 18.1071068,8.14707821 M20.9071068,8.14707821 C20.8165971,8.05656854 20.6914392,8.00070711 20.5542605,8.00070711 L19.8471537,8.00070711 C19.7085608,8.00070711 19.5834029,8.05656854 19.4928932,8.14707821 C19.2977317,8.34223968 19.2977317,8.65902352 19.4928932,8.85418499 C19.5834029,8.94469466 19.7085608,9.0005561 19.8464466,9.0012632 L20.5535534,9.0012632 C20.6914392,9.0005561 20.8165971,8.94469466 20.9071068,8.85418499 C21.1022683,8.65902352 21.1029754,8.34294679 20.9071068,8.14707821 M12.5071068,22.6470782 C12.4165971,22.5565685 12.2914392,22.5007071 12.1535534,22.5 L11.4464466,22.5 C11.3085608,22.5007071 11.1834029,22.5565685 11.0928932,22.6470782 C10.8977317,22.8422397 10.8970246,23.1583164 11.0928932,23.354185 C11.1834029,23.4446947 11.3085608,23.5005561 11.4457395,23.5005561 L12.1528463,23.5005561 C12.2914392,23.5005561 12.4165971,23.4446947 12.5071068,23.354185 C12.7022683,23.1590235 12.7022683,22.8422397 12.5071068,22.6470782 M15.3071068,22.6470782 C15.2165971,22.5565685 15.0914392,22.5007071 14.9535534,22.5 L14.2464466,22.5 C14.1078537,22.5 13.9834029,22.5565685 13.8928932,22.6470782 C13.6977317,22.8422397 13.6970246,23.1583164 13.8928932,23.354185 C13.9834029,23.4446947 14.1078537,23.499849 14.2457395,23.5005561 L14.9528463,23.5005561 C15.0914392,23.5005561 15.2165971,23.4446947 15.3071068,23.354185 C15.5022683,23.1590235 15.5022683,22.8422397 15.3071068,22.6470782 M18.1071068,22.6470782 C18.0165971,22.5565685 17.8921463,22.5014142 17.7542605,22.5007071 L17.0471537,22.5007071 C16.9085608,22.5007071 16.7834029,22.5565685 16.6928932,22.6470782 C16.4977317,22.8422397 16.4977317,23.1590235 16.6928932,23.354185 C16.7834029,23.4446947 16.9085608,23.5005561 17.0464466,23.5012632 L17.7535534,23.5012632 C17.8921463,23.5012632 18.0165971,23.4446947 18.1071068,23.354185 C18.1976164,23.2636753 18.254185,23.1392245 18.254185,23.0006316 C18.2534779,22.8627458 18.1976164,22.7375879 18.1071068,22.6470782 M20.9071068,22.6470782 C21.1029754,22.8429468 21.1022683,23.1590235 20.9071068,23.354185 C20.8165971,23.4446947 20.6914392,23.5005561 20.5535534,23.5012632 L19.8464466,23.5012632 C19.7085608,23.5005561 19.5834029,23.4446947 19.4928932,23.354185 C19.2977317,23.1590235 19.2977317,22.8422397 19.4928932,22.6470782 C19.5834029,22.5565685 19.7085608,22.5007071 19.8471537,22.5007071 L20.5542605,22.5007071 C20.6914392,22.5007071 20.8165971,22.5565685 20.9071068,22.6470782" id="Fill-107" fill="#FFFFFF"></path>
                <path d="M19.8053579,15.7442844 C19.675691,15.6116979 19.5183444,15.5454543 19.3330747,15.5454543 L19.1109797,15.5454543 L19.1109797,14.1817534 C19.1109797,13.3105628 18.8055048,12.562531 18.1943606,11.9375335 C17.5832649,11.3125112 16.8519155,11 15.9999474,11 C15.1480036,11 14.4165082,11.3125112 13.8054612,11.9375087 C13.1943169,12.562531 12.8888421,13.310538 12.8888421,14.1817534 L12.8888421,15.5454543 L12.6666498,15.5454543 C12.481526,15.5454543 12.3240821,15.6116979 12.1944395,15.7442844 C12.064797,15.8767714 12,16.0377907 12,16.2272924 L12,20.3181217 C12,20.5074493 12.0648213,20.6685183 12.1944395,20.8011297 C12.3240821,20.9335919 12.481526,20.99991 12.6666498,20.99991 L19.3332449,20.99991 C19.5185146,20.99991 19.675837,20.9336665 19.8055282,20.8011297 C19.9350491,20.6685183 19.9999678,20.5074493 19.9999678,20.3181217 L19.9999678,16.2272178 C20.000065,16.0378653 19.9350491,15.8768709 19.8053579,15.7442844 Z M17.7777044,15.5454543 L14.2221903,15.5454543 L14.2221903,14.1817534 C14.2221903,13.6798897 14.3958335,13.2513591 14.7430469,12.8963108 C15.090309,12.5412127 15.5092515,12.363701 16.0000203,12.363701 C16.4908378,12.363701 16.909683,12.5411878 17.2569694,12.8963108 C17.6040856,13.2513342 17.7777044,13.6798897 17.7777044,14.1817534 L17.7777044,15.5454543 Z" id="Shape" fill="#FFFFFF"></path>
            </g>
        </g>
        <g id="0:icon32/project/project-template" transform="translate(0.000000, 240.000000)">
            <g id="0:icon/project/project-template">
                <g id="Rectangle-50-Copy">
                    <use fill="#AE835D" xlink:href="#path-13"></use>
                    <use fill="url(#linearGradient-8)" xlink:href="#path-13"></use>
                </g>
                <path d="M23.75,8.78371429 C23.75,8.48885714 23.5111429,8.25 23.2162857,8.25 L22.2837143,8.25 C21.9888571,8.25 21.75,8.48885714 21.75,8.78371429 C21.75,8.87427606 21.75,8.9421974 21.75,8.98747829 C21.75,9.2304141 22.7370946,10.25 22.9637848,10.25 C23.0198961,10.25 23.1040631,10.25 23.2162857,10.25 C23.5111429,10.25 23.75,10.0111429 23.75,9.71628571 L23.75,8.78371429 Z M8.25,8.78371429 C8.25,8.48885714 8.48885714,8.25 8.78371429,8.25 L9.71628571,8.25 C10.0111429,8.25 10.25,8.48885714 10.25,8.78371429 C10.25,8.87427606 10.25,8.9421974 10.25,8.98747829 C10.25,9.2304141 9.26290538,10.25 9.03621521,10.25 C8.9801039,10.25 8.89593692,10.25 8.78371429,10.25 C8.48885714,10.25 8.25,10.0111429 8.25,9.71628571 L8.25,8.78371429 Z M23.75,23.2162857 C23.75,23.5111429 23.5111429,23.75 23.2162857,23.75 L22.2837143,23.75 C21.9888571,23.75 21.75,23.5111429 21.75,23.2162857 C21.75,23.1257239 21.75,23.0578026 21.75,23.0125217 C21.75,22.7695859 22.7370946,21.75 22.9637848,21.75 C23.1149116,21.75 23.1990785,21.75 23.2162857,21.75 C23.5111429,21.75 23.75,21.9888571 23.75,22.2837143 L23.75,23.2162857 Z M8.25,23.2162857 C8.25,23.5111429 8.48885714,23.75 8.78371429,23.75 L9.71628571,23.75 C10.0111429,23.75 10.25,23.5111429 10.25,23.2162857 C10.25,23.1257239 10.25,23.0578026 10.25,23.0125217 C10.25,22.7695859 9.26290538,21.75 9.03621521,21.75 C8.88508844,21.75 8.80092146,21.75 8.78371429,21.75 C8.48885714,21.75 8.25,21.9888571 8.25,22.2837143 L8.25,23.2162857 Z M22.8964466,11.0928932 C22.8059369,11.1834029 22.7500755,11.3085608 22.7493684,11.4464466 L22.7493684,12.1535534 C22.7500755,12.2914392 22.8059369,12.4165971 22.8964466,12.5071068 C23.0916081,12.7022683 23.4083919,12.7022683 23.6035534,12.5071068 C23.6940631,12.4165971 23.7499245,12.2914392 23.7499245,12.1528463 L23.7499245,11.4457395 C23.7499245,11.3085608 23.6940631,11.1834029 23.6035534,11.0928932 C23.4076848,10.8970246 23.0916081,10.8977317 22.8964466,11.0928932 Z M23.6035534,13.8928932 C23.4083919,13.6977317 23.0916081,13.6977317 22.8964466,13.8928932 C22.8059369,13.9834029 22.7500755,14.1085608 22.7500755,14.2471537 L22.7500755,14.9542605 C22.7500755,15.0914392 22.8059369,15.2165971 22.8964466,15.3071068 C23.0916081,15.5022683 23.4083919,15.5022683 23.6035534,15.3071068 C23.6940631,15.2165971 23.7499245,15.0914392 23.7506316,14.9535534 L23.7506316,14.2464466 C23.7499245,14.1085608 23.6940631,13.9834029 23.6035534,13.8928932 M23.6035534,16.6928932 C23.4083919,16.4977317 23.0916081,16.4977317 22.8964466,16.6928932 C22.8059369,16.7834029 22.7500755,16.9085608 22.7493684,17.0464466 L22.7493684,17.7535534 C22.7500755,17.8914392 22.8059369,18.0165971 22.8964466,18.1071068 C23.0916081,18.3022683 23.4083919,18.3022683 23.6035534,18.1071068 C23.6940631,18.0165971 23.7499245,17.8914392 23.7499245,17.7528463 L23.7499245,17.0457395 C23.7499245,16.9085608 23.6940631,16.7834029 23.6035534,16.6928932 M22.8964466,19.4928932 C22.8059369,19.5834029 22.7500755,19.7085608 22.7500755,19.8471537 L22.7500755,20.5542605 C22.7500755,20.6914392 22.8059369,20.8165971 22.8964466,20.9071068 C23.0923152,21.1029754 23.4083919,21.1022683 23.6035534,20.9071068 C23.6940631,20.8165971 23.7499245,20.6914392 23.7506316,20.5535534 L23.7506316,19.8464466 C23.7499245,19.7085608 23.6940631,19.5834029 23.6035534,19.4928932 C23.4083919,19.2977317 23.0916081,19.2977317 22.8964466,19.4928932 M9.10355339,12.5071068 C9.19406306,12.4165971 9.24992449,12.2914392 9.24992449,12.1528463 L9.24992449,11.4457395 C9.24992449,11.3085608 9.19406306,11.1834029 9.10355339,11.0928932 C8.90768481,10.8970246 8.59160808,10.8977317 8.39644661,11.0928932 C8.30593694,11.1834029 8.25007551,11.3085608 8.2493684,11.4464466 L8.2493684,12.1535534 C8.25007551,12.2914392 8.30593694,12.4165971 8.39644661,12.5071068 C8.59160808,12.7022683 8.90839192,12.7022683 9.10355339,12.5071068 M8.39644661,15.3071068 C8.59160808,15.5022683 8.90839192,15.5022683 9.10355339,15.3071068 C9.19406306,15.2165971 9.24992449,15.0914392 9.2506316,14.9535534 L9.2506316,14.2464466 C9.24992449,14.1085608 9.19406306,13.9834029 9.10355339,13.8928932 C8.90839192,13.6977317 8.59160808,13.6977317 8.39644661,13.8928932 C8.30593694,13.9834029 8.25007551,14.1085608 8.25007551,14.2471537 L8.25007551,14.9542605 C8.25007551,15.0914392 8.30593694,15.2165971 8.39644661,15.3071068 M8.39644661,20.9071068 C8.59231519,21.1029754 8.90839192,21.1022683 9.10355339,20.9071068 C9.19406306,20.8165971 9.24992449,20.6914392 9.2506316,20.5535534 L9.2506316,19.8464466 C9.24992449,19.7085608 9.19406306,19.5834029 9.10355339,19.4928932 C8.90839192,19.2977317 8.59160808,19.2977317 8.39644661,19.4928932 C8.30593694,19.5834029 8.25007551,19.7085608 8.25007551,19.8471537 L8.25007551,20.5542605 C8.25007551,20.6914392 8.30593694,20.8165971 8.39644661,20.9071068 M8.39644661,18.1071068 C8.59160808,18.3022683 8.90839192,18.3022683 9.10355339,18.1071068 C9.19406306,18.0165971 9.24992449,17.8914392 9.24992449,17.7528463 L9.24992449,17.0457395 C9.24992449,16.9085608 9.19406306,16.7834029 9.10355339,16.6928932 C8.90839192,16.4977317 8.59160808,16.4977317 8.39644661,16.6928932 C8.30593694,16.7834029 8.25007551,16.9085608 8.2493684,17.0464466 L8.2493684,17.7535534 C8.25007551,17.8914392 8.30593694,18.0165971 8.39644661,18.1071068 M12.5071068,8.39644661 C12.4165971,8.30593694 12.2914392,8.25007551 12.1535534,8.2493684 L11.4464466,8.2493684 C11.3085608,8.25007551 11.1834029,8.30593694 11.0928932,8.39644661 C10.8977317,8.59160808 10.8970246,8.90768481 11.0928932,9.10355339 C11.1834029,9.19406306 11.3085608,9.24992449 11.4457395,9.24992449 L12.1528463,9.24992449 C12.2914392,9.24992449 12.4165971,9.19406306 12.5071068,9.10355339 C12.7022683,8.90839192 12.7022683,8.59160808 12.5071068,8.39644661 M15.3071068,8.39644661 C15.2165971,8.30593694 15.0914392,8.25007551 14.9535534,8.2493684 L14.2464466,8.2493684 C14.1078537,8.2493684 13.9834029,8.30593694 13.8928932,8.39644661 C13.6977317,8.59160808 13.6970246,8.90768481 13.8928932,9.10355339 C13.9834029,9.19406306 14.1078537,9.24921739 14.2457395,9.24992449 L14.9528463,9.24992449 C15.0914392,9.24992449 15.2165971,9.19406306 15.3071068,9.10355339 C15.5022683,8.90839192 15.5022683,8.59160808 15.3071068,8.39644661 M18.1071068,8.39644661 C18.0165971,8.30593694 17.8921463,8.25078261 17.7542605,8.25007551 L17.0471537,8.25007551 C16.9085608,8.25007551 16.7834029,8.30593694 16.6928932,8.39644661 C16.4977317,8.59160808 16.4977317,8.90839192 16.6928932,9.10355339 C16.7834029,9.19406306 16.9085608,9.24992449 17.0464466,9.2506316 L17.7535534,9.2506316 C17.8921463,9.2506316 18.0165971,9.19406306 18.1071068,9.10355339 C18.3022683,8.90839192 18.3029754,8.59231519 18.1071068,8.39644661 M20.9071068,8.39644661 C20.8165971,8.30593694 20.6914392,8.25007551 20.5542605,8.25007551 L19.8471537,8.25007551 C19.7085608,8.25007551 19.5834029,8.30593694 19.4928932,8.39644661 C19.2977317,8.59160808 19.2977317,8.90839192 19.4928932,9.10355339 C19.5834029,9.19406306 19.7085608,9.24992449 19.8464466,9.2506316 L20.5535534,9.2506316 C20.6914392,9.24992449 20.8165971,9.19406306 20.9071068,9.10355339 C21.1022683,8.90839192 21.1029754,8.59231519 20.9071068,8.39644661 M12.5071068,22.8964466 C12.4165971,22.8059369 12.2914392,22.7500755 12.1535534,22.7493684 L11.4464466,22.7493684 C11.3085608,22.7500755 11.1834029,22.8059369 11.0928932,22.8964466 C10.8977317,23.0916081 10.8970246,23.4076848 11.0928932,23.6035534 C11.1834029,23.6940631 11.3085608,23.7499245 11.4457395,23.7499245 L12.1528463,23.7499245 C12.2914392,23.7499245 12.4165971,23.6940631 12.5071068,23.6035534 C12.7022683,23.4083919 12.7022683,23.0916081 12.5071068,22.8964466 M15.3071068,22.8964466 C15.2165971,22.8059369 15.0914392,22.7500755 14.9535534,22.7493684 L14.2464466,22.7493684 C14.1078537,22.7493684 13.9834029,22.8059369 13.8928932,22.8964466 C13.6977317,23.0916081 13.6970246,23.4076848 13.8928932,23.6035534 C13.9834029,23.6940631 14.1078537,23.7492174 14.2457395,23.7499245 L14.9528463,23.7499245 C15.0914392,23.7499245 15.2165971,23.6940631 15.3071068,23.6035534 C15.5022683,23.4083919 15.5022683,23.0916081 15.3071068,22.8964466 M18.1071068,22.8964466 C18.0165971,22.8059369 17.8921463,22.7507826 17.7542605,22.7500755 L17.0471537,22.7500755 C16.9085608,22.7500755 16.7834029,22.8059369 16.6928932,22.8964466 C16.4977317,23.0916081 16.4977317,23.4083919 16.6928932,23.6035534 C16.7834029,23.6940631 16.9085608,23.7499245 17.0464466,23.7506316 L17.7535534,23.7506316 C17.8921463,23.7506316 18.0165971,23.6940631 18.1071068,23.6035534 C18.1976164,23.5130437 18.254185,23.3885929 18.254185,23.25 C18.2534779,23.1121142 18.1976164,22.9869563 18.1071068,22.8964466 M20.9071068,22.8964466 C21.1029754,23.0923152 21.1022683,23.4083919 20.9071068,23.6035534 C20.8165971,23.6940631 20.6914392,23.7499245 20.5535534,23.7506316 L19.8464466,23.7506316 C19.7085608,23.7499245 19.5834029,23.6940631 19.4928932,23.6035534 C19.2977317,23.4083919 19.2977317,23.0916081 19.4928932,22.8964466 C19.5834029,22.8059369 19.7085608,22.7500755 19.8471537,22.7500755 L20.5542605,22.7500755 C20.6914392,22.7500755 20.8165971,22.8059369 20.9071068,22.8964466" id="Fill-107" fill="#FFFFFF"></path>
                <path d="M11,11.9712 C11,11.4352 11.435,11.0002 11.972,11.0002 L14.278,11.0002 C14.815,11.0002 15.25,11.4352 15.25,11.9712 L15.25,14.2792 C15.25,14.8152 14.815,15.2502 14.278,15.2502 L11.972,15.2502 C11.435,15.2502 11,14.8152 11,14.2792 L11,11.9712 Z M11,17.7212 C11,17.1852 11.435,16.7502 11.972,16.7502 L14.028,16.7502 C14.565,16.7502 15,17.1852 15,17.7212 L15,20.0292 C15,20.5652 14.565,21.0002 14.028,21.0002 L11.972,21.0002 C11.435,21.0002 11,20.5652 11,20.0292 L11,17.7212 Z M16.75,11.9712 C16.75,11.4352 17.185,11.0002 17.722,11.0002 L20.028,11.0002 C20.565,11.0002 21,11.4352 21,11.9712 L21,14.0002 C21,14.5362 20.565,14.9712 20.028,14.9712 L17.722,14.9712 C17.185,14.9712 16.75,14.5362 16.75,14.0002 L16.75,11.9712 Z M16.25,16.7172 C16.25,16.4592 16.459,16.2502 16.717,16.2502 L17.533,16.2502 C17.791,16.2502 18,16.4592 18,16.7172 L18,17.5332 C18,17.7912 17.791,18.0002 17.533,18.0002 L16.717,18.0002 C16.459,18.0002 16.25,17.7912 16.25,17.5332 L16.25,16.7172 Z M16.25,19.7172 C16.25,19.4592 16.459,19.2502 16.717,19.2502 L17.533,19.2502 C17.791,19.2502 18,19.4592 18,19.7172 L18,20.5332 C18,20.7912 17.791,21.0002 17.533,21.0002 L16.717,21.0002 C16.459,21.0002 16.25,20.7912 16.25,20.5332 L16.25,19.7172 Z M19.25,16.7172 C19.25,16.4592 19.459,16.2502 19.717,16.2502 L20.533,16.2502 C20.791,16.2502 21,16.4592 21,16.7172 L21,17.5332 C21,17.7912 20.791,18.0002 20.533,18.0002 L19.717,18.0002 C19.459,18.0002 19.25,17.7912 19.25,17.5332 L19.25,16.7172 Z M19.25,19.7172 C19.25,19.4592 19.459,19.2502 19.717,19.2502 L20.533,19.2502 C20.791,19.2502 21,19.4592 21,19.7172 L21,20.5332 C21,20.7912 20.791,21.0002 20.533,21.0002 L19.717,21.0002 C19.459,21.0002 19.25,20.7912 19.25,20.5332 L19.25,19.7172 Z" id="Fill-292" fill="#FFFFFF"></path>
            </g>
        </g>
        <g id="0:icon32/project/project-double-sealed-test" transform="translate(0.000000, 200.000000)">
            <g id="ikon-project-copy">
                <rect id="Rectangle-50-Copy" fill="url(#linearGradient-14)" x="0" y="0" width="32" height="32" rx="2"></rect>
                <mask id="mask-16" fill="white">
                    <use xlink:href="#path-15"></use>
                </mask>
                <use id="Mask" fill="#FFFFFF" fill-rule="nonzero" xlink:href="#path-15"></use>
            </g>
        </g>
        <g id="0:icon32/project/project-sealed-test" transform="translate(0.000000, 160.000000)">
            <g id="ikon-project-copy">
                <rect id="Rectangle-50-Copy" fill="url(#linearGradient-14)" x="0" y="0" width="32" height="32" rx="2"></rect>
                <path d="M24.0253744,16.1327842 C23.7757647,15.8775541 23.4728711,15.7500348 23.1162256,15.7500348 L22.688691,15.7500348 L22.688691,13.1248999 C22.688691,11.4478514 22.1006496,10.0078843 20.9241921,8.80475933 C19.7478282,7.60158644 18.3399749,7 16.6999297,7 C15.0599313,7 13.651797,7.60158644 12.4755268,8.80471144 C11.2990693,10.0078843 10.7110278,11.4478035 10.7110278,13.1248999 L10.7110278,15.7500348 L10.283306,15.7500348 C9.92694137,15.7500348 9.62386052,15.8775541 9.37429758,16.1327842 C9.12473465,16.3878228 9,16.6977861 9,17.0625784 L9,24.9374565 C9,25.3019136 9.12478147,25.6119726 9.37429758,25.8672506 C9.62386052,26.1222413 9.92694137,26.2499042 10.283306,26.2499042 L23.1165533,26.2499042 C23.4731989,26.2499042 23.7760456,26.122385 24.0257022,25.8672506 C24.275031,25.6119726 24.4,25.3019136 24.4,24.9374565 L24.4,17.0624347 C24.4001871,16.6979297 24.275031,16.3880143 24.0253744,16.1327842 Z M20.1221258,15.7500348 L13.2777335,15.7500348 L13.2777335,13.1248999 C13.2777335,12.1588085 13.611998,11.3338837 14.2803865,10.6504129 C14.9488687,9.96684639 15.7553363,9.62513495 16.7000701,9.62513495 C17.6448976,9.62513495 18.4511779,9.96679851 19.1197069,10.6504129 C19.7879081,11.3338358 20.1221258,12.1588085 20.1221258,13.1248999 L20.1221258,15.7500348 Z" id="Shape" fill="#FFFFFF"></path>
            </g>
        </g>
        <g id="0:icon32/project/project-test" transform="translate(0.000000, 120.000000)">
            <g id="0:icon/events/project">
                <rect id="Rectangle-50-Copy" fill="url(#linearGradient-14)" x="0" y="0" width="32" height="32" rx="2"></rect>
                <path d="M8,10.0059191 C8,8.89808055 8.88655484,8 10.0059191,8 L12.9940809,8 C14.1019194,8 15,8.88655484 15,10.0059191 L15,12.9940809 C15,14.1019194 14.1134452,15 12.9940809,15 L10.0059191,15 C8.89808055,15 8,14.1134452 8,12.9940809 L8,10.0059191 Z M8,19.0059191 C8,17.8980806 8.88655484,17 10.0059191,17 L12.9940809,17 C14.1019194,17 15,17.8865548 15,19.0059191 L15,21.9940809 C15,23.1019194 14.1134452,24 12.9940809,24 L10.0059191,24 C8.89808055,24 8,23.1134452 8,21.9940809 L8,19.0059191 Z M17,10.0059191 C17,8.89808055 17.8865548,8 19.0059191,8 L21.9940809,8 C23.1019194,8 24,8.88655484 24,10.0059191 L24,12.9940809 C24,14.1019194 23.1134452,15 21.9940809,15 L19.0059191,15 C17.8980806,15 17,14.1134452 17,12.9940809 L17,10.0059191 Z M17,17.9989566 C17,17.4472481 17.4426603,17 17.9989566,17 L19.0010434,17 C19.5527519,17 20,17.4426603 20,17.9989566 L20,19.0010434 C20,19.5527519 19.5573397,20 19.0010434,20 L17.9989566,20 C17.4472481,20 17,19.5573397 17,19.0010434 L17,17.9989566 Z M17,21.9989566 C17,21.4472481 17.4426603,21 17.9989566,21 L19.0010434,21 C19.5527519,21 20,21.4426603 20,21.9989566 L20,23.0010434 C20,23.5527519 19.5573397,24 19.0010434,24 L17.9989566,24 C17.4472481,24 17,23.5573397 17,23.0010434 L17,21.9989566 Z M21,17.9989566 C21,17.4472481 21.4426603,17 21.9989566,17 L23.0010434,17 C23.5527519,17 24,17.4426603 24,17.9989566 L24,19.0010434 C24,19.5527519 23.5573397,20 23.0010434,20 L21.9989566,20 C21.4472481,20 21,19.5573397 21,19.0010434 L21,17.9989566 Z M21,21.9989566 C21,21.4472481 21.4426603,21 21.9989566,21 L23.0010434,21 C23.5527519,21 24,21.4426603 24,21.9989566 L24,23.0010434 C24,23.5527519 23.5573397,24 23.0010434,24 L21.9989566,24 C21.4472481,24 21,23.5573397 21,23.0010434 L21,21.9989566 Z" id="Combined-Shape-Copy-11" fill="#FFFFFF"></path>
            </g>
        </g>
        <g id="0:icon32/project/project-double-sealed" transform="translate(0.000000, 80.000000)">
            <g id="ikon-project-copy">
                <rect id="Rectangle-50-Copy" fill="url(#linearGradient-17)" x="0" y="0" width="32" height="32" rx="2"></rect>
                <mask id="mask-19" fill="white">
                    <use xlink:href="#path-18"></use>
                </mask>
                <use id="Mask" fill="#FFFFFF" fill-rule="nonzero" xlink:href="#path-18"></use>
            </g>
        </g>
        <g id="0:icon32/project/project-sealed" transform="translate(0.000000, 40.000000)">
            <g id="ikon-project-copy">
                <rect id="Rectangle-50-Copy" fill="url(#linearGradient-17)" x="0" y="0" width="32" height="32" rx="2"></rect>
                <path d="M24.0253744,16.1327842 C23.7757647,15.8775541 23.4728711,15.7500348 23.1162256,15.7500348 L22.688691,15.7500348 L22.688691,13.1248999 C22.688691,11.4478514 22.1006496,10.0078843 20.9241921,8.80475933 C19.7478282,7.60158644 18.3399749,7 16.6999297,7 C15.0599313,7 13.651797,7.60158644 12.4755268,8.80471144 C11.2990693,10.0078843 10.7110278,11.4478035 10.7110278,13.1248999 L10.7110278,15.7500348 L10.283306,15.7500348 C9.92694137,15.7500348 9.62386052,15.8775541 9.37429758,16.1327842 C9.12473465,16.3878228 9,16.6977861 9,17.0625784 L9,24.9374565 C9,25.3019136 9.12478147,25.6119726 9.37429758,25.8672506 C9.62386052,26.1222413 9.92694137,26.2499042 10.283306,26.2499042 L23.1165533,26.2499042 C23.4731989,26.2499042 23.7760456,26.122385 24.0257022,25.8672506 C24.275031,25.6119726 24.4,25.3019136 24.4,24.9374565 L24.4,17.0624347 C24.4001871,16.6979297 24.275031,16.3880143 24.0253744,16.1327842 Z M20.1221258,15.7500348 L13.2777335,15.7500348 L13.2777335,13.1248999 C13.2777335,12.1588085 13.611998,11.3338837 14.2803865,10.6504129 C14.9488687,9.96684639 15.7553363,9.62513495 16.7000701,9.62513495 C17.6448976,9.62513495 18.4511779,9.96679851 19.1197069,10.6504129 C19.7879081,11.3338358 20.1221258,12.1588085 20.1221258,13.1248999 L20.1221258,15.7500348 Z" id="Shape" fill="#FFFFFF"></path>
            </g>
        </g>
        <g id="0:icon32/project/project">
            <g id="0:icon/events/project">
                <rect id="Rectangle-50-Copy" fill="url(#linearGradient-17)" x="0" y="0" width="32" height="32" rx="2"></rect>
                <path d="M8,10.0059191 C8,8.89808055 8.88655484,8 10.0059191,8 L12.9940809,8 C14.1019194,8 15,8.88655484 15,10.0059191 L15,12.9940809 C15,14.1019194 14.1134452,15 12.9940809,15 L10.0059191,15 C8.89808055,15 8,14.1134452 8,12.9940809 L8,10.0059191 Z M8,19.0059191 C8,17.8980806 8.88655484,17 10.0059191,17 L12.9940809,17 C14.1019194,17 15,17.8865548 15,19.0059191 L15,21.9940809 C15,23.1019194 14.1134452,24 12.9940809,24 L10.0059191,24 C8.89808055,24 8,23.1134452 8,21.9940809 L8,19.0059191 Z M17,10.0059191 C17,8.89808055 17.8865548,8 19.0059191,8 L21.9940809,8 C23.1019194,8 24,8.88655484 24,10.0059191 L24,12.9940809 C24,14.1019194 23.1134452,15 21.9940809,15 L19.0059191,15 C17.8980806,15 17,14.1134452 17,12.9940809 L17,10.0059191 Z M17,17.9989566 C17,17.4472481 17.4426603,17 17.9989566,17 L19.0010434,17 C19.5527519,17 20,17.4426603 20,17.9989566 L20,19.0010434 C20,19.5527519 19.5573397,20 19.0010434,20 L17.9989566,20 C17.4472481,20 17,19.5573397 17,19.0010434 L17,17.9989566 Z M17,21.9989566 C17,21.4472481 17.4426603,21 17.9989566,21 L19.0010434,21 C19.5527519,21 20,21.4426603 20,21.9989566 L20,23.0010434 C20,23.5527519 19.5573397,24 19.0010434,24 L17.9989566,24 C17.4472481,24 17,23.5573397 17,23.0010434 L17,21.9989566 Z M21,17.9989566 C21,17.4472481 21.4426603,17 21.9989566,17 L23.0010434,17 C23.5527519,17 24,17.4426603 24,17.9989566 L24,19.0010434 C24,19.5527519 23.5573397,20 23.0010434,20 L21.9989566,20 C21.4472481,20 21,19.5573397 21,19.0010434 L21,17.9989566 Z M21,21.9989566 C21,21.4472481 21.4426603,21 21.9989566,21 L23.0010434,21 C23.5527519,21 24,21.4426603 24,21.9989566 L24,23.0010434 C24,23.5527519 23.5573397,24 23.0010434,24 L21.9989566,24 C21.4472481,24 21,23.5573397 21,23.0010434 L21,21.9989566 Z" id="Combined-Shape-Copy-11" fill="#FFFFFF"></path>
            </g>
        </g>
    </g>
</svg>