<?xml version="1.0" encoding="UTF-8"?>
<svg width="1280px" height="1024px" viewBox="0 0 1280 1024" version="1.1" xmlns="http://www.w3.org/2000/svg" xmlns:xlink="http://www.w3.org/1999/xlink">
    <!-- Generator: Sketch 55.1 (78136) - https://sketchapp.com -->
    <title>sprite_icons_cso_32x32</title>
    <desc>Created with Sketch.</desc>
    <defs>
        <linearGradient x1="0%" y1="0%" x2="101.477557%" y2="100.48268%" id="linearGradient-1">
            <stop stop-color="#00AAA8" offset="0%"></stop>
            <stop stop-color="#7BD500" offset="100%"></stop>
        </linearGradient>
        <linearGradient x1="0%" y1="0%" x2="101.999998%" y2="100.999999%" id="linearGradient-2">
            <stop stop-color="#3023AE" offset="0%"></stop>
            <stop stop-color="#C86DD7" offset="100%"></stop>
        </linearGradient>
        <rect id="path-3" x="0" y="0" width="32" height="32" rx="2"></rect>
        <rect id="path-4" x="0" y="0" width="32" height="32" rx="2"></rect>
        <linearGradient x1="0%" y1="0%" x2="101.477557%" y2="100.48268%" id="linearGradient-5">
            <stop stop-color="#006BD0" offset="0%"></stop>
            <stop stop-color="#00B6D5" offset="100%"></stop>
        </linearGradient>
    </defs>
    <g id="sprite_icons_cso_32x32" stroke="none" stroke-width="1" fill="none" fill-rule="evenodd">
        <g id="0:icon/project/project-predefined-sealed" transform="translate(0.000000, 200.000000)">
            <g>
                <rect id="Rectangle-50-Copy" fill="url(#linearGradient-1)" x="0" y="0" width="32" height="32" rx="2"></rect>
                <path d="M23.75,8.53434589 C23.75,8.23948874 23.5111429,8.0006316 23.2162857,8.0006316 L22.2837143,8.0006316 C21.9888571,8.0006316 21.75,8.23948874 21.75,8.53434589 C21.75,8.62490767 21.75,8.692829 21.75,8.73810989 C21.75,8.9810457 22.7370946,10.0006316 22.9637848,10.0006316 C23.0198961,10.0006316 23.1040631,10.0006316 23.2162857,10.0006316 C23.5111429,10.0006316 23.75,9.76177446 23.75,9.46691732 L23.75,8.53434589 Z M8.25,8.53434589 C8.25,8.23948874 8.48885714,8.0006316 8.78371429,8.0006316 L9.71628571,8.0006316 C10.0111429,8.0006316 10.25,8.23948874 10.25,8.53434589 C10.25,8.62490767 10.25,8.692829 10.25,8.73810989 C10.25,8.9810457 9.26290538,10.0006316 9.03621521,10.0006316 C8.9801039,10.0006316 8.89593692,10.0006316 8.78371429,10.0006316 C8.48885714,10.0006316 8.25,9.76177446 8.25,9.46691732 L8.25,8.53434589 Z M23.75,22.9669173 C23.75,23.2617745 23.5111429,23.5006316 23.2162857,23.5006316 L22.2837143,23.5006316 C21.9888571,23.5006316 21.75,23.2617745 21.75,22.9669173 C21.75,22.8763555 21.75,22.8084342 21.75,22.7631533 C21.75,22.5202175 22.7370946,21.5006316 22.9637848,21.5006316 C23.1149116,21.5006316 23.1990785,21.5006316 23.2162857,21.5006316 C23.5111429,21.5006316 23.75,21.7394887 23.75,22.0343459 L23.75,22.9669173 Z M8.25,22.9669173 C8.25,23.2617745 8.48885714,23.5006316 8.78371429,23.5006316 L9.71628571,23.5006316 C10.0111429,23.5006316 10.25,23.2617745 10.25,22.9669173 C10.25,22.8763555 10.25,22.8084342 10.25,22.7631533 C10.25,22.5202175 9.26290538,21.5006316 9.03621521,21.5006316 C8.88508844,21.5006316 8.80092146,21.5006316 8.78371429,21.5006316 C8.48885714,21.5006316 8.25,21.7394887 8.25,22.0343459 L8.25,22.9669173 Z M22.8964466,10.8435248 C22.8059369,10.9340345 22.7500755,11.0591924 22.7493684,11.1970782 L22.7493684,11.904185 C22.7500755,12.0420708 22.8059369,12.1672287 22.8964466,12.2577384 C23.0916081,12.4528999 23.4083919,12.4528999 23.6035534,12.2577384 C23.6940631,12.1672287 23.7499245,12.0420708 23.7499245,11.9034779 L23.7499245,11.1963711 C23.7499245,11.0591924 23.6940631,10.9340345 23.6035534,10.8435248 C23.4076848,10.6476562 23.0916081,10.6483633 22.8964466,10.8435248 Z M23.6035534,13.6435248 C23.4083919,13.4483633 23.0916081,13.4483633 22.8964466,13.6435248 C22.8059369,13.7340345 22.7500755,13.8591924 22.7500755,13.9977853 L22.7500755,14.7048921 C22.7500755,14.8420708 22.8059369,14.9672287 22.8964466,15.0577384 C23.0916081,15.2528999 23.4083919,15.2528999 23.6035534,15.0577384 C23.6940631,14.9672287 23.7499245,14.8420708 23.7506316,14.704185 L23.7506316,13.9970782 C23.7499245,13.8591924 23.6940631,13.7340345 23.6035534,13.6435248 M23.6035534,16.4435248 C23.4083919,16.2483633 23.0916081,16.2483633 22.8964466,16.4435248 C22.8059369,16.5340345 22.7500755,16.6591924 22.7493684,16.7970782 L22.7493684,17.504185 C22.7500755,17.6420708 22.8059369,17.7672287 22.8964466,17.8577384 C23.0916081,18.0528999 23.4083919,18.0528999 23.6035534,17.8577384 C23.6940631,17.7672287 23.7499245,17.6420708 23.7499245,17.5034779 L23.7499245,16.7963711 C23.7499245,16.6591924 23.6940631,16.5340345 23.6035534,16.4435248 M22.8964466,19.2435248 C22.8059369,19.3340345 22.7500755,19.4591924 22.7500755,19.5977853 L22.7500755,20.3048921 C22.7500755,20.4420708 22.8059369,20.5672287 22.8964466,20.6577384 C23.0923152,20.853607 23.4083919,20.8528999 23.6035534,20.6577384 C23.6940631,20.5672287 23.7499245,20.4420708 23.7506316,20.304185 L23.7506316,19.5970782 C23.7499245,19.4591924 23.6940631,19.3340345 23.6035534,19.2435248 C23.4083919,19.0483633 23.0916081,19.0483633 22.8964466,19.2435248 M9.10355339,12.2577384 C9.19406306,12.1672287 9.24992449,12.0420708 9.24992449,11.9034779 L9.24992449,11.1963711 C9.24992449,11.0591924 9.19406306,10.9340345 9.10355339,10.8435248 C8.90768481,10.6476562 8.59160808,10.6483633 8.39644661,10.8435248 C8.30593694,10.9340345 8.25007551,11.0591924 8.2493684,11.1970782 L8.2493684,11.904185 C8.25007551,12.0420708 8.30593694,12.1672287 8.39644661,12.2577384 C8.59160808,12.4528999 8.90839192,12.4528999 9.10355339,12.2577384 M8.39644661,15.0577384 C8.59160808,15.2528999 8.90839192,15.2528999 9.10355339,15.0577384 C9.19406306,14.9672287 9.24992449,14.8420708 9.2506316,14.704185 L9.2506316,13.9970782 C9.24992449,13.8591924 9.19406306,13.7340345 9.10355339,13.6435248 C8.90839192,13.4483633 8.59160808,13.4483633 8.39644661,13.6435248 C8.30593694,13.7340345 8.25007551,13.8591924 8.25007551,13.9977853 L8.25007551,14.7048921 C8.25007551,14.8420708 8.30593694,14.9672287 8.39644661,15.0577384 M8.39644661,20.6577384 C8.59231519,20.853607 8.90839192,20.8528999 9.10355339,20.6577384 C9.19406306,20.5672287 9.24992449,20.4420708 9.2506316,20.304185 L9.2506316,19.5970782 C9.24992449,19.4591924 9.19406306,19.3340345 9.10355339,19.2435248 C8.90839192,19.0483633 8.59160808,19.0483633 8.39644661,19.2435248 C8.30593694,19.3340345 8.25007551,19.4591924 8.25007551,19.5977853 L8.25007551,20.3048921 C8.25007551,20.4420708 8.30593694,20.5672287 8.39644661,20.6577384 M8.39644661,17.8577384 C8.59160808,18.0528999 8.90839192,18.0528999 9.10355339,17.8577384 C9.19406306,17.7672287 9.24992449,17.6420708 9.24992449,17.5034779 L9.24992449,16.7963711 C9.24992449,16.6591924 9.19406306,16.5340345 9.10355339,16.4435248 C8.90839192,16.2483633 8.59160808,16.2483633 8.39644661,16.4435248 C8.30593694,16.5340345 8.25007551,16.6591924 8.2493684,16.7970782 L8.2493684,17.504185 C8.25007551,17.6420708 8.30593694,17.7672287 8.39644661,17.8577384 M12.5071068,8.14707821 C12.4165971,8.05656854 12.2914392,8.00070711 12.1535534,8 L11.4464466,8 C11.3085608,8.00070711 11.1834029,8.05656854 11.0928932,8.14707821 C10.8977317,8.34223968 10.8970246,8.65831641 11.0928932,8.85418499 C11.1834029,8.94469466 11.3085608,9.0005561 11.4457395,9.0005561 L12.1528463,9.0005561 C12.2914392,9.0005561 12.4165971,8.94469466 12.5071068,8.85418499 C12.7022683,8.65902352 12.7022683,8.34223968 12.5071068,8.14707821 M15.3071068,8.14707821 C15.2165971,8.05656854 15.0914392,8.00070711 14.9535534,8 L14.2464466,8 C14.1078537,8 13.9834029,8.05656854 13.8928932,8.14707821 C13.6977317,8.34223968 13.6970246,8.65831641 13.8928932,8.85418499 C13.9834029,8.94469466 14.1078537,8.99984899 14.2457395,9.0005561 L14.9528463,9.0005561 C15.0914392,9.0005561 15.2165971,8.94469466 15.3071068,8.85418499 C15.5022683,8.65902352 15.5022683,8.34223968 15.3071068,8.14707821 M18.1071068,8.14707821 C18.0165971,8.05656854 17.8921463,8.00141421 17.7542605,8.00070711 L17.0471537,8.00070711 C16.9085608,8.00070711 16.7834029,8.05656854 16.6928932,8.14707821 C16.4977317,8.34223968 16.4977317,8.65902352 16.6928932,8.85418499 C16.7834029,8.94469466 16.9085608,9.0005561 17.0464466,9.0012632 L17.7535534,9.0012632 C17.8921463,9.0012632 18.0165971,8.94469466 18.1071068,8.85418499 C18.3022683,8.65902352 18.3029754,8.34294679 18.1071068,8.14707821 M20.9071068,8.14707821 C20.8165971,8.05656854 20.6914392,8.00070711 20.5542605,8.00070711 L19.8471537,8.00070711 C19.7085608,8.00070711 19.5834029,8.05656854 19.4928932,8.14707821 C19.2977317,8.34223968 19.2977317,8.65902352 19.4928932,8.85418499 C19.5834029,8.94469466 19.7085608,9.0005561 19.8464466,9.0012632 L20.5535534,9.0012632 C20.6914392,9.0005561 20.8165971,8.94469466 20.9071068,8.85418499 C21.1022683,8.65902352 21.1029754,8.34294679 20.9071068,8.14707821 M12.5071068,22.6470782 C12.4165971,22.5565685 12.2914392,22.5007071 12.1535534,22.5 L11.4464466,22.5 C11.3085608,22.5007071 11.1834029,22.5565685 11.0928932,22.6470782 C10.8977317,22.8422397 10.8970246,23.1583164 11.0928932,23.354185 C11.1834029,23.4446947 11.3085608,23.5005561 11.4457395,23.5005561 L12.1528463,23.5005561 C12.2914392,23.5005561 12.4165971,23.4446947 12.5071068,23.354185 C12.7022683,23.1590235 12.7022683,22.8422397 12.5071068,22.6470782 M15.3071068,22.6470782 C15.2165971,22.5565685 15.0914392,22.5007071 14.9535534,22.5 L14.2464466,22.5 C14.1078537,22.5 13.9834029,22.5565685 13.8928932,22.6470782 C13.6977317,22.8422397 13.6970246,23.1583164 13.8928932,23.354185 C13.9834029,23.4446947 14.1078537,23.499849 14.2457395,23.5005561 L14.9528463,23.5005561 C15.0914392,23.5005561 15.2165971,23.4446947 15.3071068,23.354185 C15.5022683,23.1590235 15.5022683,22.8422397 15.3071068,22.6470782 M18.1071068,22.6470782 C18.0165971,22.5565685 17.8921463,22.5014142 17.7542605,22.5007071 L17.0471537,22.5007071 C16.9085608,22.5007071 16.7834029,22.5565685 16.6928932,22.6470782 C16.4977317,22.8422397 16.4977317,23.1590235 16.6928932,23.354185 C16.7834029,23.4446947 16.9085608,23.5005561 17.0464466,23.5012632 L17.7535534,23.5012632 C17.8921463,23.5012632 18.0165971,23.4446947 18.1071068,23.354185 C18.1976164,23.2636753 18.254185,23.1392245 18.254185,23.0006316 C18.2534779,22.8627458 18.1976164,22.7375879 18.1071068,22.6470782 M20.9071068,22.6470782 C21.1029754,22.8429468 21.1022683,23.1590235 20.9071068,23.354185 C20.8165971,23.4446947 20.6914392,23.5005561 20.5535534,23.5012632 L19.8464466,23.5012632 C19.7085608,23.5005561 19.5834029,23.4446947 19.4928932,23.354185 C19.2977317,23.1590235 19.2977317,22.8422397 19.4928932,22.6470782 C19.5834029,22.5565685 19.7085608,22.5007071 19.8471537,22.5007071 L20.5542605,22.5007071 C20.6914392,22.5007071 20.8165971,22.5565685 20.9071068,22.6470782" id="Fill-107" fill="#FFFFFF"></path>
                <path d="M19.8053579,15.7442844 C19.675691,15.6116979 19.5183444,15.5454543 19.3330747,15.5454543 L19.1109797,15.5454543 L19.1109797,14.1817534 C19.1109797,13.3105628 18.8055048,12.562531 18.1943606,11.9375335 C17.5832649,11.3125112 16.8519155,11 15.9999474,11 C15.1480036,11 14.4165082,11.3125112 13.8054612,11.9375087 C13.1943169,12.562531 12.8888421,13.310538 12.8888421,14.1817534 L12.8888421,15.5454543 L12.6666498,15.5454543 C12.481526,15.5454543 12.3240821,15.6116979 12.1944395,15.7442844 C12.064797,15.8767714 12,16.0377907 12,16.2272924 L12,20.3181217 C12,20.5074493 12.0648213,20.6685183 12.1944395,20.8011297 C12.3240821,20.9335919 12.481526,20.99991 12.6666498,20.99991 L19.3332449,20.99991 C19.5185146,20.99991 19.675837,20.9336665 19.8055282,20.8011297 C19.9350491,20.6685183 19.9999678,20.5074493 19.9999678,20.3181217 L19.9999678,16.2272178 C20.000065,16.0378653 19.9350491,15.8768709 19.8053579,15.7442844 Z M17.7777044,15.5454543 L14.2221903,15.5454543 L14.2221903,14.1817534 C14.2221903,13.6798897 14.3958335,13.2513591 14.7430469,12.8963108 C15.090309,12.5412127 15.5092515,12.363701 16.0000203,12.363701 C16.4908378,12.363701 16.909683,12.5411878 17.2569694,12.8963108 C17.6040856,13.2513342 17.7777044,13.6798897 17.7777044,14.1817534 L17.7777044,15.5454543 Z" id="Shape" fill="#FFFFFF"></path>
            </g>
        </g>
        <g id="0:icon/project/project-predefined" transform="translate(0.000000, 160.000000)">
            <g>
                <rect id="Rectangle-50-Copy" fill="url(#linearGradient-1)" x="0" y="0" width="32" height="32" rx="2"></rect>
                <path d="M23.75,8.53434589 C23.75,8.23948874 23.5111429,8.0006316 23.2162857,8.0006316 L22.2837143,8.0006316 C21.9888571,8.0006316 21.75,8.23948874 21.75,8.53434589 C21.75,8.62490767 21.75,8.692829 21.75,8.73810989 C21.75,8.9810457 22.7370946,10.0006316 22.9637848,10.0006316 C23.0198961,10.0006316 23.1040631,10.0006316 23.2162857,10.0006316 C23.5111429,10.0006316 23.75,9.76177446 23.75,9.46691732 L23.75,8.53434589 Z M8.25,8.53434589 C8.25,8.23948874 8.48885714,8.0006316 8.78371429,8.0006316 L9.71628571,8.0006316 C10.0111429,8.0006316 10.25,8.23948874 10.25,8.53434589 C10.25,8.62490767 10.25,8.692829 10.25,8.73810989 C10.25,8.9810457 9.26290538,10.0006316 9.03621521,10.0006316 C8.9801039,10.0006316 8.89593692,10.0006316 8.78371429,10.0006316 C8.48885714,10.0006316 8.25,9.76177446 8.25,9.46691732 L8.25,8.53434589 Z M23.75,22.9669173 C23.75,23.2617745 23.5111429,23.5006316 23.2162857,23.5006316 L22.2837143,23.5006316 C21.9888571,23.5006316 21.75,23.2617745 21.75,22.9669173 C21.75,22.8763555 21.75,22.8084342 21.75,22.7631533 C21.75,22.5202175 22.7370946,21.5006316 22.9637848,21.5006316 C23.1149116,21.5006316 23.1990785,21.5006316 23.2162857,21.5006316 C23.5111429,21.5006316 23.75,21.7394887 23.75,22.0343459 L23.75,22.9669173 Z M8.25,22.9669173 C8.25,23.2617745 8.48885714,23.5006316 8.78371429,23.5006316 L9.71628571,23.5006316 C10.0111429,23.5006316 10.25,23.2617745 10.25,22.9669173 C10.25,22.8763555 10.25,22.8084342 10.25,22.7631533 C10.25,22.5202175 9.26290538,21.5006316 9.03621521,21.5006316 C8.88508844,21.5006316 8.80092146,21.5006316 8.78371429,21.5006316 C8.48885714,21.5006316 8.25,21.7394887 8.25,22.0343459 L8.25,22.9669173 Z M22.8964466,10.8435248 C22.8059369,10.9340345 22.7500755,11.0591924 22.7493684,11.1970782 L22.7493684,11.904185 C22.7500755,12.0420708 22.8059369,12.1672287 22.8964466,12.2577384 C23.0916081,12.4528999 23.4083919,12.4528999 23.6035534,12.2577384 C23.6940631,12.1672287 23.7499245,12.0420708 23.7499245,11.9034779 L23.7499245,11.1963711 C23.7499245,11.0591924 23.6940631,10.9340345 23.6035534,10.8435248 C23.4076848,10.6476562 23.0916081,10.6483633 22.8964466,10.8435248 Z M23.6035534,13.6435248 C23.4083919,13.4483633 23.0916081,13.4483633 22.8964466,13.6435248 C22.8059369,13.7340345 22.7500755,13.8591924 22.7500755,13.9977853 L22.7500755,14.7048921 C22.7500755,14.8420708 22.8059369,14.9672287 22.8964466,15.0577384 C23.0916081,15.2528999 23.4083919,15.2528999 23.6035534,15.0577384 C23.6940631,14.9672287 23.7499245,14.8420708 23.7506316,14.704185 L23.7506316,13.9970782 C23.7499245,13.8591924 23.6940631,13.7340345 23.6035534,13.6435248 M23.6035534,16.4435248 C23.4083919,16.2483633 23.0916081,16.2483633 22.8964466,16.4435248 C22.8059369,16.5340345 22.7500755,16.6591924 22.7493684,16.7970782 L22.7493684,17.504185 C22.7500755,17.6420708 22.8059369,17.7672287 22.8964466,17.8577384 C23.0916081,18.0528999 23.4083919,18.0528999 23.6035534,17.8577384 C23.6940631,17.7672287 23.7499245,17.6420708 23.7499245,17.5034779 L23.7499245,16.7963711 C23.7499245,16.6591924 23.6940631,16.5340345 23.6035534,16.4435248 M22.8964466,19.2435248 C22.8059369,19.3340345 22.7500755,19.4591924 22.7500755,19.5977853 L22.7500755,20.3048921 C22.7500755,20.4420708 22.8059369,20.5672287 22.8964466,20.6577384 C23.0923152,20.853607 23.4083919,20.8528999 23.6035534,20.6577384 C23.6940631,20.5672287 23.7499245,20.4420708 23.7506316,20.304185 L23.7506316,19.5970782 C23.7499245,19.4591924 23.6940631,19.3340345 23.6035534,19.2435248 C23.4083919,19.0483633 23.0916081,19.0483633 22.8964466,19.2435248 M9.10355339,12.2577384 C9.19406306,12.1672287 9.24992449,12.0420708 9.24992449,11.9034779 L9.24992449,11.1963711 C9.24992449,11.0591924 9.19406306,10.9340345 9.10355339,10.8435248 C8.90768481,10.6476562 8.59160808,10.6483633 8.39644661,10.8435248 C8.30593694,10.9340345 8.25007551,11.0591924 8.2493684,11.1970782 L8.2493684,11.904185 C8.25007551,12.0420708 8.30593694,12.1672287 8.39644661,12.2577384 C8.59160808,12.4528999 8.90839192,12.4528999 9.10355339,12.2577384 M8.39644661,15.0577384 C8.59160808,15.2528999 8.90839192,15.2528999 9.10355339,15.0577384 C9.19406306,14.9672287 9.24992449,14.8420708 9.2506316,14.704185 L9.2506316,13.9970782 C9.24992449,13.8591924 9.19406306,13.7340345 9.10355339,13.6435248 C8.90839192,13.4483633 8.59160808,13.4483633 8.39644661,13.6435248 C8.30593694,13.7340345 8.25007551,13.8591924 8.25007551,13.9977853 L8.25007551,14.7048921 C8.25007551,14.8420708 8.30593694,14.9672287 8.39644661,15.0577384 M8.39644661,20.6577384 C8.59231519,20.853607 8.90839192,20.8528999 9.10355339,20.6577384 C9.19406306,20.5672287 9.24992449,20.4420708 9.2506316,20.304185 L9.2506316,19.5970782 C9.24992449,19.4591924 9.19406306,19.3340345 9.10355339,19.2435248 C8.90839192,19.0483633 8.59160808,19.0483633 8.39644661,19.2435248 C8.30593694,19.3340345 8.25007551,19.4591924 8.25007551,19.5977853 L8.25007551,20.3048921 C8.25007551,20.4420708 8.30593694,20.5672287 8.39644661,20.6577384 M8.39644661,17.8577384 C8.59160808,18.0528999 8.90839192,18.0528999 9.10355339,17.8577384 C9.19406306,17.7672287 9.24992449,17.6420708 9.24992449,17.5034779 L9.24992449,16.7963711 C9.24992449,16.6591924 9.19406306,16.5340345 9.10355339,16.4435248 C8.90839192,16.2483633 8.59160808,16.2483633 8.39644661,16.4435248 C8.30593694,16.5340345 8.25007551,16.6591924 8.2493684,16.7970782 L8.2493684,17.504185 C8.25007551,17.6420708 8.30593694,17.7672287 8.39644661,17.8577384 M12.5071068,8.14707821 C12.4165971,8.05656854 12.2914392,8.00070711 12.1535534,8 L11.4464466,8 C11.3085608,8.00070711 11.1834029,8.05656854 11.0928932,8.14707821 C10.8977317,8.34223968 10.8970246,8.65831641 11.0928932,8.85418499 C11.1834029,8.94469466 11.3085608,9.0005561 11.4457395,9.0005561 L12.1528463,9.0005561 C12.2914392,9.0005561 12.4165971,8.94469466 12.5071068,8.85418499 C12.7022683,8.65902352 12.7022683,8.34223968 12.5071068,8.14707821 M15.3071068,8.14707821 C15.2165971,8.05656854 15.0914392,8.00070711 14.9535534,8 L14.2464466,8 C14.1078537,8 13.9834029,8.05656854 13.8928932,8.14707821 C13.6977317,8.34223968 13.6970246,8.65831641 13.8928932,8.85418499 C13.9834029,8.94469466 14.1078537,8.99984899 14.2457395,9.0005561 L14.9528463,9.0005561 C15.0914392,9.0005561 15.2165971,8.94469466 15.3071068,8.85418499 C15.5022683,8.65902352 15.5022683,8.34223968 15.3071068,8.14707821 M18.1071068,8.14707821 C18.0165971,8.05656854 17.8921463,8.00141421 17.7542605,8.00070711 L17.0471537,8.00070711 C16.9085608,8.00070711 16.7834029,8.05656854 16.6928932,8.14707821 C16.4977317,8.34223968 16.4977317,8.65902352 16.6928932,8.85418499 C16.7834029,8.94469466 16.9085608,9.0005561 17.0464466,9.0012632 L17.7535534,9.0012632 C17.8921463,9.0012632 18.0165971,8.94469466 18.1071068,8.85418499 C18.3022683,8.65902352 18.3029754,8.34294679 18.1071068,8.14707821 M20.9071068,8.14707821 C20.8165971,8.05656854 20.6914392,8.00070711 20.5542605,8.00070711 L19.8471537,8.00070711 C19.7085608,8.00070711 19.5834029,8.05656854 19.4928932,8.14707821 C19.2977317,8.34223968 19.2977317,8.65902352 19.4928932,8.85418499 C19.5834029,8.94469466 19.7085608,9.0005561 19.8464466,9.0012632 L20.5535534,9.0012632 C20.6914392,9.0005561 20.8165971,8.94469466 20.9071068,8.85418499 C21.1022683,8.65902352 21.1029754,8.34294679 20.9071068,8.14707821 M12.5071068,22.6470782 C12.4165971,22.5565685 12.2914392,22.5007071 12.1535534,22.5 L11.4464466,22.5 C11.3085608,22.5007071 11.1834029,22.5565685 11.0928932,22.6470782 C10.8977317,22.8422397 10.8970246,23.1583164 11.0928932,23.354185 C11.1834029,23.4446947 11.3085608,23.5005561 11.4457395,23.5005561 L12.1528463,23.5005561 C12.2914392,23.5005561 12.4165971,23.4446947 12.5071068,23.354185 C12.7022683,23.1590235 12.7022683,22.8422397 12.5071068,22.6470782 M15.3071068,22.6470782 C15.2165971,22.5565685 15.0914392,22.5007071 14.9535534,22.5 L14.2464466,22.5 C14.1078537,22.5 13.9834029,22.5565685 13.8928932,22.6470782 C13.6977317,22.8422397 13.6970246,23.1583164 13.8928932,23.354185 C13.9834029,23.4446947 14.1078537,23.499849 14.2457395,23.5005561 L14.9528463,23.5005561 C15.0914392,23.5005561 15.2165971,23.4446947 15.3071068,23.354185 C15.5022683,23.1590235 15.5022683,22.8422397 15.3071068,22.6470782 M18.1071068,22.6470782 C18.0165971,22.5565685 17.8921463,22.5014142 17.7542605,22.5007071 L17.0471537,22.5007071 C16.9085608,22.5007071 16.7834029,22.5565685 16.6928932,22.6470782 C16.4977317,22.8422397 16.4977317,23.1590235 16.6928932,23.354185 C16.7834029,23.4446947 16.9085608,23.5005561 17.0464466,23.5012632 L17.7535534,23.5012632 C17.8921463,23.5012632 18.0165971,23.4446947 18.1071068,23.354185 C18.1976164,23.2636753 18.254185,23.1392245 18.254185,23.0006316 C18.2534779,22.8627458 18.1976164,22.7375879 18.1071068,22.6470782 M20.9071068,22.6470782 C21.1029754,22.8429468 21.1022683,23.1590235 20.9071068,23.354185 C20.8165971,23.4446947 20.6914392,23.5005561 20.5535534,23.5012632 L19.8464466,23.5012632 C19.7085608,23.5005561 19.5834029,23.4446947 19.4928932,23.354185 C19.2977317,23.1590235 19.2977317,22.8422397 19.4928932,22.6470782 C19.5834029,22.5565685 19.7085608,22.5007071 19.8471537,22.5007071 L20.5542605,22.5007071 C20.6914392,22.5007071 20.8165971,22.5565685 20.9071068,22.6470782" id="Fill-107" fill="#FFFFFF"></path>
                <path d="M11,11.9712 C11,11.4352 11.435,11.0002 11.972,11.0002 L14.278,11.0002 C14.815,11.0002 15.25,11.4352 15.25,11.9712 L15.25,14.2792 C15.25,14.8152 14.815,15.2502 14.278,15.2502 L11.972,15.2502 C11.435,15.2502 11,14.8152 11,14.2792 L11,11.9712 Z M11,17.7212 C11,17.1852 11.435,16.7502 11.972,16.7502 L14.028,16.7502 C14.565,16.7502 15,17.1852 15,17.7212 L15,20.0292 C15,20.5652 14.565,21.0002 14.028,21.0002 L11.972,21.0002 C11.435,21.0002 11,20.5652 11,20.0292 L11,17.7212 Z M16.75,11.9712 C16.75,11.4352 17.185,11.0002 17.722,11.0002 L20.028,11.0002 C20.565,11.0002 21,11.4352 21,11.9712 L21,14.0002 C21,14.5362 20.565,14.9712 20.028,14.9712 L17.722,14.9712 C17.185,14.9712 16.75,14.5362 16.75,14.0002 L16.75,11.9712 Z M16.25,16.7172 C16.25,16.4592 16.459,16.2502 16.717,16.2502 L17.533,16.2502 C17.791,16.2502 18,16.4592 18,16.7172 L18,17.5332 C18,17.7912 17.791,18.0002 17.533,18.0002 L16.717,18.0002 C16.459,18.0002 16.25,17.7912 16.25,17.5332 L16.25,16.7172 Z M16.25,19.7172 C16.25,19.4592 16.459,19.2502 16.717,19.2502 L17.533,19.2502 C17.791,19.2502 18,19.4592 18,19.7172 L18,20.5332 C18,20.7912 17.791,21.0002 17.533,21.0002 L16.717,21.0002 C16.459,21.0002 16.25,20.7912 16.25,20.5332 L16.25,19.7172 Z M19.25,16.7172 C19.25,16.4592 19.459,16.2502 19.717,16.2502 L20.533,16.2502 C20.791,16.2502 21,16.4592 21,16.7172 L21,17.5332 C21,17.7912 20.791,18.0002 20.533,18.0002 L19.717,18.0002 C19.459,18.0002 19.25,17.7912 19.25,17.5332 L19.25,16.7172 Z M19.25,19.7172 C19.25,19.4592 19.459,19.2502 19.717,19.2502 L20.533,19.2502 C20.791,19.2502 21,19.4592 21,19.7172 L21,20.5332 C21,20.7912 20.791,21.0002 20.533,21.0002 L19.717,21.0002 C19.459,21.0002 19.25,20.7912 19.25,20.5332 L19.25,19.7172 Z" id="Fill-292" fill="#FFFFFF"></path>
            </g>
        </g>
        <g id="0:icon/project/project-template-sealed" transform="translate(0.000000, 120.000000)">
            <g>
                <g id="Rectangle-50-Copy">
                    <use fill="#AE835D" xlink:href="#path-3"></use>
                    <use fill="url(#linearGradient-2)" xlink:href="#path-3"></use>
                </g>
                <path d="M23.75,8.53434589 C23.75,8.23948874 23.5111429,8.0006316 23.2162857,8.0006316 L22.2837143,8.0006316 C21.9888571,8.0006316 21.75,8.23948874 21.75,8.53434589 C21.75,8.62490767 21.75,8.692829 21.75,8.73810989 C21.75,8.9810457 22.7370946,10.0006316 22.9637848,10.0006316 C23.0198961,10.0006316 23.1040631,10.0006316 23.2162857,10.0006316 C23.5111429,10.0006316 23.75,9.76177446 23.75,9.46691732 L23.75,8.53434589 Z M8.25,8.53434589 C8.25,8.23948874 8.48885714,8.0006316 8.78371429,8.0006316 L9.71628571,8.0006316 C10.0111429,8.0006316 10.25,8.23948874 10.25,8.53434589 C10.25,8.62490767 10.25,8.692829 10.25,8.73810989 C10.25,8.9810457 9.26290538,10.0006316 9.03621521,10.0006316 C8.9801039,10.0006316 8.89593692,10.0006316 8.78371429,10.0006316 C8.48885714,10.0006316 8.25,9.76177446 8.25,9.46691732 L8.25,8.53434589 Z M23.75,22.9669173 C23.75,23.2617745 23.5111429,23.5006316 23.2162857,23.5006316 L22.2837143,23.5006316 C21.9888571,23.5006316 21.75,23.2617745 21.75,22.9669173 C21.75,22.8763555 21.75,22.8084342 21.75,22.7631533 C21.75,22.5202175 22.7370946,21.5006316 22.9637848,21.5006316 C23.1149116,21.5006316 23.1990785,21.5006316 23.2162857,21.5006316 C23.5111429,21.5006316 23.75,21.7394887 23.75,22.0343459 L23.75,22.9669173 Z M8.25,22.9669173 C8.25,23.2617745 8.48885714,23.5006316 8.78371429,23.5006316 L9.71628571,23.5006316 C10.0111429,23.5006316 10.25,23.2617745 10.25,22.9669173 C10.25,22.8763555 10.25,22.8084342 10.25,22.7631533 C10.25,22.5202175 9.26290538,21.5006316 9.03621521,21.5006316 C8.88508844,21.5006316 8.80092146,21.5006316 8.78371429,21.5006316 C8.48885714,21.5006316 8.25,21.7394887 8.25,22.0343459 L8.25,22.9669173 Z M22.8964466,10.8435248 C22.8059369,10.9340345 22.7500755,11.0591924 22.7493684,11.1970782 L22.7493684,11.904185 C22.7500755,12.0420708 22.8059369,12.1672287 22.8964466,12.2577384 C23.0916081,12.4528999 23.4083919,12.4528999 23.6035534,12.2577384 C23.6940631,12.1672287 23.7499245,12.0420708 23.7499245,11.9034779 L23.7499245,11.1963711 C23.7499245,11.0591924 23.6940631,10.9340345 23.6035534,10.8435248 C23.4076848,10.6476562 23.0916081,10.6483633 22.8964466,10.8435248 Z M23.6035534,13.6435248 C23.4083919,13.4483633 23.0916081,13.4483633 22.8964466,13.6435248 C22.8059369,13.7340345 22.7500755,13.8591924 22.7500755,13.9977853 L22.7500755,14.7048921 C22.7500755,14.8420708 22.8059369,14.9672287 22.8964466,15.0577384 C23.0916081,15.2528999 23.4083919,15.2528999 23.6035534,15.0577384 C23.6940631,14.9672287 23.7499245,14.8420708 23.7506316,14.704185 L23.7506316,13.9970782 C23.7499245,13.8591924 23.6940631,13.7340345 23.6035534,13.6435248 M23.6035534,16.4435248 C23.4083919,16.2483633 23.0916081,16.2483633 22.8964466,16.4435248 C22.8059369,16.5340345 22.7500755,16.6591924 22.7493684,16.7970782 L22.7493684,17.504185 C22.7500755,17.6420708 22.8059369,17.7672287 22.8964466,17.8577384 C23.0916081,18.0528999 23.4083919,18.0528999 23.6035534,17.8577384 C23.6940631,17.7672287 23.7499245,17.6420708 23.7499245,17.5034779 L23.7499245,16.7963711 C23.7499245,16.6591924 23.6940631,16.5340345 23.6035534,16.4435248 M22.8964466,19.2435248 C22.8059369,19.3340345 22.7500755,19.4591924 22.7500755,19.5977853 L22.7500755,20.3048921 C22.7500755,20.4420708 22.8059369,20.5672287 22.8964466,20.6577384 C23.0923152,20.853607 23.4083919,20.8528999 23.6035534,20.6577384 C23.6940631,20.5672287 23.7499245,20.4420708 23.7506316,20.304185 L23.7506316,19.5970782 C23.7499245,19.4591924 23.6940631,19.3340345 23.6035534,19.2435248 C23.4083919,19.0483633 23.0916081,19.0483633 22.8964466,19.2435248 M9.10355339,12.2577384 C9.19406306,12.1672287 9.24992449,12.0420708 9.24992449,11.9034779 L9.24992449,11.1963711 C9.24992449,11.0591924 9.19406306,10.9340345 9.10355339,10.8435248 C8.90768481,10.6476562 8.59160808,10.6483633 8.39644661,10.8435248 C8.30593694,10.9340345 8.25007551,11.0591924 8.2493684,11.1970782 L8.2493684,11.904185 C8.25007551,12.0420708 8.30593694,12.1672287 8.39644661,12.2577384 C8.59160808,12.4528999 8.90839192,12.4528999 9.10355339,12.2577384 M8.39644661,15.0577384 C8.59160808,15.2528999 8.90839192,15.2528999 9.10355339,15.0577384 C9.19406306,14.9672287 9.24992449,14.8420708 9.2506316,14.704185 L9.2506316,13.9970782 C9.24992449,13.8591924 9.19406306,13.7340345 9.10355339,13.6435248 C8.90839192,13.4483633 8.59160808,13.4483633 8.39644661,13.6435248 C8.30593694,13.7340345 8.25007551,13.8591924 8.25007551,13.9977853 L8.25007551,14.7048921 C8.25007551,14.8420708 8.30593694,14.9672287 8.39644661,15.0577384 M8.39644661,20.6577384 C8.59231519,20.853607 8.90839192,20.8528999 9.10355339,20.6577384 C9.19406306,20.5672287 9.24992449,20.4420708 9.2506316,20.304185 L9.2506316,19.5970782 C9.24992449,19.4591924 9.19406306,19.3340345 9.10355339,19.2435248 C8.90839192,19.0483633 8.59160808,19.0483633 8.39644661,19.2435248 C8.30593694,19.3340345 8.25007551,19.4591924 8.25007551,19.5977853 L8.25007551,20.3048921 C8.25007551,20.4420708 8.30593694,20.5672287 8.39644661,20.6577384 M8.39644661,17.8577384 C8.59160808,18.0528999 8.90839192,18.0528999 9.10355339,17.8577384 C9.19406306,17.7672287 9.24992449,17.6420708 9.24992449,17.5034779 L9.24992449,16.7963711 C9.24992449,16.6591924 9.19406306,16.5340345 9.10355339,16.4435248 C8.90839192,16.2483633 8.59160808,16.2483633 8.39644661,16.4435248 C8.30593694,16.5340345 8.25007551,16.6591924 8.2493684,16.7970782 L8.2493684,17.504185 C8.25007551,17.6420708 8.30593694,17.7672287 8.39644661,17.8577384 M12.5071068,8.14707821 C12.4165971,8.05656854 12.2914392,8.00070711 12.1535534,8 L11.4464466,8 C11.3085608,8.00070711 11.1834029,8.05656854 11.0928932,8.14707821 C10.8977317,8.34223968 10.8970246,8.65831641 11.0928932,8.85418499 C11.1834029,8.94469466 11.3085608,9.0005561 11.4457395,9.0005561 L12.1528463,9.0005561 C12.2914392,9.0005561 12.4165971,8.94469466 12.5071068,8.85418499 C12.7022683,8.65902352 12.7022683,8.34223968 12.5071068,8.14707821 M15.3071068,8.14707821 C15.2165971,8.05656854 15.0914392,8.00070711 14.9535534,8 L14.2464466,8 C14.1078537,8 13.9834029,8.05656854 13.8928932,8.14707821 C13.6977317,8.34223968 13.6970246,8.65831641 13.8928932,8.85418499 C13.9834029,8.94469466 14.1078537,8.99984899 14.2457395,9.0005561 L14.9528463,9.0005561 C15.0914392,9.0005561 15.2165971,8.94469466 15.3071068,8.85418499 C15.5022683,8.65902352 15.5022683,8.34223968 15.3071068,8.14707821 M18.1071068,8.14707821 C18.0165971,8.05656854 17.8921463,8.00141421 17.7542605,8.00070711 L17.0471537,8.00070711 C16.9085608,8.00070711 16.7834029,8.05656854 16.6928932,8.14707821 C16.4977317,8.34223968 16.4977317,8.65902352 16.6928932,8.85418499 C16.7834029,8.94469466 16.9085608,9.0005561 17.0464466,9.0012632 L17.7535534,9.0012632 C17.8921463,9.0012632 18.0165971,8.94469466 18.1071068,8.85418499 C18.3022683,8.65902352 18.3029754,8.34294679 18.1071068,8.14707821 M20.9071068,8.14707821 C20.8165971,8.05656854 20.6914392,8.00070711 20.5542605,8.00070711 L19.8471537,8.00070711 C19.7085608,8.00070711 19.5834029,8.05656854 19.4928932,8.14707821 C19.2977317,8.34223968 19.2977317,8.65902352 19.4928932,8.85418499 C19.5834029,8.94469466 19.7085608,9.0005561 19.8464466,9.0012632 L20.5535534,9.0012632 C20.6914392,9.0005561 20.8165971,8.94469466 20.9071068,8.85418499 C21.1022683,8.65902352 21.1029754,8.34294679 20.9071068,8.14707821 M12.5071068,22.6470782 C12.4165971,22.5565685 12.2914392,22.5007071 12.1535534,22.5 L11.4464466,22.5 C11.3085608,22.5007071 11.1834029,22.5565685 11.0928932,22.6470782 C10.8977317,22.8422397 10.8970246,23.1583164 11.0928932,23.354185 C11.1834029,23.4446947 11.3085608,23.5005561 11.4457395,23.5005561 L12.1528463,23.5005561 C12.2914392,23.5005561 12.4165971,23.4446947 12.5071068,23.354185 C12.7022683,23.1590235 12.7022683,22.8422397 12.5071068,22.6470782 M15.3071068,22.6470782 C15.2165971,22.5565685 15.0914392,22.5007071 14.9535534,22.5 L14.2464466,22.5 C14.1078537,22.5 13.9834029,22.5565685 13.8928932,22.6470782 C13.6977317,22.8422397 13.6970246,23.1583164 13.8928932,23.354185 C13.9834029,23.4446947 14.1078537,23.499849 14.2457395,23.5005561 L14.9528463,23.5005561 C15.0914392,23.5005561 15.2165971,23.4446947 15.3071068,23.354185 C15.5022683,23.1590235 15.5022683,22.8422397 15.3071068,22.6470782 M18.1071068,22.6470782 C18.0165971,22.5565685 17.8921463,22.5014142 17.7542605,22.5007071 L17.0471537,22.5007071 C16.9085608,22.5007071 16.7834029,22.5565685 16.6928932,22.6470782 C16.4977317,22.8422397 16.4977317,23.1590235 16.6928932,23.354185 C16.7834029,23.4446947 16.9085608,23.5005561 17.0464466,23.5012632 L17.7535534,23.5012632 C17.8921463,23.5012632 18.0165971,23.4446947 18.1071068,23.354185 C18.1976164,23.2636753 18.254185,23.1392245 18.254185,23.0006316 C18.2534779,22.8627458 18.1976164,22.7375879 18.1071068,22.6470782 M20.9071068,22.6470782 C21.1029754,22.8429468 21.1022683,23.1590235 20.9071068,23.354185 C20.8165971,23.4446947 20.6914392,23.5005561 20.5535534,23.5012632 L19.8464466,23.5012632 C19.7085608,23.5005561 19.5834029,23.4446947 19.4928932,23.354185 C19.2977317,23.1590235 19.2977317,22.8422397 19.4928932,22.6470782 C19.5834029,22.5565685 19.7085608,22.5007071 19.8471537,22.5007071 L20.5542605,22.5007071 C20.6914392,22.5007071 20.8165971,22.5565685 20.9071068,22.6470782" id="Fill-107" fill="#FFFFFF"></path>
                <path d="M19.8053579,15.7442844 C19.675691,15.6116979 19.5183444,15.5454543 19.3330747,15.5454543 L19.1109797,15.5454543 L19.1109797,14.1817534 C19.1109797,13.3105628 18.8055048,12.562531 18.1943606,11.9375335 C17.5832649,11.3125112 16.8519155,11 15.9999474,11 C15.1480036,11 14.4165082,11.3125112 13.8054612,11.9375087 C13.1943169,12.562531 12.8888421,13.310538 12.8888421,14.1817534 L12.8888421,15.5454543 L12.6666498,15.5454543 C12.481526,15.5454543 12.3240821,15.6116979 12.1944395,15.7442844 C12.064797,15.8767714 12,16.0377907 12,16.2272924 L12,20.3181217 C12,20.5074493 12.0648213,20.6685183 12.1944395,20.8011297 C12.3240821,20.9335919 12.481526,20.99991 12.6666498,20.99991 L19.3332449,20.99991 C19.5185146,20.99991 19.675837,20.9336665 19.8055282,20.8011297 C19.9350491,20.6685183 19.9999678,20.5074493 19.9999678,20.3181217 L19.9999678,16.2272178 C20.000065,16.0378653 19.9350491,15.8768709 19.8053579,15.7442844 Z M17.7777044,15.5454543 L14.2221903,15.5454543 L14.2221903,14.1817534 C14.2221903,13.6798897 14.3958335,13.2513591 14.7430469,12.8963108 C15.090309,12.5412127 15.5092515,12.363701 16.0000203,12.363701 C16.4908378,12.363701 16.909683,12.5411878 17.2569694,12.8963108 C17.6040856,13.2513342 17.7777044,13.6798897 17.7777044,14.1817534 L17.7777044,15.5454543 Z" id="Shape" fill="#FFFFFF"></path>
            </g>
        </g>
        <g id="0:icon/project/project-template" transform="translate(0.000000, 80.000000)">
            <g>
                <g id="Rectangle-50-Copy">
                    <use fill="#AE835D" xlink:href="#path-4"></use>
                    <use fill="url(#linearGradient-2)" xlink:href="#path-4"></use>
                </g>
                <path d="M23.75,8.78371429 C23.75,8.48885714 23.5111429,8.25 23.2162857,8.25 L22.2837143,8.25 C21.9888571,8.25 21.75,8.48885714 21.75,8.78371429 C21.75,8.87427606 21.75,8.9421974 21.75,8.98747829 C21.75,9.2304141 22.7370946,10.25 22.9637848,10.25 C23.0198961,10.25 23.1040631,10.25 23.2162857,10.25 C23.5111429,10.25 23.75,10.0111429 23.75,9.71628571 L23.75,8.78371429 Z M8.25,8.78371429 C8.25,8.48885714 8.48885714,8.25 8.78371429,8.25 L9.71628571,8.25 C10.0111429,8.25 10.25,8.48885714 10.25,8.78371429 C10.25,8.87427606 10.25,8.9421974 10.25,8.98747829 C10.25,9.2304141 9.26290538,10.25 9.03621521,10.25 C8.9801039,10.25 8.89593692,10.25 8.78371429,10.25 C8.48885714,10.25 8.25,10.0111429 8.25,9.71628571 L8.25,8.78371429 Z M23.75,23.2162857 C23.75,23.5111429 23.5111429,23.75 23.2162857,23.75 L22.2837143,23.75 C21.9888571,23.75 21.75,23.5111429 21.75,23.2162857 C21.75,23.1257239 21.75,23.0578026 21.75,23.0125217 C21.75,22.7695859 22.7370946,21.75 22.9637848,21.75 C23.1149116,21.75 23.1990785,21.75 23.2162857,21.75 C23.5111429,21.75 23.75,21.9888571 23.75,22.2837143 L23.75,23.2162857 Z M8.25,23.2162857 C8.25,23.5111429 8.48885714,23.75 8.78371429,23.75 L9.71628571,23.75 C10.0111429,23.75 10.25,23.5111429 10.25,23.2162857 C10.25,23.1257239 10.25,23.0578026 10.25,23.0125217 C10.25,22.7695859 9.26290538,21.75 9.03621521,21.75 C8.88508844,21.75 8.80092146,21.75 8.78371429,21.75 C8.48885714,21.75 8.25,21.9888571 8.25,22.2837143 L8.25,23.2162857 Z M22.8964466,11.0928932 C22.8059369,11.1834029 22.7500755,11.3085608 22.7493684,11.4464466 L22.7493684,12.1535534 C22.7500755,12.2914392 22.8059369,12.4165971 22.8964466,12.5071068 C23.0916081,12.7022683 23.4083919,12.7022683 23.6035534,12.5071068 C23.6940631,12.4165971 23.7499245,12.2914392 23.7499245,12.1528463 L23.7499245,11.4457395 C23.7499245,11.3085608 23.6940631,11.1834029 23.6035534,11.0928932 C23.4076848,10.8970246 23.0916081,10.8977317 22.8964466,11.0928932 Z M23.6035534,13.8928932 C23.4083919,13.6977317 23.0916081,13.6977317 22.8964466,13.8928932 C22.8059369,13.9834029 22.7500755,14.1085608 22.7500755,14.2471537 L22.7500755,14.9542605 C22.7500755,15.0914392 22.8059369,15.2165971 22.8964466,15.3071068 C23.0916081,15.5022683 23.4083919,15.5022683 23.6035534,15.3071068 C23.6940631,15.2165971 23.7499245,15.0914392 23.7506316,14.9535534 L23.7506316,14.2464466 C23.7499245,14.1085608 23.6940631,13.9834029 23.6035534,13.8928932 M23.6035534,16.6928932 C23.4083919,16.4977317 23.0916081,16.4977317 22.8964466,16.6928932 C22.8059369,16.7834029 22.7500755,16.9085608 22.7493684,17.0464466 L22.7493684,17.7535534 C22.7500755,17.8914392 22.8059369,18.0165971 22.8964466,18.1071068 C23.0916081,18.3022683 23.4083919,18.3022683 23.6035534,18.1071068 C23.6940631,18.0165971 23.7499245,17.8914392 23.7499245,17.7528463 L23.7499245,17.0457395 C23.7499245,16.9085608 23.6940631,16.7834029 23.6035534,16.6928932 M22.8964466,19.4928932 C22.8059369,19.5834029 22.7500755,19.7085608 22.7500755,19.8471537 L22.7500755,20.5542605 C22.7500755,20.6914392 22.8059369,20.8165971 22.8964466,20.9071068 C23.0923152,21.1029754 23.4083919,21.1022683 23.6035534,20.9071068 C23.6940631,20.8165971 23.7499245,20.6914392 23.7506316,20.5535534 L23.7506316,19.8464466 C23.7499245,19.7085608 23.6940631,19.5834029 23.6035534,19.4928932 C23.4083919,19.2977317 23.0916081,19.2977317 22.8964466,19.4928932 M9.10355339,12.5071068 C9.19406306,12.4165971 9.24992449,12.2914392 9.24992449,12.1528463 L9.24992449,11.4457395 C9.24992449,11.3085608 9.19406306,11.1834029 9.10355339,11.0928932 C8.90768481,10.8970246 8.59160808,10.8977317 8.39644661,11.0928932 C8.30593694,11.1834029 8.25007551,11.3085608 8.2493684,11.4464466 L8.2493684,12.1535534 C8.25007551,12.2914392 8.30593694,12.4165971 8.39644661,12.5071068 C8.59160808,12.7022683 8.90839192,12.7022683 9.10355339,12.5071068 M8.39644661,15.3071068 C8.59160808,15.5022683 8.90839192,15.5022683 9.10355339,15.3071068 C9.19406306,15.2165971 9.24992449,15.0914392 9.2506316,14.9535534 L9.2506316,14.2464466 C9.24992449,14.1085608 9.19406306,13.9834029 9.10355339,13.8928932 C8.90839192,13.6977317 8.59160808,13.6977317 8.39644661,13.8928932 C8.30593694,13.9834029 8.25007551,14.1085608 8.25007551,14.2471537 L8.25007551,14.9542605 C8.25007551,15.0914392 8.30593694,15.2165971 8.39644661,15.3071068 M8.39644661,20.9071068 C8.59231519,21.1029754 8.90839192,21.1022683 9.10355339,20.9071068 C9.19406306,20.8165971 9.24992449,20.6914392 9.2506316,20.5535534 L9.2506316,19.8464466 C9.24992449,19.7085608 9.19406306,19.5834029 9.10355339,19.4928932 C8.90839192,19.2977317 8.59160808,19.2977317 8.39644661,19.4928932 C8.30593694,19.5834029 8.25007551,19.7085608 8.25007551,19.8471537 L8.25007551,20.5542605 C8.25007551,20.6914392 8.30593694,20.8165971 8.39644661,20.9071068 M8.39644661,18.1071068 C8.59160808,18.3022683 8.90839192,18.3022683 9.10355339,18.1071068 C9.19406306,18.0165971 9.24992449,17.8914392 9.24992449,17.7528463 L9.24992449,17.0457395 C9.24992449,16.9085608 9.19406306,16.7834029 9.10355339,16.6928932 C8.90839192,16.4977317 8.59160808,16.4977317 8.39644661,16.6928932 C8.30593694,16.7834029 8.25007551,16.9085608 8.2493684,17.0464466 L8.2493684,17.7535534 C8.25007551,17.8914392 8.30593694,18.0165971 8.39644661,18.1071068 M12.5071068,8.39644661 C12.4165971,8.30593694 12.2914392,8.25007551 12.1535534,8.2493684 L11.4464466,8.2493684 C11.3085608,8.25007551 11.1834029,8.30593694 11.0928932,8.39644661 C10.8977317,8.59160808 10.8970246,8.90768481 11.0928932,9.10355339 C11.1834029,9.19406306 11.3085608,9.24992449 11.4457395,9.24992449 L12.1528463,9.24992449 C12.2914392,9.24992449 12.4165971,9.19406306 12.5071068,9.10355339 C12.7022683,8.90839192 12.7022683,8.59160808 12.5071068,8.39644661 M15.3071068,8.39644661 C15.2165971,8.30593694 15.0914392,8.25007551 14.9535534,8.2493684 L14.2464466,8.2493684 C14.1078537,8.2493684 13.9834029,8.30593694 13.8928932,8.39644661 C13.6977317,8.59160808 13.6970246,8.90768481 13.8928932,9.10355339 C13.9834029,9.19406306 14.1078537,9.24921739 14.2457395,9.24992449 L14.9528463,9.24992449 C15.0914392,9.24992449 15.2165971,9.19406306 15.3071068,9.10355339 C15.5022683,8.90839192 15.5022683,8.59160808 15.3071068,8.39644661 M18.1071068,8.39644661 C18.0165971,8.30593694 17.8921463,8.25078261 17.7542605,8.25007551 L17.0471537,8.25007551 C16.9085608,8.25007551 16.7834029,8.30593694 16.6928932,8.39644661 C16.4977317,8.59160808 16.4977317,8.90839192 16.6928932,9.10355339 C16.7834029,9.19406306 16.9085608,9.24992449 17.0464466,9.2506316 L17.7535534,9.2506316 C17.8921463,9.2506316 18.0165971,9.19406306 18.1071068,9.10355339 C18.3022683,8.90839192 18.3029754,8.59231519 18.1071068,8.39644661 M20.9071068,8.39644661 C20.8165971,8.30593694 20.6914392,8.25007551 20.5542605,8.25007551 L19.8471537,8.25007551 C19.7085608,8.25007551 19.5834029,8.30593694 19.4928932,8.39644661 C19.2977317,8.59160808 19.2977317,8.90839192 19.4928932,9.10355339 C19.5834029,9.19406306 19.7085608,9.24992449 19.8464466,9.2506316 L20.5535534,9.2506316 C20.6914392,9.24992449 20.8165971,9.19406306 20.9071068,9.10355339 C21.1022683,8.90839192 21.1029754,8.59231519 20.9071068,8.39644661 M12.5071068,22.8964466 C12.4165971,22.8059369 12.2914392,22.7500755 12.1535534,22.7493684 L11.4464466,22.7493684 C11.3085608,22.7500755 11.1834029,22.8059369 11.0928932,22.8964466 C10.8977317,23.0916081 10.8970246,23.4076848 11.0928932,23.6035534 C11.1834029,23.6940631 11.3085608,23.7499245 11.4457395,23.7499245 L12.1528463,23.7499245 C12.2914392,23.7499245 12.4165971,23.6940631 12.5071068,23.6035534 C12.7022683,23.4083919 12.7022683,23.0916081 12.5071068,22.8964466 M15.3071068,22.8964466 C15.2165971,22.8059369 15.0914392,22.7500755 14.9535534,22.7493684 L14.2464466,22.7493684 C14.1078537,22.7493684 13.9834029,22.8059369 13.8928932,22.8964466 C13.6977317,23.0916081 13.6970246,23.4076848 13.8928932,23.6035534 C13.9834029,23.6940631 14.1078537,23.7492174 14.2457395,23.7499245 L14.9528463,23.7499245 C15.0914392,23.7499245 15.2165971,23.6940631 15.3071068,23.6035534 C15.5022683,23.4083919 15.5022683,23.0916081 15.3071068,22.8964466 M18.1071068,22.8964466 C18.0165971,22.8059369 17.8921463,22.7507826 17.7542605,22.7500755 L17.0471537,22.7500755 C16.9085608,22.7500755 16.7834029,22.8059369 16.6928932,22.8964466 C16.4977317,23.0916081 16.4977317,23.4083919 16.6928932,23.6035534 C16.7834029,23.6940631 16.9085608,23.7499245 17.0464466,23.7506316 L17.7535534,23.7506316 C17.8921463,23.7506316 18.0165971,23.6940631 18.1071068,23.6035534 C18.1976164,23.5130437 18.254185,23.3885929 18.254185,23.25 C18.2534779,23.1121142 18.1976164,22.9869563 18.1071068,22.8964466 M20.9071068,22.8964466 C21.1029754,23.0923152 21.1022683,23.4083919 20.9071068,23.6035534 C20.8165971,23.6940631 20.6914392,23.7499245 20.5535534,23.7506316 L19.8464466,23.7506316 C19.7085608,23.7499245 19.5834029,23.6940631 19.4928932,23.6035534 C19.2977317,23.4083919 19.2977317,23.0916081 19.4928932,22.8964466 C19.5834029,22.8059369 19.7085608,22.7500755 19.8471537,22.7500755 L20.5542605,22.7500755 C20.6914392,22.7500755 20.8165971,22.8059369 20.9071068,22.8964466" id="Fill-107" fill="#FFFFFF"></path>
                <path d="M11,11.9712 C11,11.4352 11.435,11.0002 11.972,11.0002 L14.278,11.0002 C14.815,11.0002 15.25,11.4352 15.25,11.9712 L15.25,14.2792 C15.25,14.8152 14.815,15.2502 14.278,15.2502 L11.972,15.2502 C11.435,15.2502 11,14.8152 11,14.2792 L11,11.9712 Z M11,17.7212 C11,17.1852 11.435,16.7502 11.972,16.7502 L14.028,16.7502 C14.565,16.7502 15,17.1852 15,17.7212 L15,20.0292 C15,20.5652 14.565,21.0002 14.028,21.0002 L11.972,21.0002 C11.435,21.0002 11,20.5652 11,20.0292 L11,17.7212 Z M16.75,11.9712 C16.75,11.4352 17.185,11.0002 17.722,11.0002 L20.028,11.0002 C20.565,11.0002 21,11.4352 21,11.9712 L21,14.0002 C21,14.5362 20.565,14.9712 20.028,14.9712 L17.722,14.9712 C17.185,14.9712 16.75,14.5362 16.75,14.0002 L16.75,11.9712 Z M16.25,16.7172 C16.25,16.4592 16.459,16.2502 16.717,16.2502 L17.533,16.2502 C17.791,16.2502 18,16.4592 18,16.7172 L18,17.5332 C18,17.7912 17.791,18.0002 17.533,18.0002 L16.717,18.0002 C16.459,18.0002 16.25,17.7912 16.25,17.5332 L16.25,16.7172 Z M16.25,19.7172 C16.25,19.4592 16.459,19.2502 16.717,19.2502 L17.533,19.2502 C17.791,19.2502 18,19.4592 18,19.7172 L18,20.5332 C18,20.7912 17.791,21.0002 17.533,21.0002 L16.717,21.0002 C16.459,21.0002 16.25,20.7912 16.25,20.5332 L16.25,19.7172 Z M19.25,16.7172 C19.25,16.4592 19.459,16.2502 19.717,16.2502 L20.533,16.2502 C20.791,16.2502 21,16.4592 21,16.7172 L21,17.5332 C21,17.7912 20.791,18.0002 20.533,18.0002 L19.717,18.0002 C19.459,18.0002 19.25,17.7912 19.25,17.5332 L19.25,16.7172 Z M19.25,19.7172 C19.25,19.4592 19.459,19.2502 19.717,19.2502 L20.533,19.2502 C20.791,19.2502 21,19.4592 21,19.7172 L21,20.5332 C21,20.7912 20.791,21.0002 20.533,21.0002 L19.717,21.0002 C19.459,21.0002 19.25,20.7912 19.25,20.5332 L19.25,19.7172 Z" id="Fill-292" fill="#FFFFFF"></path>
            </g>
        </g>
        <g id="0:icon/project/project-sealed" transform="translate(0.000000, 40.000000)">
            <g id="ikon-project-copy">
                <rect id="Rectangle-50-Copy" fill="url(#linearGradient-5)" x="0" y="0" width="32" height="32" rx="2"></rect>
                <path d="M23.0497008,15.5397463 C22.8162995,15.3010896 22.5330743,15.1818507 22.1995875,15.1818507 L21.799815,15.1818507 L21.799815,12.7271791 C21.799815,11.1590299 21.249958,9.81256716 20.1498939,8.68756716 C19.0499173,7.56252239 17.733483,7 16.1999342,7 C14.6664292,7 13.3497322,7.56252239 12.2498432,8.68752239 C11.1497791,9.81256716 10.5999221,11.1589851 10.5999221,12.7271791 L10.5999221,15.1818507 L10.1999744,15.1818507 C9.86675037,15.1818507 9.5833501,15.3010896 9.34999255,15.5397463 C9.11663499,15.7782239 9,16.0680597 9,16.4091642 L9,23.7726866 C9,24.1134776 9.11667878,24.403403 9.34999255,24.6421045 C9.5833501,24.8805373 9.86675037,24.9999104 10.1999744,24.9999104 L22.199894,24.9999104 C22.5333808,24.9999104 22.8165621,24.8806716 23.0500073,24.6421045 C23.2831459,24.403403 23.4,24.1134776 23.4,23.7726866 L23.4,16.4090299 C23.4001749,16.068194 23.2831459,15.778403 23.0497008,15.5397463 Z M19.3999099,15.1818507 L12.9999586,15.1818507 L12.9999586,12.7271791 C12.9999586,11.8238209 13.3125176,11.0524627 13.9375043,10.4133731 C14.5625786,9.77419403 15.3166781,9.45467164 16.2000656,9.45467164 C17.0835406,9.45467164 17.837465,9.77414925 18.4625831,10.4133731 C19.0873946,11.0524179 19.3999099,11.8238209 19.3999099,12.7271791 L19.3999099,15.1818507 Z" id="Shape" fill="#FFFFFF"></path>
            </g>
        </g>
        <g id="0:icon/project/project">
            <g id="0:icon/events/project">
                <rect id="Rectangle-50-Copy" fill="url(#linearGradient-5)" x="0" y="0" width="32" height="32" rx="2"></rect>
                <path d="M8,10.0059191 C8,8.89808055 8.88655484,8 10.0059191,8 L12.9940809,8 C14.1019194,8 15,8.88655484 15,10.0059191 L15,12.9940809 C15,14.1019194 14.1134452,15 12.9940809,15 L10.0059191,15 C8.89808055,15 8,14.1134452 8,12.9940809 L8,10.0059191 Z M8,19.0059191 C8,17.8980806 8.88655484,17 10.0059191,17 L12.9940809,17 C14.1019194,17 15,17.8865548 15,19.0059191 L15,21.9940809 C15,23.1019194 14.1134452,24 12.9940809,24 L10.0059191,24 C8.89808055,24 8,23.1134452 8,21.9940809 L8,19.0059191 Z M17,10.0059191 C17,8.89808055 17.8865548,8 19.0059191,8 L21.9940809,8 C23.1019194,8 24,8.88655484 24,10.0059191 L24,12.9940809 C24,14.1019194 23.1134452,15 21.9940809,15 L19.0059191,15 C17.8980806,15 17,14.1134452 17,12.9940809 L17,10.0059191 Z M17,18.5 C17,17.6715729 17.6657972,17 18.5,17 C19.3284271,17 20,17.6657972 20,18.5 C20,19.3284271 19.3342028,20 18.5,20 C17.6715729,20 17,19.3342028 17,18.5 Z M17,22.5 C17,21.6715729 17.6657972,21 18.5,21 C19.3284271,21 20,21.6657972 20,22.5 C20,23.3284271 19.3342028,24 18.5,24 C17.6715729,24 17,23.3342028 17,22.5 Z M21,18.5 C21,17.6715729 21.6657972,17 22.5,17 C23.3284271,17 24,17.6657972 24,18.5 C24,19.3284271 23.3342028,20 22.5,20 C21.6715729,20 21,19.3342028 21,18.5 Z M21,22.5 C21,21.6715729 21.6657972,21 22.5,21 C23.3284271,21 24,21.6657972 24,22.5 C24,23.3284271 23.3342028,24 22.5,24 C21.6715729,24 21,23.3342028 21,22.5 Z" id="Combined-Shape-Copy-11" fill="#FFFFFF"></path>
            </g>
        </g>
    </g>
</svg>